<?xml version="1.0" encoding="us-ascii" standalone="no"?><svg xmlns="http://www.w3.org/2000/svg" xmlns:xlink="http://www.w3.org/1999/xlink" contentStyleType="text/css" height="1168px" preserveAspectRatio="none" style="width:668px;height:1168px;" version="1.1" viewBox="0 0 668 1168" width="668px" zoomAndPan="magnify"><defs/><g><g id="elem_GMN2"><path d="M313,6 L313,13 L292.617,17 L313,21 L313,27.6406 A0,0 0 0 0 313,27.6406 L400,27.6406 A0,0 0 0 0 400,27.6406 L400,16 L390,6 L313,6 A0,0 0 0 0 313,6 " fill="#F0F8FF" style="stroke:#181818;stroke-width:0.5;"/><path d="M390,6 L390,16 L400,16 L390,6 " fill="#F0F8FF" style="stroke:#181818;stroke-width:0.5;"/><text fill="#000000" font-family="Ubuntu Light" font-size="10" lengthAdjust="spacing" textLength="66" x="319" y="20.2822">A topic arise</text></g><ellipse cx="282.5" cy="17" fill="#222222" rx="10" ry="10" style="stroke:none;stroke-width:1.0;"/><rect fill="#B0E0E6" height="33.9688" rx="12.5" ry="12.5" style="stroke:#181818;stroke-width:0.5;" width="60" x="252.5" y="82"/><text fill="#000000" font-family="Ubuntu Light" font-size="12" font-weight="bold" lengthAdjust="spacing" textLength="40" x="262.5" y="103.1387">Draft</text><g id="elem_GMN8"><path d="M76.5,88 L76.5,109.6406 A0,0 0 0 0 76.5,109.6406 L232.5,109.6406 A0,0 0 0 0 232.5,109.6406 L232.5,106 L252.336,99 L232.5,98 L232.5,98 L222.5,88 L76.5,88 A0,0 0 0 0 76.5,88 " fill="#F0F8FF" style="stroke:#181818;stroke-width:0.5;"/><path d="M222.5,88 L222.5,98 L232.5,98 L222.5,88 " fill="#F0F8FF" style="stroke:#181818;stroke-width:0.5;"/><text fill="#000000" font-family="Ubuntu Light" font-size="10" lengthAdjust="spacing" textLength="135" x="82.5" y="102.2822">An Idea (issue) is created</text></g><rect fill="#B0E0E6" height="33.9688" rx="12.5" ry="12.5" style="stroke:#181818;stroke-width:0.5;" width="58" x="253.5" y="175.5"/><text fill="#000000" font-family="Ubuntu Light" font-size="12" font-weight="bold" lengthAdjust="spacing" textLength="38" x="263.5" y="196.6387">Clear</text><g id="elem_GMN13"><path d="M332,170 L332,188.5 L311.549,192.5 L332,196.5 L332,214.9219 A0,0 0 0 0 332,214.9219 L511,214.9219 A0,0 0 0 0 511,214.9219 L511,180 L501,170 L332,170 A0,0 0 0 0 332,170 " fill="#F0F8FF" style="stroke:#181818;stroke-width:0.5;"/><path d="M501,170 L501,180 L511,180 L501,170 " fill="#F0F8FF" style="stroke:#181818;stroke-width:0.5;"/><text fill="#000000" font-family="Ubuntu Light" font-size="10" lengthAdjust="spacing" textLength="133" x="338" y="184.2822">The idea, the main goal,</text><text fill="#000000" font-family="Ubuntu Light" font-size="10" lengthAdjust="spacing" textLength="158" x="338" y="195.9229">the expected results, and the</text><text fill="#000000" font-family="Ubuntu Light" font-size="10" lengthAdjust="spacing" textLength="137" x="338" y="207.5635">required effort is clarified</text></g><rect fill="#B0E0E6" height="33.9688" rx="12.5" ry="12.5" style="stroke:#181818;stroke-width:0.5;" width="64" x="250.5" y="274.5"/><text fill="#000000" font-family="Ubuntu Light" font-size="12" font-weight="bold" lengthAdjust="spacing" textLength="44" x="260.5" y="295.6387">Ready</text><g id="elem_GMN18"><path d="M68.5,269 L68.5,313.9219 A0,0 0 0 0 68.5,313.9219 L230.5,313.9219 A0,0 0 0 0 230.5,313.9219 L230.5,295.5 L250.435,291.5 L230.5,287.5 L230.5,279 L220.5,269 L68.5,269 A0,0 0 0 0 68.5,269 " fill="#F0F8FF" style="stroke:#181818;stroke-width:0.5;"/><path d="M220.5,269 L220.5,279 L230.5,279 L220.5,269 " fill="#F0F8FF" style="stroke:#181818;stroke-width:0.5;"/><text fill="#000000" font-family="Ubuntu Light" font-size="10" lengthAdjust="spacing" textLength="110" x="74.5" y="283.2822">The contributors are</text><text fill="#000000" font-family="Ubuntu Light" font-size="10" lengthAdjust="spacing" textLength="140" x="74.5" y="294.9229">identified and the kick-off</text><text fill="#000000" font-family="Ubuntu Light" font-size="10" lengthAdjust="spacing" textLength="141" x="74.5" y="306.5635">is planned for a milestone</text></g><rect fill="#B0E0E6" height="33.9688" rx="12.5" ry="12.5" style="stroke:#181818;stroke-width:0.5;" width="103" x="231" y="373.5"/><text fill="#000000" font-family="Ubuntu Light" font-size="12" font-weight="bold" lengthAdjust="spacing" textLength="83" x="241" y="394.6387">In progress</text><g id="elem_GMN25"><path d="M6,368 L6,412.9219 A0,0 0 0 0 6,412.9219 L211,412.9219 A0,0 0 0 0 211,412.9219 L211,394.5 L230.926,390.5 L211,386.5 L211,378 L201,368 L6,368 A0,0 0 0 0 6,368 " fill="#F0F8FF" style="stroke:#181818;stroke-width:0.5;"/><path d="M201,368 L201,378 L211,378 L201,368 " fill="#F0F8FF" style="stroke:#181818;stroke-width:0.5;"/><text fill="#000000" font-family="Ubuntu Light" font-size="10" lengthAdjust="spacing" textLength="135" x="12" y="382.2822">The work in the project is</text><text fill="#000000" font-family="Ubuntu Light" font-size="10" lengthAdjust="spacing" textLength="150" x="12" y="393.9229">organized using the chosen</text><text fill="#000000" font-family="Ubuntu Light" font-size="10" lengthAdjust="spacing" textLength="184" x="12" y="405.5635">SDLC (SCRUM, KanBan, WaterFall)</text></g><rect fill="#B0E0E6" height="33.9688" rx="12.5" ry="12.5" style="stroke:#181818;stroke-width:0.5;" width="89" x="238" y="472.5"/><text fill="#000000" font-family="Ubuntu Light" font-size="12" font-weight="bold" lengthAdjust="spacing" textLength="69" x="248" y="493.6387">Delivered</text><g id="elem_GMN30"><path d="M33.5,467 L33.5,511.9219 A0,0 0 0 0 33.5,511.9219 L217.5,511.9219 A0,0 0 0 0 217.5,511.9219 L217.5,493.5 L237.765,489.5 L217.5,485.5 L217.5,477 L207.5,467 L33.5,467 A0,0 0 0 0 33.5,467 " fill="#F0F8FF" style="stroke:#181818;stroke-width:0.5;"/><path d="M207.5,467 L207.5,477 L217.5,477 L207.5,467 " fill="#F0F8FF" style="stroke:#181818;stroke-width:0.5;"/><text fill="#000000" font-family="Ubuntu Light" font-size="10" lengthAdjust="spacing" textLength="158" x="39.5" y="481.2822">The work in the project done,</text><text fill="#000000" font-family="Ubuntu Light" font-size="10" lengthAdjust="spacing" textLength="163" x="39.5" y="492.9229">the planned software/features</text><text fill="#000000" font-family="Ubuntu Light" font-size="10" lengthAdjust="spacing" textLength="72" x="39.5" y="504.5635">are delivered</text></g><g id="elem_#33"><polygon fill="#B0E0E6" points="282.5,563.5,294.5,575.5,282.5,587.5,270.5,575.5,282.5,563.5" style="stroke:#181818;stroke-width:0.5;"/></g><rect fill="#B0E0E6" height="33.9688" rx="12.5" ry="12.5" style="stroke:#181818;stroke-width:0.5;" width="95" x="337" y="558.5"/><text fill="#000000" font-family="Ubuntu Light" font-size="12" font-weight="bold" lengthAdjust="spacing" textLength="75" x="347" y="579.6387">Scheduled</text><g id="elem_GMN38"><path d="M452,553 L452,571.5 L432.029,575.5 L452,579.5 L452,597.9219 A0,0 0 0 0 452,597.9219 L627,597.9219 A0,0 0 0 0 627,597.9219 L627,563 L617,553 L452,553 A0,0 0 0 0 452,553 " fill="#F0F8FF" style="stroke:#181818;stroke-width:0.5;"/><path d="M617,553 L617,563 L627,563 L617,553 " fill="#F0F8FF" style="stroke:#181818;stroke-width:0.5;"/><text fill="#000000" font-family="Ubuntu Light" font-size="10" lengthAdjust="spacing" textLength="142" x="458" y="567.2822">An event is created on the</text><text fill="#000000" font-family="Ubuntu Light" font-size="10" lengthAdjust="spacing" textLength="154" x="458" y="578.9229">WeAreCommunity page and</text><text fill="#000000" font-family="Ubuntu Light" font-size="10" lengthAdjust="spacing" textLength="121" x="458" y="590.5635">registration is enabled</text></g><rect fill="#B0E0E6" height="33.9688" rx="12.5" ry="12.5" style="stroke:#181818;stroke-width:0.5;" width="98" x="329.5" y="701"/><text fill="#000000" font-family="Ubuntu Light" font-size="12" font-weight="bold" lengthAdjust="spacing" textLength="78" x="339.5" y="722.1387">Conducted</text><g id="elem_GMN43"><path d="M448,678 L448,714 L427.807,718 L448,722 L448,757.8438 A0,0 0 0 0 448,757.8438 L639,757.8438 A0,0 0 0 0 639,757.8438 L639,688 L629,678 L448,678 A0,0 0 0 0 448,678 " fill="#F0F8FF" style="stroke:#181818;stroke-width:0.5;"/><path d="M629,678 L629,688 L639,688 L629,678 " fill="#F0F8FF" style="stroke:#181818;stroke-width:0.5;"/><text fill="#000000" font-family="Ubuntu Light" font-size="10" lengthAdjust="spacing" textLength="153" x="454" y="692.2822">The webinar is conducted at</text><text fill="#000000" font-family="Ubuntu Light" font-size="10" lengthAdjust="spacing" textLength="147" x="454" y="703.9229">the given date/time, all the</text><text fill="#000000" font-family="Ubuntu Light" font-size="10" lengthAdjust="spacing" textLength="170" x="454" y="715.5635">questions answered or followed</text><text fill="#000000" font-family="Ubuntu Light" font-size="10" lengthAdjust="spacing" textLength="150" x="454" y="727.2041">up, the recording and slides</text><text fill="#000000" font-family="Ubuntu Light" font-size="10" lengthAdjust="spacing" textLength="150" x="454" y="738.8447">are available and uploaded</text><text fill="#000000" font-family="Ubuntu Light" font-size="10" lengthAdjust="spacing" textLength="144" x="454" y="750.4854">to VideoPortal and the talk</text></g><rect fill="#555555" height="8" style="stroke:none;stroke-width:1.0;" width="80" x="278.5" y="799"/><g id="elem_#49"><polygon fill="#B0E0E6" points="318.5,858.5,330.5,870.5,318.5,882.5,306.5,870.5,318.5,858.5" style="stroke:#181818;stroke-width:0.5;"/></g><rect fill="#B0E0E6" height="33.9688" rx="12.5" ry="12.5" style="stroke:#181818;stroke-width:0.5;" width="102" x="373.5" y="853.5"/><text fill="#000000" font-family="Ubuntu Light" font-size="12" font-weight="bold" lengthAdjust="spacing" textLength="82" x="383.5" y="874.6387">In summary</text><g id="elem_GMN54"><path d="M495.5,848 L495.5,866.5 L475.633,870.5 L495.5,874.5 L495.5,892.9219 A0,0 0 0 0 495.5,892.9219 L661.5,892.9219 A0,0 0 0 0 661.5,892.9219 L661.5,858 L651.5,848 L495.5,848 A0,0 0 0 0 495.5,848 " fill="#F0F8FF" style="stroke:#181818;stroke-width:0.5;"/><path d="M651.5,848 L651.5,858 L661.5,858 L651.5,848 " fill="#F0F8FF" style="stroke:#181818;stroke-width:0.5;"/><text fill="#000000" font-family="Ubuntu Light" font-size="10" lengthAdjust="spacing" textLength="145" x="501.5" y="862.2822">An article is created on the</text><text fill="#000000" font-family="Ubuntu Light" font-size="10" lengthAdjust="spacing" textLength="133" x="501.5" y="873.9229">WeAreCommunity page,</text><text fill="#000000" font-family="Ubuntu Light" font-size="10" lengthAdjust="spacing" textLength="133" x="501.5" y="885.5635">summarizing the project</text></g><rect fill="#555555" height="8" style="stroke:none;stroke-width:1.0;" width="80" x="339.5" y="947"/><rect fill="#B0E0E6" height="33.9688" rx="12.5" ry="12.5" style="stroke:#181818;stroke-width:0.5;" width="57" x="351" y="1009"/><text fill="#000000" font-family="Ubuntu Light" font-size="12" font-weight="bold" lengthAdjust="spacing" textLength="37" x="361" y="1030.1387">Done</text><ellipse cx="379.5" cy="1112.5" fill="none" rx="10" ry="10" style="stroke:#228B22;stroke-width:1.0;"/><ellipse cx="380" cy="1113" fill="#228B22" rx="6" ry="6" style="stroke:none;stroke-width:1.0;"/><g id="elem_GMN64"><path d="M410,1084 L410,1108.5 L389.689,1112.5 L410,1116.5 L410,1140.5625 A0,0 0 0 0 410,1140.5625 L631,1140.5625 A0,0 0 0 0 631,1140.5625 L631,1094 L621,1084 L410,1084 A0,0 0 0 0 410,1084 " fill="#F0F8FF" style="stroke:#181818;stroke-width:0.5;"/><path d="M621,1084 L621,1094 L631,1094 L621,1084 " fill="#F0F8FF" style="stroke:#181818;stroke-width:0.5;"/><text fill="#000000" font-family="Ubuntu Light" font-size="10" lengthAdjust="spacing" textLength="129" x="416" y="1098.2822">We collect statistics and</text><text fill="#000000" font-family="Ubuntu Light" font-size="10" lengthAdjust="spacing" textLength="151" x="416" y="1109.9229">feedback about the project,</text><text fill="#000000" font-family="Ubuntu Light" font-size="10" lengthAdjust="spacing" textLength="121" x="416" y="1121.5635">based on the artifacts:</text><text fill="#000000" font-family="Ubuntu Light" font-size="10" lengthAdjust="spacing" textLength="200" x="416" y="1133.2041">views, questions, speaker badge, etc.</text></g><!--link start to Draft--><g id="link_start_Draft"><path d="M282.5,27.18 C282.5,39.12 282.5,60.38 282.5,76.5 " fill="none" id="start-to-Draft" style="stroke:#4682B4;stroke-width:1.0;"/><polygon fill="#4682B4" points="282.5,81.74,286.5,72.74,282.5,76.74,278.5,72.74,282.5,81.74" style="stroke:#4682B4;stroke-width:1.0;"/><text fill="#4682B4" font-family="Ubuntu Light" font-size="11" lengthAdjust="spacing" textLength="65" x="283.5" y="59.2104">Submission</text></g><!--link Draft to Clear--><g id="link_Draft_Clear"><path d="M282.5,116.36 C282.5,131.32 282.5,153.559 282.5,169.963 " fill="none" id="Draft-to-Clear" style="stroke:#4682B4;stroke-width:1.0;"/><polygon fill="#4682B4" points="282.5,175.283,286.5,166.283,282.5,170.283,278.5,166.283,282.5,175.283" style="stroke:#4682B4;stroke-width:1.0;"/><text fill="#4682B4" font-family="Ubuntu Light" font-size="11" lengthAdjust="spacing" textLength="66" x="283.5" y="147.2104">Clarification</text></g><!--link Clear to Ready--><g id="link_Clear_Ready"><path d="M282.5,209.518 C282.5,225.805 282.5,251.138 282.5,269.129 " fill="none" id="Clear-to-Ready" style="stroke:#4682B4;stroke-width:1.0;"/><polygon fill="#4682B4" points="282.5,274.459,286.5,265.459,282.5,269.459,278.5,265.459,282.5,274.459" style="stroke:#4682B4;stroke-width:1.0;"/><text fill="#4682B4" font-family="Ubuntu Light" font-size="11" lengthAdjust="spacing" textLength="85" x="283.5" y="246.2104">Advertisement</text></g><!--link Ready to In progress--><g id="link_Ready_In progress"><path d="M282.5,308.518 C282.5,324.805 282.5,350.138 282.5,368.129 " fill="none" id="Ready-to-In progress" style="stroke:#4682B4;stroke-width:1.0;stroke-dasharray:1.0,3.0;"/><polygon fill="#4682B4" points="282.5,373.459,286.5,364.459,282.5,368.459,278.5,364.459,282.5,373.459" style="stroke:#4682B4;stroke-width:1.0;"/><text fill="#4682B4" font-family="Ubuntu Light" font-size="11" lengthAdjust="spacing" textLength="90" x="283.5" y="345.2104">Milestone starts</text></g><!--reverse link In progress to In progress--><g id="link_In progress_In progress"><path d="M339.351,382.282 C348.072,383.529 354,386.268 354,390.5 C354,395.516 345.673,398.435 334.239,399.258 " fill="none" id="In progress-backto-In progress" style="stroke:#4682B4;stroke-width:1.0;"/><polygon fill="#4682B4" points="334.239,381.742,342.7699,386.6638,339.2114,382.2664,343.6089,378.708,334.239,381.742" style="stroke:#4682B4;stroke-width:1.0;"/><text fill="#4682B4" font-family="Ubuntu Light" font-size="11" lengthAdjust="spacing" textLength="53" x="360" y="394.7104">Iterations</text></g><!--link In progress to Delivered--><g id="link_In progress_Delivered"><path d="M282.5,407.518 C282.5,423.805 282.5,449.138 282.5,467.129 " fill="none" id="In progress-to-Delivered" style="stroke:#4682B4;stroke-width:1.0;stroke-dasharray:1.0,3.0;"/><polygon fill="#4682B4" points="282.5,472.459,286.5,463.459,282.5,467.459,278.5,463.459,282.5,472.459" style="stroke:#4682B4;stroke-width:1.0;"/><text fill="#4682B4" font-family="Ubuntu Light" font-size="11" lengthAdjust="spacing" textLength="136" x="283.5" y="444.2104">Implementation is done</text></g><!--link Delivered to #33--><g id="link_Delivered_#33"><path d="M282.5,506.696 C282.5,521.557 282.5,543.455 282.5,558.313 " fill="none" id="Delivered-to-#33" style="stroke:#4682B4;stroke-width:1.0;"/><polygon fill="#4682B4" points="282.5,563.443,286.5,554.443,282.5,558.443,278.5,554.443,282.5,563.443" style="stroke:#4682B4;stroke-width:1.0;"/><text fill="#4682B4" font-family="Ubuntu Light" font-size="11" lengthAdjust="spacing" textLength="111" x="151.7281" y="555.364">Meetup is needed?</text></g><!--link #33 to Scheduled--><g id="link_#33_Scheduled"><path d="M294.601,575.5 C304.001,575.5 317.741,575.5 331.664,575.5 " fill="none" id="#33-to-Scheduled" style="stroke:#4682B4;stroke-width:1.0;"/><polygon fill="#4682B4" points="336.794,575.5,327.794,571.5,331.794,575.5,327.794,579.5,336.794,575.5" style="stroke:#4682B4;stroke-width:1.0;"/><text fill="#4682B4" font-family="Ubuntu Light" font-size="11" lengthAdjust="spacing" textLength="21" x="305.25" y="569.7104">Yes</text></g><!--link Scheduled to Conducted--><g id="link_Scheduled_Conducted"><path d="M383.812,592.617 C382.728,617.995 380.623,667.289 379.414,695.605 " fill="none" id="Scheduled-to-Conducted" style="stroke:#4682B4;stroke-width:1.0;stroke-dasharray:1.0,3.0;"/><polygon fill="#4682B4" points="379.199,700.638,383.5785,691.8164,379.4118,695.6425,375.5857,691.4759,379.199,700.638" style="stroke:#4682B4;stroke-width:1.0;"/><text fill="#4682B4" font-family="Ubuntu Light" font-size="11" lengthAdjust="spacing" textLength="71" x="383.5" y="629.2104">The webinar</text><text fill="#4682B4" font-family="Ubuntu Light" font-size="11" font-weight="bold" lengthAdjust="spacing" textLength="31" x="403.5" y="642.0151">date</text><text fill="#4682B4" font-family="Ubuntu Light" font-size="11" lengthAdjust="spacing" textLength="39" x="399.5" y="654.8198">arrives</text></g><!--link Conducted to B1--><g id="link_Conducted_B1"><path d="M366.931,735.003 C353.951,752.96 333.453,781.314 323.827,794.631 " fill="none" id="Conducted-to-B1" style="stroke:#4682B4;stroke-width:1.0;"/><polygon fill="#4682B4" points="320.806,798.81,329.3205,793.8599,323.7354,794.758,322.8373,789.1729,320.806,798.81" style="stroke:#4682B4;stroke-width:1.0;"/></g><!--link #33 to B1--><g id="link_#33_B1"><path d="M282.792,587.289 C283.752,615.633 287.659,694.404 302.5,758 C305.502,770.863 311.139,785.125 314.857,793.827 " fill="none" id="#33-to-B1" style="stroke:#4682B4;stroke-width:1.0;"/><polygon fill="#4682B4" points="317.068,798.877,317.1217,789.0283,315.0623,794.2969,309.7936,792.2375,317.068,798.877" style="stroke:#4682B4;stroke-width:1.0;"/><text fill="#4682B4" font-family="Ubuntu Light" font-size="11" lengthAdjust="spacing" textLength="15" x="303.5" y="722.2104">No</text></g><!--link B1 to #49--><g id="link_B1_#49"><path d="M318.5,807.159 C318.5,815.307 318.5,837.483 318.5,853.056 " fill="none" id="B1-to-#49" style="stroke:#4682B4;stroke-width:1.0;"/><polygon fill="#4682B4" points="318.5,858.456,322.5,849.456,318.5,853.456,314.5,849.456,318.5,858.456" style="stroke:#4682B4;stroke-width:1.0;"/><text fill="#4682B4" font-family="Ubuntu Light" font-size="11" lengthAdjust="spacing" textLength="162" x="136.7563" y="852.3663">Summary article is needed?</text></g><!--link #49 to In summary--><g id="link_#49_In summary"><path d="M330.66,870.5 C340.055,870.5 353.797,870.5 367.88,870.5 " fill="none" id="#49-to-In summary" style="stroke:#4682B4;stroke-width:1.0;"/><polygon fill="#4682B4" points="373.077,870.5,364.077,866.5,368.077,870.5,364.077,874.5,373.077,870.5" style="stroke:#4682B4;stroke-width:1.0;"/><text fill="#4682B4" font-family="Ubuntu Light" font-size="11" lengthAdjust="spacing" textLength="21" x="341.5" y="864.7104">Yes</text></g><!--link In summary to B2--><g id="link_In summary_B2"><path d="M415.176,887.765 C405.625,904.426 391.184,929.619 383.954,942.231 " fill="none" id="In summary-to-B2" style="stroke:#4682B4;stroke-width:1.0;"/><polygon fill="#4682B4" points="381.332,946.804,389.2791,940.9865,383.8193,942.4666,382.3392,937.0068,381.332,946.804" style="stroke:#4682B4;stroke-width:1.0;"/></g><!--link #49 to B2--><g id="link_#49_B2"><path d="M323.492,877.924 C334.735,892.392 361.981,927.455 373.835,942.709 " fill="none" id="#49-to-B2" style="stroke:#4682B4;stroke-width:1.0;"/><polygon fill="#4682B4" points="376.984,946.762,374.6219,937.2006,373.9168,942.8133,368.304,942.1082,376.984,946.762" style="stroke:#4682B4;stroke-width:1.0;"/><text fill="#4682B4" font-family="Ubuntu Light" font-size="11" lengthAdjust="spacing" textLength="15" x="361.5" y="924.2104">No</text></g><!--link B2 to Done--><g id="link_B2_Done"><path d="M379.5,955.137 C379.5,963.397 379.5,986.308 379.5,1003.66 " fill="none" id="B2-to-Done" style="stroke:#4682B4;stroke-width:1.0;"/><polygon fill="#4682B4" points="379.5,1008.844,383.5,999.844,379.5,1003.844,375.5,999.844,379.5,1008.844" style="stroke:#4682B4;stroke-width:1.0;"/><text fill="#4682B4" font-family="Ubuntu Light" font-size="11" lengthAdjust="spacing" textLength="81" x="380.5" y="986.2104">Administration</text></g><!--link Done to end--><g id="link_Done_end"><path d="M379.5,1043.2924 C379.5,1058.84 379.5,1082.0442 379.5,1096.9758 " fill="none" id="Done-to-end" style="stroke:#4682B4;stroke-width:1.0;stroke-dasharray:1.0,3.0;"/><polygon fill="#4682B4" points="379.5,1102.0731,383.5,1093.0731,379.5,1097.0731,375.5,1093.0731,379.5,1102.0731" style="stroke:#4682B4;stroke-width:1.0;"/></g><text fill="#4682B4" font-family="Ubuntu Light" font-size="10" font-style="italic" lengthAdjust="spacing" textLength="166" x="244.25" y="1156.8447">fig. process of the Project Format</text><!--SRC=[ZLLDRziu4BthLmnwIWmxtVPO82qITxC8sXH1tJPOf3cCnP72DKMg_B2R5llVTuQoPCLfilKbCOTyyzxZ6pgij6tHOmEAAamcdZaRFs13y7cPR4pmNjUtiGZ3jYMMgzgxPDNS6USXUhI1IsHZCTfMOXkri_2p0Fu8QBTz4OdCgKaqh2_YdI7G4OqkTulw1y6BFzfO_3j6nJBgjOvtMzZJFIwNRgF83-YBY7xRzinv2l4lJsHpwS_-o7vXnsZfZDhhxhtRR5i_fcP__Hw0TP4UeNx2wkc-Bvq5Wj2RMUdw25hlIWe1N0Nnbk3Ikt-eZ2AaGRw2tCFdInEa4uYkrILpru4AiYgJA8g3oI7CPg-l5sdPw10O_GRUUgnw14FL5i32kIA40zwLw11qWD8JHb8ZD46Q6-vHwH9Z1fiRGl-0pYTch1bkchatg2tK3iqq5sM9lhUiXXJmjN0QmnIGkt0bx_3qBMdFLQegvsCcqxLzGET4hSb75jrmCc_W8w6wszScR4gsskjbYiu7TgdhmnHjpAXzUrZfSZLpLTNL0xG6hUKwym24HXkEaRDZYu-ENbzVzEiG98pX1iwjt63Dya8n4oRCzJoIpxRjrNz1T-Fy2jWreTHkhrw7N7Q-HikXKP22jdNUKjwwi4tsuktxEHmivXy_NqpX7TfJj5EuuelqPsZCuHxnywOrsRhCImGhLi4P8QFPMBRxDyd9iTtrzgu5LyKDk_syuYWb5fjty08_Gts37I5TmRCBefXQ8MA95AatpmImapRB0MCZ_oPsS57Uaaf6A4fnBu7RJDEQjOt23CuEAPFF5PruchkcILRUcnPhaYWCTK-r3j4Fxf35fRIKsewuV1Ctipcqr1RzLpkPAEuucNpbRvwrCkMviof9x1-bF4B8hFi3WBizOd3DW1QamVEe6-BnCUQUi6-90obHOpbX8qPpS3Z5nhWDxVIbjXjHJwNpIk8aWn0CJqOODibzuHgr4UrvGsgDGpN2YGw-y1btoUEAPfWc_d_r2wzuSE7u-1XENyYVWaoWVltwWxkvLxDALrqq5gbfqDyndQXB-Itv_upmb8Nkr5CX6G7-VaocGx7he7_qmxWTYQTqltn2zyknxkw9QxGTKiYpAUyFnmtuSN_mybx9KsUCZ6IGeUOGb668TCL-oIyxuDAbE6RRoLbY6CHdMoh-AGwlScsjQSFlz12iAOIMS4MUJods0oYMHyCq_mS0]--></g></svg>