<?xml version="1.0" encoding="us-ascii" standalone="no"?><svg xmlns="http://www.w3.org/2000/svg" xmlns:xlink="http://www.w3.org/1999/xlink" contentStyleType="text/css" height="959px" preserveAspectRatio="none" style="width:642px;height:959px;" version="1.1" viewBox="0 0 642 959" width="642px" zoomAndPan="magnify"><defs/><g><g id="elem_GMN2"><path d="M310.5,6 L310.5,13 L290.117,17 L310.5,21 L310.5,27.6406 A0,0 0 0 0 310.5,27.6406 L397.5,27.6406 A0,0 0 0 0 397.5,27.6406 L397.5,16 L387.5,6 L310.5,6 A0,0 0 0 0 310.5,6 " fill="#F0F8FF" style="stroke:#181818;stroke-width:0.5;"/><path d="M387.5,6 L387.5,16 L397.5,16 L387.5,6 " fill="#F0F8FF" style="stroke:#181818;stroke-width:0.5;"/><text fill="#000000" font-family="Ubuntu Light" font-size="10" lengthAdjust="spacing" textLength="66" x="316.5" y="20.2822">A topic arise</text></g><ellipse cx="280" cy="17" fill="#222222" rx="10" ry="10" style="stroke:none;stroke-width:1.0;"/><rect fill="#B0E0E6" height="33.9688" rx="12.5" ry="12.5" style="stroke:#181818;stroke-width:0.5;" width="60" x="250" y="82"/><text fill="#000000" font-family="Ubuntu Light" font-size="12" font-weight="bold" lengthAdjust="spacing" textLength="40" x="260" y="103.1387">Draft</text><g id="elem_GMN8"><path d="M74,88 L74,109.6406 A0,0 0 0 0 74,109.6406 L230,109.6406 A0,0 0 0 0 230,109.6406 L230,106 L249.836,99 L230,98 L230,98 L220,88 L74,88 A0,0 0 0 0 74,88 " fill="#F0F8FF" style="stroke:#181818;stroke-width:0.5;"/><path d="M220,88 L220,98 L230,98 L220,88 " fill="#F0F8FF" style="stroke:#181818;stroke-width:0.5;"/><text fill="#000000" font-family="Ubuntu Light" font-size="10" lengthAdjust="spacing" textLength="135" x="80" y="102.2822">An Idea (issue) is created</text></g><rect fill="#B0E0E6" height="33.9688" rx="12.5" ry="12.5" style="stroke:#181818;stroke-width:0.5;" width="64" x="248" y="175.5"/><text fill="#000000" font-family="Ubuntu Light" font-size="12" font-weight="bold" lengthAdjust="spacing" textLength="44" x="258" y="196.6387">Ready</text><g id="elem_GMN13"><path d="M332,170 L332,188.5 L312.035,192.5 L332,196.5 L332,214.9219 A0,0 0 0 0 332,214.9219 L506,214.9219 A0,0 0 0 0 506,214.9219 L506,180 L496,170 L332,170 A0,0 0 0 0 332,170 " fill="#F0F8FF" style="stroke:#181818;stroke-width:0.5;"/><path d="M496,170 L496,180 L506,180 L496,170 " fill="#F0F8FF" style="stroke:#181818;stroke-width:0.5;"/><text fill="#000000" font-family="Ubuntu Light" font-size="10" lengthAdjust="spacing" textLength="133" x="338" y="184.2822">The idea, the main goal,</text><text fill="#000000" font-family="Ubuntu Light" font-size="10" lengthAdjust="spacing" textLength="153" x="338" y="195.9229">the expected result, and the</text><text fill="#000000" font-family="Ubuntu Light" font-size="10" lengthAdjust="spacing" textLength="137" x="338" y="207.5635">required effort is clarified</text></g><rect fill="#B0E0E6" height="33.9688" rx="12.5" ry="12.5" style="stroke:#181818;stroke-width:0.5;" width="80" x="240" y="274.5"/><text fill="#000000" font-family="Ubuntu Light" font-size="12" font-weight="bold" lengthAdjust="spacing" textLength="60" x="250" y="295.6387">Sourced</text><g id="elem_GMN18"><path d="M340,269 L340,287.5 L320.207,291.5 L340,295.5 L340,313.9219 A0,0 0 0 0 340,313.9219 L502,313.9219 A0,0 0 0 0 502,313.9219 L502,279 L492,269 L340,269 A0,0 0 0 0 340,269 " fill="#F0F8FF" style="stroke:#181818;stroke-width:0.5;"/><path d="M492,269 L492,279 L502,279 L492,269 " fill="#F0F8FF" style="stroke:#181818;stroke-width:0.5;"/><text fill="#000000" font-family="Ubuntu Light" font-size="10" lengthAdjust="spacing" textLength="110" x="346" y="283.2822">The contributors are</text><text fill="#000000" font-family="Ubuntu Light" font-size="10" lengthAdjust="spacing" textLength="140" x="346" y="294.9229">identified and the kick-off</text><text fill="#000000" font-family="Ubuntu Light" font-size="10" lengthAdjust="spacing" textLength="141" x="346" y="306.5635">is planned for a milestone</text></g><rect fill="#B0E0E6" height="33.9688" rx="12.5" ry="12.5" style="stroke:#181818;stroke-width:0.5;" width="103" x="228.5" y="379.5"/><text fill="#000000" font-family="Ubuntu Light" font-size="12" font-weight="bold" lengthAdjust="spacing" textLength="83" x="238.5" y="400.6387">In progress</text><g id="elem_GMN23"><path d="M6,368 L6,424.5625 A0,0 0 0 0 6,424.5625 L208,424.5625 A0,0 0 0 0 208,424.5625 L208,400.5 L228.271,396.5 L208,392.5 L208,378 L198,368 L6,368 A0,0 0 0 0 6,368 " fill="#F0F8FF" style="stroke:#181818;stroke-width:0.5;"/><path d="M198,368 L198,378 L208,378 L198,368 " fill="#F0F8FF" style="stroke:#181818;stroke-width:0.5;"/><text fill="#000000" font-family="Ubuntu Light" font-size="10" lengthAdjust="spacing" textLength="175" x="12" y="382.2822">The presentation and additional</text><text fill="#000000" font-family="Ubuntu Light" font-size="10" lengthAdjust="spacing" textLength="154" x="12" y="393.9229">artifacts (code) is created by</text><text fill="#000000" font-family="Ubuntu Light" font-size="10" lengthAdjust="spacing" textLength="152" x="12" y="405.5635">the trainer, and reviewed by</text><text fill="#000000" font-family="Ubuntu Light" font-size="10" lengthAdjust="spacing" textLength="181" x="12" y="417.2041">at least one of the staff members</text></g><rect fill="#B0E0E6" height="33.9688" rx="12.5" ry="12.5" style="stroke:#181818;stroke-width:0.5;" width="49" x="255.5" y="471.5"/><text fill="#000000" font-family="Ubuntu Light" font-size="12" font-weight="bold" lengthAdjust="spacing" textLength="29" x="265.5" y="492.6387">TBD</text><g id="elem_GMN28"><path d="M324.5,466 L324.5,484.5 L304.75,488.5 L324.5,492.5 L324.5,510.9219 A0,0 0 0 0 324.5,510.9219 L499.5,510.9219 A0,0 0 0 0 499.5,510.9219 L499.5,476 L489.5,466 L324.5,466 A0,0 0 0 0 324.5,466 " fill="#F0F8FF" style="stroke:#181818;stroke-width:0.5;"/><path d="M489.5,466 L489.5,476 L499.5,476 L489.5,466 " fill="#F0F8FF" style="stroke:#181818;stroke-width:0.5;"/><text fill="#000000" font-family="Ubuntu Light" font-size="10" lengthAdjust="spacing" textLength="142" x="330.5" y="480.2822">An event is created on the</text><text fill="#000000" font-family="Ubuntu Light" font-size="10" lengthAdjust="spacing" textLength="154" x="330.5" y="491.9229">WeAreCommunity page and</text><text fill="#000000" font-family="Ubuntu Light" font-size="10" lengthAdjust="spacing" textLength="121" x="330.5" y="503.5635">registration is enabled</text></g><rect fill="#B0E0E6" height="33.9688" rx="12.5" ry="12.5" style="stroke:#181818;stroke-width:0.5;" width="98" x="231" y="608"/><text fill="#000000" font-family="Ubuntu Light" font-size="12" font-weight="bold" lengthAdjust="spacing" textLength="78" x="241" y="629.1387">Conducted</text><g id="elem_GMN33"><path d="M19.5,591 L19.5,659.2031 A0,0 0 0 0 19.5,659.2031 L210.5,659.2031 A0,0 0 0 0 210.5,659.2031 L210.5,629 L230.741,625 L210.5,621 L210.5,601 L200.5,591 L19.5,591 A0,0 0 0 0 19.5,591 " fill="#F0F8FF" style="stroke:#181818;stroke-width:0.5;"/><path d="M200.5,591 L200.5,601 L210.5,601 L200.5,591 " fill="#F0F8FF" style="stroke:#181818;stroke-width:0.5;"/><text fill="#000000" font-family="Ubuntu Light" font-size="10" lengthAdjust="spacing" textLength="153" x="25.5" y="605.2822">The webinar is conducted at</text><text fill="#000000" font-family="Ubuntu Light" font-size="10" lengthAdjust="spacing" textLength="147" x="25.5" y="616.9229">the given date/time, all the</text><text fill="#000000" font-family="Ubuntu Light" font-size="10" lengthAdjust="spacing" textLength="170" x="25.5" y="628.5635">questions answered or followed</text><text fill="#000000" font-family="Ubuntu Light" font-size="10" lengthAdjust="spacing" textLength="150" x="25.5" y="640.2041">up, the recording and slides</text><text fill="#000000" font-family="Ubuntu Light" font-size="10" lengthAdjust="spacing" textLength="71" x="25.5" y="651.8447">are available</text></g><g id="elem_#36"><polygon fill="#B0E0E6" points="280,710.5,292,722.5,280,734.5,268,722.5,280,710.5" style="stroke:#181818;stroke-width:0.5;"/></g><rect fill="#B0E0E6" height="33.9688" rx="12.5" ry="12.5" style="stroke:#181818;stroke-width:0.5;" width="102" x="347" y="705.5"/><text fill="#000000" font-family="Ubuntu Light" font-size="12" font-weight="bold" lengthAdjust="spacing" textLength="82" x="357" y="726.6387">In summary</text><g id="elem_GMN41"><path d="M469,700 L469,718.5 L449.133,722.5 L469,726.5 L469,744.9219 A0,0 0 0 0 469,744.9219 L635,744.9219 A0,0 0 0 0 635,744.9219 L635,710 L625,700 L469,700 A0,0 0 0 0 469,700 " fill="#F0F8FF" style="stroke:#181818;stroke-width:0.5;"/><path d="M625,700 L625,710 L635,710 L625,700 " fill="#F0F8FF" style="stroke:#181818;stroke-width:0.5;"/><text fill="#000000" font-family="Ubuntu Light" font-size="10" lengthAdjust="spacing" textLength="145" x="475" y="714.2822">An article is created on the</text><text fill="#000000" font-family="Ubuntu Light" font-size="10" lengthAdjust="spacing" textLength="133" x="475" y="725.9229">WeAreCommunity page,</text><text fill="#000000" font-family="Ubuntu Light" font-size="10" lengthAdjust="spacing" textLength="141" x="475" y="737.5635">summarizing the webinar.</text></g><rect fill="#B0E0E6" height="33.9688" rx="12.5" ry="12.5" style="stroke:#181818;stroke-width:0.5;" width="57" x="310.5" y="816"/><text fill="#000000" font-family="Ubuntu Light" font-size="12" font-weight="bold" lengthAdjust="spacing" textLength="37" x="320.5" y="837.1387">Done</text><g id="elem_GMN47"><path d="M113.5,799 L113.5,867.2031 A0,0 0 0 0 113.5,867.2031 L290.5,867.2031 A0,0 0 0 0 290.5,867.2031 L290.5,837 L310.244,833 L290.5,829 L290.5,809 L280.5,799 L113.5,799 A0,0 0 0 0 113.5,799 " fill="#F0F8FF" style="stroke:#181818;stroke-width:0.5;"/><path d="M280.5,799 L280.5,809 L290.5,809 L280.5,799 " fill="#F0F8FF" style="stroke:#181818;stroke-width:0.5;"/><text fill="#000000" font-family="Ubuntu Light" font-size="10" lengthAdjust="spacing" textLength="156" x="119.5" y="813.2822">The recording is uploaded to</text><text fill="#000000" font-family="Ubuntu Light" font-size="10" lengthAdjust="spacing" textLength="133" x="119.5" y="824.9229">VideoPortal and the talk,</text><text fill="#000000" font-family="Ubuntu Light" font-size="10" lengthAdjust="spacing" textLength="156" x="119.5" y="836.5635">alongside with the slides and</text><text fill="#000000" font-family="Ubuntu Light" font-size="10" lengthAdjust="spacing" textLength="123" x="119.5" y="848.2041">link to the source code</text><text fill="#000000" font-family="Ubuntu Light" font-size="10" lengthAdjust="spacing" textLength="60" x="119.5" y="859.8447">(if created)</text></g><ellipse cx="339" cy="930.5" fill="none" rx="10" ry="10" style="stroke:#228B22;stroke-width:1.0;"/><ellipse cx="339.5" cy="931" fill="#228B22" rx="6" ry="6" style="stroke:none;stroke-width:1.0;"/><g id="elem_GMN52"><path d="M369,908 L369,926.5 L349.045,930.5 L369,934.5 L369,952.9219 A0,0 0 0 0 369,952.9219 L587,952.9219 A0,0 0 0 0 587,952.9219 L587,918 L577,908 L369,908 A0,0 0 0 0 369,908 " fill="#F0F8FF" style="stroke:#181818;stroke-width:0.5;"/><path d="M577,908 L577,918 L587,918 L577,908 " fill="#F0F8FF" style="stroke:#181818;stroke-width:0.5;"/><text fill="#000000" font-family="Ubuntu Light" font-size="10" lengthAdjust="spacing" textLength="129" x="375" y="922.2822">We collect statistics and</text><text fill="#000000" font-family="Ubuntu Light" font-size="10" lengthAdjust="spacing" textLength="156" x="375" y="933.9229">feedback about the webinar:</text><text fill="#000000" font-family="Ubuntu Light" font-size="10" lengthAdjust="spacing" textLength="197" x="375" y="945.5635">views, questions, speaker badge, etc</text></g><!--link start to Draft--><g id="link_start_Draft"><path d="M280,27.177 C280,39.124 280,60.379 280,76.496 " fill="none" id="start-to-Draft" style="stroke:#4682B4;stroke-width:1.0;"/><polygon fill="#4682B4" points="280,81.745,284,72.745,280,76.745,276,72.745,280,81.745" style="stroke:#4682B4;stroke-width:1.0;"/><text fill="#4682B4" font-family="Ubuntu Light" font-size="11" lengthAdjust="spacing" textLength="65" x="281" y="59.2104">Submission</text></g><!--link Draft to Ready--><g id="link_Draft_Ready"><path d="M280,116.358 C280,131.322 280,153.559 280,169.963 " fill="none" id="Draft-to-Ready" style="stroke:#4682B4;stroke-width:1.0;"/><polygon fill="#4682B4" points="280,175.283,284,166.283,280,170.283,276,166.283,280,175.283" style="stroke:#4682B4;stroke-width:1.0;"/><text fill="#4682B4" font-family="Ubuntu Light" font-size="11" lengthAdjust="spacing" textLength="66" x="281" y="147.2104">Clarification</text></g><!--link Ready to Sourced--><g id="link_Ready_Sourced"><path d="M280,209.518 C280,225.805 280,251.138 280,269.129 " fill="none" id="Ready-to-Sourced" style="stroke:#4682B4;stroke-width:1.0;"/><polygon fill="#4682B4" points="280,274.459,284,265.459,280,269.459,276,265.459,280,274.459" style="stroke:#4682B4;stroke-width:1.0;"/><text fill="#4682B4" font-family="Ubuntu Light" font-size="11" lengthAdjust="spacing" textLength="85" x="281" y="246.2104">Advertisement</text></g><!--link Sourced to In progress--><g id="link_Sourced_In progress"><path d="M280,308.594 C280,326.178 280,354.435 280,373.929 " fill="none" id="Sourced-to-In progress" style="stroke:#4682B4;stroke-width:1.0;stroke-dasharray:1.0,3.0;"/><polygon fill="#4682B4" points="280,379.179,284,370.179,280,374.179,276,370.179,280,379.179" style="stroke:#4682B4;stroke-width:1.0;"/><text fill="#4682B4" font-family="Ubuntu Light" font-size="11" lengthAdjust="spacing" textLength="90" x="281" y="345.2104">Milestone starts</text></g><!--link In progress to TBD--><g id="link_In progress_TBD"><path d="M280,413.59 C280,428.217 280,449.911 280,466.016 " fill="none" id="In progress-to-TBD" style="stroke:#4682B4;stroke-width:1.0;"/><polygon fill="#4682B4" points="280,471.246,284,462.246,280,466.246,276,462.246,280,471.246" style="stroke:#4682B4;stroke-width:1.0;"/></g><!--link TBD to Conducted--><g id="link_TBD_Conducted"><path d="M280,505.724 C280,529.96 280,575.644 280,602.591 " fill="none" id="TBD-to-Conducted" style="stroke:#4682B4;stroke-width:1.0;stroke-dasharray:1.0,3.0;"/><polygon fill="#4682B4" points="280,607.719,284,598.719,280,602.719,276,598.719,280,607.719" style="stroke:#4682B4;stroke-width:1.0;"/><text fill="#4682B4" font-family="Ubuntu Light" font-size="11" lengthAdjust="spacing" textLength="71" x="281" y="542.2104">The webinar</text><text fill="#4682B4" font-family="Ubuntu Light" font-size="11" font-weight="bold" lengthAdjust="spacing" textLength="31" x="301" y="555.0151">date</text><text fill="#4682B4" font-family="Ubuntu Light" font-size="11" lengthAdjust="spacing" textLength="39" x="297" y="567.8198">arrives</text></g><!--link Conducted to #36--><g id="link_Conducted_#36"><path d="M280,642.2 C280,659.755 280,687.607 280,705.2 " fill="none" id="Conducted-to-#36" style="stroke:#4682B4;stroke-width:1.0;"/><polygon fill="#4682B4" points="280,710.308,284,701.308,280,705.308,276,701.308,280,710.308" style="stroke:#4682B4;stroke-width:1.0;"/><text fill="#4682B4" font-family="Ubuntu Light" font-size="11" lengthAdjust="spacing" textLength="162" x="98.2563" y="704.1822">Summary article is needed?</text></g><!--link #36 to In summary--><g id="link_#36_In summary"><path d="M292.184,722.5 C304.079,722.5 323.06,722.5 341.683,722.5 " fill="none" id="#36-to-In summary" style="stroke:#4682B4;stroke-width:1.0;"/><polygon fill="#4682B4" points="346.92,722.5,337.92,718.5,341.92,722.5,337.92,726.5,346.92,722.5" style="stroke:#4682B4;stroke-width:1.0;"/><text fill="#4682B4" font-family="Ubuntu Light" font-size="11" lengthAdjust="spacing" textLength="21" x="309" y="716.7104">Yes</text></g><!--link In summary to Done--><g id="link_In summary_Done"><path d="M394.342,739.635 C391.387,751.038 386.624,766.461 380,779 C373.819,790.7 365.036,802.467 357.184,811.931 " fill="none" id="In summary-to-Done" style="stroke:#4682B4;stroke-width:1.0;"/><polygon fill="#4682B4" points="353.886,815.839,362.747,811.5398,357.1103,812.0175,356.6326,806.3809,353.886,815.839" style="stroke:#4682B4;stroke-width:1.0;"/><text fill="#4682B4" font-family="Ubuntu Light" font-size="11" lengthAdjust="spacing" textLength="81" x="386" y="776.2104">Administration</text></g><!--link #36 to Done--><g id="link_#36_Done"><path d="M275.839,730.809 C270.125,741.903 261.474,763.353 270,779 C277.845,793.398 287.888,789.155 301,799 C306.457,803.097 312.12,807.765 317.357,812.275 " fill="none" id="#36-to-Done" style="stroke:#4682B4;stroke-width:1.0;"/><polygon fill="#4682B4" points="321.268,815.681,317.1058,806.7549,317.4966,812.3982,311.8533,812.789,321.268,815.681" style="stroke:#4682B4;stroke-width:1.0;"/><text fill="#4682B4" font-family="Ubuntu Light" font-size="11" lengthAdjust="spacing" textLength="103" x="271" y="776.2104">No, Administration</text></g><!--link Done to end--><g id="link_Done_end"><path d="M339,850.2 C339,868.3685 339,897.5667 339,915.0068 " fill="none" id="Done-to-end" style="stroke:#4682B4;stroke-width:1.0;stroke-dasharray:1.0,3.0;"/><polygon fill="#4682B4" points="339,920.4376,343,911.4376,339,915.4376,335,911.4376,339,920.4376" style="stroke:#4682B4;stroke-width:1.0;"/></g><!--SRC=[TLNBRjD05DtdAwvOjL5QOCi2r1QAa00XmaC8kXXxhjshZ6VCF182ujyvCqwS1sbMZk_ht7FEZCD2RA-ywaXpevA9jyx6zwfZ-bmb6nEzbVO-JiAOLgbwqNgNhBvnndcANjc04DiusKjJTPIbn3NzcH1-rqTL7znAixysYKju7fMFG-JMUGxnjMUs9VHgMt8So43dSMsOAcVqvE_1TE_TQZDwg9v7PZFEoxN7xmyQM1Vv0UXNHce-w3INtqnFd-GEfSuNodBqYgBhfGOU2JnXgqlZoTdqd2ukdd-VfwgJ4CJPEthfLHE7UiFDfjpI6ysApf2K-9maKErPHTQxNhdFZS60HceLIwkFhFJw6CgdUoP1inb5F7LABBLEcLa9vbVyg-SQhGaqmmSpKXY1G4dm_3E9Hv2RnlbOa0n3Zx5SwINxY7KxEEAEvYxv6ZadqDIWpakLelC130s30D76qdOxdnPIBovSqmpnGBrHrY8E8AIe4mDREBj7x-Nby-_ljgyfP6-5EtfZgVUknNRXYEOCfiTxJ2uCbibAQyb_b2avw24DJ1teh7RwG0kgrYE9E0rYsG_aULuAhtO9AcAc2f4oBDUK0g1h6kgugzY70oRfq_NB__naYPU0kJyTUBSgVUKhppUkwvBDHwzNBMSW6mLR2O1N5aGvMrMPVV4oQvc95LTYbVzXfrED0TFf3_ppicHmUEEiJjaa9nZSr1LespIiF5BJeeMbtF9nb8v1aJ4Zyfy9QW4PZ633YhFJe6xZZ74WiAIaVh2kvzfvBROj70S3nuIDHDXsgSJanNPxIKEFvgdhb5yN5MlS6C1ecJNh5uzop-52kIWymyBVUB1B6AfAy4Y8ZHXx_Kx8yO0aip4u393VUPcue_2o98mB56pbP7LYHmrnOnJJcx3BUEzcT3hBQcbEQBRZ4XkatZW5Jd1dbOGlODPzm6bNPZoBU5uC-9LnjWr8ePN4-y7BHOlHSKRi0hs6KBa6A1-T4Zk3AXl6pWyiIBWRZrt_DHSQWzif7nVSBI1zDwQ1aFcZHAfoAUxp-Ap4ynaCivt3PXHwLWls-9Hfg44Swn72Fm00]--></g></svg>