<?xml version="1.0" encoding="us-ascii" standalone="no"?><svg xmlns="http://www.w3.org/2000/svg" xmlns:xlink="http://www.w3.org/1999/xlink" contentStyleType="text/css" height="181px" preserveAspectRatio="none" style="width:120px;height:181px;background:#FFFFFF;" version="1.1" viewBox="0 0 120 181" width="120px" zoomAndPan="magnify"><defs/><g><ellipse cx="30" cy="16" fill="#222222" rx="10" ry="10" style="stroke:none;stroke-width:1.0;"/><rect fill="#B0E0E6" height="33.9688" rx="12.5" ry="12.5" style="stroke:#181818;stroke-width:0.5;" width="46" x="7" y="80"/><text fill="#000000" font-family="sans-serif" font-size="12" lengthAdjust="spacing" textLength="26" x="17" y="101.1387">Idea</text><ellipse cx="30" cy="165" fill="none" rx="10" ry="10" style="stroke:#228B22;stroke-width:1.0;"/><ellipse cx="30.5" cy="165.5" fill="#228B22" rx="6" ry="6" style="stroke:none;stroke-width:1.0;"/><!--link start to Idea--><g id="link_start_Idea"><path d="M30,26.062 C30,37.86 30,58.849 30,74.765 " fill="none" id="start-to-Idea" style="stroke:#000080;stroke-width:1.0;"/><polygon fill="#000080" points="30,79.9477,34,70.9477,30,74.9477,26,70.9477,30,79.9477" style="stroke:#000080;stroke-width:1.0;"/><text fill="#7B68EE" font-family="sans-serif" font-size="11" lengthAdjust="spacing" textLength="81" x="31" y="57.2104">Idea Proposed</text></g><!--link Idea to end--><g id="link_Idea_end"><path d="M30,114.3146 C30,125.2368 30,139.4683 30,149.8993 " fill="none" id="Idea-to-end" style="stroke:#000080;stroke-width:1.0;"/><polygon fill="#000080" points="30,154.97,34,145.97,30,149.97,26,145.97,30,154.97" style="stroke:#000080;stroke-width:1.0;"/></g><!--SRC=[HOn12i8m44NtSufPgj0h25Qik50ABiN5q0mIccRA96afujsDBUhi_dl_JsYjxqcfGsgY7MoSy0cOhwIcVQWaR_RYHB6MqR2MBl6iTweoBkP2m_HdbVYuy3CRcxgheyY_sU7xhXBb48_AxE45iDgiiIYsjvDXmbgbby3cZfy8CCDiCRVU]--></g></svg>