<?xml version="1.0" encoding="us-ascii" standalone="no"?><svg xmlns="http://www.w3.org/2000/svg" xmlns:xlink="http://www.w3.org/1999/xlink" contentStyleType="text/css" height="911px" preserveAspectRatio="none" style="width:642px;height:911px;" version="1.1" viewBox="0 0 642 911" width="642px" zoomAndPan="magnify"><defs/><g><g id="elem_GMN2"><path d="M310.5,6 L310.5,13 L290.117,17 L310.5,21 L310.5,27.6406 A0,0 0 0 0 310.5,27.6406 L397.5,27.6406 A0,0 0 0 0 397.5,27.6406 L397.5,16 L387.5,6 L310.5,6 A0,0 0 0 0 310.5,6 " fill="#F0F8FF" style="stroke:#181818;stroke-width:0.5;"/><path d="M387.5,6 L387.5,16 L397.5,16 L387.5,6 " fill="#F0F8FF" style="stroke:#181818;stroke-width:0.5;"/><text fill="#000000" font-family="Ubuntu Light" font-size="10" lengthAdjust="spacing" textLength="66" x="316.5" y="20.2822">A topic arise</text></g><ellipse cx="280" cy="17" fill="#222222" rx="10" ry="10" style="stroke:none;stroke-width:1.0;"/><rect fill="#B0E0E6" height="33.9688" rx="12.5" ry="12.5" style="stroke:#181818;stroke-width:0.5;" width="60" x="250" y="82"/><text fill="#000000" font-family="Ubuntu Light" font-size="12" font-weight="bold" lengthAdjust="spacing" textLength="40" x="260" y="103.1387">Draft</text><g id="elem_GMN8"><path d="M74,88 L74,109.6406 A0,0 0 0 0 74,109.6406 L230,109.6406 A0,0 0 0 0 230,109.6406 L230,106 L249.836,99 L230,98 L230,98 L220,88 L74,88 A0,0 0 0 0 74,88 " fill="#F0F8FF" style="stroke:#181818;stroke-width:0.5;"/><path d="M220,88 L220,98 L230,98 L220,88 " fill="#F0F8FF" style="stroke:#181818;stroke-width:0.5;"/><text fill="#000000" font-family="Ubuntu Light" font-size="10" lengthAdjust="spacing" textLength="135" x="80" y="102.2822">An Idea (issue) is created</text></g><rect fill="#B0E0E6" height="33.9688" rx="12.5" ry="12.5" style="stroke:#181818;stroke-width:0.5;" width="64" x="248" y="181.5"/><text fill="#000000" font-family="Ubuntu Light" font-size="12" font-weight="bold" lengthAdjust="spacing" textLength="44" x="258" y="202.6387">Ready</text><g id="elem_GMN13"><path d="M332.5,170 L332.5,194.5 L312.035,198.5 L332.5,202.5 L332.5,226.5625 A0,0 0 0 0 332.5,226.5625 L505.5,226.5625 A0,0 0 0 0 505.5,226.5625 L505.5,180 L495.5,170 L332.5,170 A0,0 0 0 0 332.5,170 " fill="#F0F8FF" style="stroke:#181818;stroke-width:0.5;"/><path d="M495.5,170 L495.5,180 L505.5,180 L495.5,170 " fill="#F0F8FF" style="stroke:#181818;stroke-width:0.5;"/><text fill="#000000" font-family="Ubuntu Light" font-size="10" lengthAdjust="spacing" textLength="152" x="338.5" y="184.2822">The idea is clear, the trainer</text><text fill="#000000" font-family="Ubuntu Light" font-size="10" lengthAdjust="spacing" textLength="149" x="338.5" y="195.9229">is identified, and the idea is</text><text fill="#000000" font-family="Ubuntu Light" font-size="10" lengthAdjust="spacing" textLength="139" x="338.5" y="207.5635">planned to be included in</text><text fill="#000000" font-family="Ubuntu Light" font-size="10" lengthAdjust="spacing" textLength="144" x="338.5" y="219.2041">an upcoming sprint/month</text></g><rect fill="#B0E0E6" height="33.9688" rx="12.5" ry="12.5" style="stroke:#181818;stroke-width:0.5;" width="103" x="228.5" y="318.5"/><text fill="#000000" font-family="Ubuntu Light" font-size="12" font-weight="bold" lengthAdjust="spacing" textLength="83" x="238.5" y="339.6387">In progress</text><g id="elem_GMN18"><path d="M6,307 L6,363.5625 A0,0 0 0 0 6,363.5625 L208,363.5625 A0,0 0 0 0 208,363.5625 L208,339.5 L228.271,335.5 L208,331.5 L208,317 L198,307 L6,307 A0,0 0 0 0 6,307 " fill="#F0F8FF" style="stroke:#181818;stroke-width:0.5;"/><path d="M198,307 L198,317 L208,317 L198,307 " fill="#F0F8FF" style="stroke:#181818;stroke-width:0.5;"/><text fill="#000000" font-family="Ubuntu Light" font-size="10" lengthAdjust="spacing" textLength="175" x="12" y="321.2822">The presentation and additional</text><text fill="#000000" font-family="Ubuntu Light" font-size="10" lengthAdjust="spacing" textLength="154" x="12" y="332.9229">artifacts (code) is created by</text><text fill="#000000" font-family="Ubuntu Light" font-size="10" lengthAdjust="spacing" textLength="152" x="12" y="344.5635">the trainer, and reviewed by</text><text fill="#000000" font-family="Ubuntu Light" font-size="10" lengthAdjust="spacing" textLength="181" x="12" y="356.2041">at least one of the staff members</text></g><rect fill="#B0E0E6" height="33.9688" rx="12.5" ry="12.5" style="stroke:#181818;stroke-width:0.5;" width="95" x="232.5" y="423.5"/><text fill="#000000" font-family="Ubuntu Light" font-size="12" font-weight="bold" lengthAdjust="spacing" textLength="75" x="242.5" y="444.6387">Scheduled</text><g id="elem_GMN23"><path d="M347.5,418 L347.5,436.5 L327.529,440.5 L347.5,444.5 L347.5,462.9219 A0,0 0 0 0 347.5,462.9219 L522.5,462.9219 A0,0 0 0 0 522.5,462.9219 L522.5,428 L512.5,418 L347.5,418 A0,0 0 0 0 347.5,418 " fill="#F0F8FF" style="stroke:#181818;stroke-width:0.5;"/><path d="M512.5,418 L512.5,428 L522.5,428 L512.5,418 " fill="#F0F8FF" style="stroke:#181818;stroke-width:0.5;"/><text fill="#000000" font-family="Ubuntu Light" font-size="10" lengthAdjust="spacing" textLength="142" x="353.5" y="432.2822">An event is created on the</text><text fill="#000000" font-family="Ubuntu Light" font-size="10" lengthAdjust="spacing" textLength="154" x="353.5" y="443.9229">WeAreCommunity page and</text><text fill="#000000" font-family="Ubuntu Light" font-size="10" lengthAdjust="spacing" textLength="121" x="353.5" y="455.5635">registration is enabled</text></g><rect fill="#B0E0E6" height="33.9688" rx="12.5" ry="12.5" style="stroke:#181818;stroke-width:0.5;" width="98" x="231" y="560"/><text fill="#000000" font-family="Ubuntu Light" font-size="12" font-weight="bold" lengthAdjust="spacing" textLength="78" x="241" y="581.1387">Conducted</text><g id="elem_GMN28"><path d="M19.5,543 L19.5,611.2031 A0,0 0 0 0 19.5,611.2031 L210.5,611.2031 A0,0 0 0 0 210.5,611.2031 L210.5,581 L230.741,577 L210.5,573 L210.5,553 L200.5,543 L19.5,543 A0,0 0 0 0 19.5,543 " fill="#F0F8FF" style="stroke:#181818;stroke-width:0.5;"/><path d="M200.5,543 L200.5,553 L210.5,553 L200.5,543 " fill="#F0F8FF" style="stroke:#181818;stroke-width:0.5;"/><text fill="#000000" font-family="Ubuntu Light" font-size="10" lengthAdjust="spacing" textLength="153" x="25.5" y="557.2822">The webinar is conducted at</text><text fill="#000000" font-family="Ubuntu Light" font-size="10" lengthAdjust="spacing" textLength="147" x="25.5" y="568.9229">the given date/time, all the</text><text fill="#000000" font-family="Ubuntu Light" font-size="10" lengthAdjust="spacing" textLength="170" x="25.5" y="580.5635">questions answered or followed</text><text fill="#000000" font-family="Ubuntu Light" font-size="10" lengthAdjust="spacing" textLength="150" x="25.5" y="592.2041">up, the recording and slides</text><text fill="#000000" font-family="Ubuntu Light" font-size="10" lengthAdjust="spacing" textLength="71" x="25.5" y="603.8447">are available</text></g><g id="elem_#31"><polygon fill="#B0E0E6" points="280,662.5,292,674.5,280,686.5,268,674.5,280,662.5" style="stroke:#181818;stroke-width:0.5;"/></g><rect fill="#B0E0E6" height="33.9688" rx="12.5" ry="12.5" style="stroke:#181818;stroke-width:0.5;" width="102" x="347" y="657.5"/><text fill="#000000" font-family="Ubuntu Light" font-size="12" font-weight="bold" lengthAdjust="spacing" textLength="82" x="357" y="678.6387">In summary</text><g id="elem_GMN36"><path d="M469,652 L469,670.5 L449.133,674.5 L469,678.5 L469,696.9219 A0,0 0 0 0 469,696.9219 L635,696.9219 A0,0 0 0 0 635,696.9219 L635,662 L625,652 L469,652 A0,0 0 0 0 469,652 " fill="#F0F8FF" style="stroke:#181818;stroke-width:0.5;"/><path d="M625,652 L625,662 L635,662 L625,652 " fill="#F0F8FF" style="stroke:#181818;stroke-width:0.5;"/><text fill="#000000" font-family="Ubuntu Light" font-size="10" lengthAdjust="spacing" textLength="145" x="475" y="666.2822">An article is created on the</text><text fill="#000000" font-family="Ubuntu Light" font-size="10" lengthAdjust="spacing" textLength="133" x="475" y="677.9229">WeAreCommunity page,</text><text fill="#000000" font-family="Ubuntu Light" font-size="10" lengthAdjust="spacing" textLength="141" x="475" y="689.5635">summarizing the webinar.</text></g><rect fill="#B0E0E6" height="33.9688" rx="12.5" ry="12.5" style="stroke:#181818;stroke-width:0.5;" width="57" x="310.5" y="768"/><text fill="#000000" font-family="Ubuntu Light" font-size="12" font-weight="bold" lengthAdjust="spacing" textLength="37" x="320.5" y="789.1387">Done</text><g id="elem_GMN42"><path d="M113.5,751 L113.5,819.2031 A0,0 0 0 0 113.5,819.2031 L290.5,819.2031 A0,0 0 0 0 290.5,819.2031 L290.5,789 L310.244,785 L290.5,781 L290.5,761 L280.5,751 L113.5,751 A0,0 0 0 0 113.5,751 " fill="#F0F8FF" style="stroke:#181818;stroke-width:0.5;"/><path d="M280.5,751 L280.5,761 L290.5,761 L280.5,751 " fill="#F0F8FF" style="stroke:#181818;stroke-width:0.5;"/><text fill="#000000" font-family="Ubuntu Light" font-size="10" lengthAdjust="spacing" textLength="156" x="119.5" y="765.2822">The recording is uploaded to</text><text fill="#000000" font-family="Ubuntu Light" font-size="10" lengthAdjust="spacing" textLength="133" x="119.5" y="776.9229">VideoPortal and the talk,</text><text fill="#000000" font-family="Ubuntu Light" font-size="10" lengthAdjust="spacing" textLength="156" x="119.5" y="788.5635">alongside with the slides and</text><text fill="#000000" font-family="Ubuntu Light" font-size="10" lengthAdjust="spacing" textLength="123" x="119.5" y="800.2041">link to the source code</text><text fill="#000000" font-family="Ubuntu Light" font-size="10" lengthAdjust="spacing" textLength="60" x="119.5" y="811.8447">(if created)</text></g><ellipse cx="339" cy="882.5" fill="none" rx="10" ry="10" style="stroke:#228B22;stroke-width:1.0;"/><ellipse cx="339.5" cy="883" fill="#228B22" rx="6" ry="6" style="stroke:none;stroke-width:1.0;"/><g id="elem_GMN47"><path d="M369,860 L369,878.5 L349.045,882.5 L369,886.5 L369,904.9219 A0,0 0 0 0 369,904.9219 L587,904.9219 A0,0 0 0 0 587,904.9219 L587,870 L577,860 L369,860 A0,0 0 0 0 369,860 " fill="#F0F8FF" style="stroke:#181818;stroke-width:0.5;"/><path d="M577,860 L577,870 L587,870 L577,860 " fill="#F0F8FF" style="stroke:#181818;stroke-width:0.5;"/><text fill="#000000" font-family="Ubuntu Light" font-size="10" lengthAdjust="spacing" textLength="129" x="375" y="874.2822">We collect statistics and</text><text fill="#000000" font-family="Ubuntu Light" font-size="10" lengthAdjust="spacing" textLength="156" x="375" y="885.9229">feedback about the webinar:</text><text fill="#000000" font-family="Ubuntu Light" font-size="10" lengthAdjust="spacing" textLength="197" x="375" y="897.5635">views, questions, speaker badge, etc</text></g><!--link start to Draft--><g id="link_start_Draft"><path d="M280,27.177 C280,39.124 280,60.379 280,76.496 " fill="none" id="start-to-Draft" style="stroke:#4682B4;stroke-width:1.0;"/><polygon fill="#4682B4" points="280,81.745,284,72.745,280,76.745,276,72.745,280,81.745" style="stroke:#4682B4;stroke-width:1.0;"/><text fill="#4682B4" font-family="Ubuntu Light" font-size="11" lengthAdjust="spacing" textLength="65" x="281" y="59.2104">Submission</text></g><!--link Draft to Ready--><g id="link_Draft_Ready"><path d="M280,116.1 C280,132.472 280,157.935 280,176.019 " fill="none" id="Draft-to-Ready" style="stroke:#4682B4;stroke-width:1.0;"/><polygon fill="#4682B4" points="280,181.376,284,172.376,280,176.376,276,172.376,280,181.376" style="stroke:#4682B4;stroke-width:1.0;"/><text fill="#4682B4" font-family="Ubuntu Light" font-size="11" lengthAdjust="spacing" textLength="66" x="281" y="147.2104">Clarification</text></g><!--link Ready to In progress--><g id="link_Ready_In progress"><path d="M280,215.516 C280,239.744 280,285.756 280,312.915 " fill="none" id="Ready-to-In progress" style="stroke:#4682B4;stroke-width:1.0;stroke-dasharray:1.0,3.0;"/><polygon fill="#4682B4" points="280,318.083,284,309.083,280,313.083,276,309.083,280,318.083" style="stroke:#4682B4;stroke-width:1.0;"/><text fill="#4682B4" font-family="Ubuntu Light" font-size="11" lengthAdjust="spacing" textLength="58" x="296" y="258.2104">The given</text><text fill="#4682B4" font-family="Ubuntu Light" font-size="11" font-weight="bold" lengthAdjust="spacing" textLength="88" x="281" y="271.0151">sprint/month</text><text fill="#4682B4" font-family="Ubuntu Light" font-size="11" lengthAdjust="spacing" textLength="39" x="305.5" y="283.8198">arrives</text></g><!--link In progress to Scheduled--><g id="link_In progress_Scheduled"><path d="M280,352.594 C280,370.178 280,398.435 280,417.929 " fill="none" id="In progress-to-Scheduled" style="stroke:#4682B4;stroke-width:1.0;"/><polygon fill="#4682B4" points="280,423.179,284,414.179,280,418.179,276,414.179,280,423.179" style="stroke:#4682B4;stroke-width:1.0;"/><text fill="#4682B4" font-family="Ubuntu Light" font-size="11" lengthAdjust="spacing" textLength="72" x="281" y="395.2104">Organization</text></g><!--link Scheduled to Conducted--><g id="link_Scheduled_Conducted"><path d="M280,457.724 C280,481.96 280,527.644 280,554.591 " fill="none" id="Scheduled-to-Conducted" style="stroke:#4682B4;stroke-width:1.0;stroke-dasharray:1.0,3.0;"/><polygon fill="#4682B4" points="280,559.719,284,550.719,280,554.719,276,550.719,280,559.719" style="stroke:#4682B4;stroke-width:1.0;"/><text fill="#4682B4" font-family="Ubuntu Light" font-size="11" lengthAdjust="spacing" textLength="71" x="281" y="494.2104">The webinar</text><text fill="#4682B4" font-family="Ubuntu Light" font-size="11" font-weight="bold" lengthAdjust="spacing" textLength="31" x="301" y="507.0151">date</text><text fill="#4682B4" font-family="Ubuntu Light" font-size="11" lengthAdjust="spacing" textLength="39" x="297" y="519.8198">arrives</text></g><!--link Conducted to #31--><g id="link_Conducted_#31"><path d="M280,594.2 C280,611.755 280,639.607 280,657.2 " fill="none" id="Conducted-to-#31" style="stroke:#4682B4;stroke-width:1.0;"/><polygon fill="#4682B4" points="280,662.308,284,653.308,280,657.308,276,653.308,280,662.308" style="stroke:#4682B4;stroke-width:1.0;"/><text fill="#4682B4" font-family="Ubuntu Light" font-size="11" lengthAdjust="spacing" textLength="162" x="98.2563" y="656.1822">Summary article is needed?</text></g><!--link #31 to In summary--><g id="link_#31_In summary"><path d="M292.184,674.5 C304.079,674.5 323.06,674.5 341.683,674.5 " fill="none" id="#31-to-In summary" style="stroke:#4682B4;stroke-width:1.0;"/><polygon fill="#4682B4" points="346.92,674.5,337.92,670.5,341.92,674.5,337.92,678.5,346.92,674.5" style="stroke:#4682B4;stroke-width:1.0;"/><text fill="#4682B4" font-family="Ubuntu Light" font-size="11" lengthAdjust="spacing" textLength="21" x="309" y="668.7104">Yes</text></g><!--link In summary to Done--><g id="link_In summary_Done"><path d="M394.342,691.635 C391.387,703.038 386.624,718.461 380,731 C373.819,742.7 365.036,754.467 357.184,763.931 " fill="none" id="In summary-to-Done" style="stroke:#4682B4;stroke-width:1.0;"/><polygon fill="#4682B4" points="353.886,767.839,362.747,763.5398,357.1103,764.0175,356.6326,758.3809,353.886,767.839" style="stroke:#4682B4;stroke-width:1.0;"/><text fill="#4682B4" font-family="Ubuntu Light" font-size="11" lengthAdjust="spacing" textLength="81" x="386" y="728.2104">Administration</text></g><!--link #31 to Done--><g id="link_#31_Done"><path d="M275.839,682.809 C270.125,693.903 261.474,715.353 270,731 C277.845,745.398 287.888,741.155 301,751 C306.457,755.097 312.12,759.765 317.357,764.275 " fill="none" id="#31-to-Done" style="stroke:#4682B4;stroke-width:1.0;"/><polygon fill="#4682B4" points="321.268,767.681,317.1058,758.7549,317.4966,764.3982,311.8533,764.789,321.268,767.681" style="stroke:#4682B4;stroke-width:1.0;"/><text fill="#4682B4" font-family="Ubuntu Light" font-size="11" lengthAdjust="spacing" textLength="103" x="271" y="728.2104">No, Administration</text></g><!--link Done to end--><g id="link_Done_end"><path d="M339,802.2 C339,820.3685 339,849.5667 339,867.0068 " fill="none" id="Done-to-end" style="stroke:#4682B4;stroke-width:1.0;stroke-dasharray:1.0,3.0;"/><polygon fill="#4682B4" points="339,872.4376,343,863.4376,339,867.4376,335,863.4376,339,872.4376" style="stroke:#4682B4;stroke-width:1.0;"/></g><!--SRC=[TLLDRzf04BtpAqOv4KIIzjf3AaARAbALHgLjL2KvhBrZis8zw-xE1f6g_xspQx019Pp0y_NclJSch0orogi6D5OgMhvsnBUgGVXPHE88Nqszv57eqmfLhchl8kcviyu3UqL1GaWysajJ9PjdmnluEmBvN1rLtRcrHdzb8-RmWfNdBdBjF0R-uX4fXpxlIeu32UY2DnQXS5QF_XrCzzwjjwExwWKZsdvUgZr-Vj207ECRq6VMb7ZGQM5U4Dw_InrodS-KfUWCsBMc53mcu0X9vyQZyUGKpiuk7nQnQ4m8nj4JVFAgugxUOhKj9xZHg60iIH5FmGGeFIf6FVHAVUPM1bIcL9nRVKUbDyTGVYmHJ6gMcbXKVWeiZqG-G-XpYaGaWrXQePw2aX4yLEMKrYeYbESE2ebGQQEMdwQJH174jdIDeHf2wmtnHIFyB0Uqv-UN3mb9RPwH7caosK-RJ1v9b9DGU88RWjQxMZGFHwoa-bQU2zAyS0Qgj3RfXx8T4YzRY0S3Z4kd3wY3OfDJzhRlTlNuR70z92YMcIemE49mLIu8hAeA6cmAzE5GX6- -LcHUjXeioYNgQ4MfOqiGeEpE-uXa1scUm_SuypXtJHCfNK-hQapWSinZRO90pajBEP8gxBuNTkokiJ32PE9Nou03NkUET2nv1-o0rMrTXhPB4nfwkh9ga5fUi6bGQBEsH_udodaAiY1umnfzsij3vQnrGcfEYMrdEe-bypgv9F4Uh3WiR6MJRP-LiMcnOIzJmSaYDetocwoi-3TX94GntyUJrBCpu5dcMSJulRLGwAfoy4Y8hHXx_LwHumr9fdsm6s1UqZ8yK7YU4_e5CZQ1DTDo6xs6SlHYhH7QC6JSkYcydaNQLAzeDd0f6yJMEgNpVUQ4NyAiktEUbUtFMRwlElpAEgg3fC3QyBBpTzQYTvmrj4gtdaCk-X8XdLEEZKMLBMEd1nO4URqTk_u-5LgB9QSJObdEbCEOIeHC_okW2XTvdySFEPxkCam7XqtbxO9gXLx-ZRIe0SXb3-4_]--></g></svg>