<?xml version="1.0" encoding="us-ascii" standalone="no"?><svg xmlns="http://www.w3.org/2000/svg" xmlns:xlink="http://www.w3.org/1999/xlink" contentStyleType="text/css" height="1112px" preserveAspectRatio="none" style="width:657px;height:1112px;" version="1.1" viewBox="0 0 657 1112" width="657px" zoomAndPan="magnify"><defs/><g><g id="elem_GMN2"><path d="M409,6 L409,13 L388.617,17 L409,21 L409,27.6406 A0,0 0 0 0 409,27.6406 L496,27.6406 A0,0 0 0 0 496,27.6406 L496,16 L486,6 L409,6 A0,0 0 0 0 409,6 " fill="#F0F8FF" style="stroke:#181818;stroke-width:0.5;"/><path d="M486,6 L486,16 L496,16 L486,6 " fill="#F0F8FF" style="stroke:#181818;stroke-width:0.5;"/><text fill="#000000" font-family="Ubuntu Light" font-size="10" lengthAdjust="spacing" textLength="66" x="415" y="20.2822">A topic arise</text></g><ellipse cx="378.5" cy="17" fill="#222222" rx="10" ry="10" style="stroke:none;stroke-width:1.0;"/><rect fill="#B0E0E6" height="33.9688" rx="12.5" ry="12.5" style="stroke:#181818;stroke-width:0.5;" width="60" x="348.5" y="82"/><text fill="#000000" font-family="Ubuntu Light" font-size="12" font-weight="bold" lengthAdjust="spacing" textLength="40" x="358.5" y="103.1387">Draft</text><g id="elem_GMN8"><path d="M172.5,88 L172.5,109.6406 A0,0 0 0 0 172.5,109.6406 L328.5,109.6406 A0,0 0 0 0 328.5,109.6406 L328.5,106 L348.336,99 L328.5,98 L328.5,98 L318.5,88 L172.5,88 A0,0 0 0 0 172.5,88 " fill="#F0F8FF" style="stroke:#181818;stroke-width:0.5;"/><path d="M318.5,88 L318.5,98 L328.5,98 L318.5,88 " fill="#F0F8FF" style="stroke:#181818;stroke-width:0.5;"/><text fill="#000000" font-family="Ubuntu Light" font-size="10" lengthAdjust="spacing" textLength="135" x="178.5" y="102.2822">An Idea (issue) is created</text></g><rect fill="#B0E0E6" height="33.9688" rx="12.5" ry="12.5" style="stroke:#181818;stroke-width:0.5;" width="64" x="346.5" y="181.5"/><text fill="#000000" font-family="Ubuntu Light" font-size="12" font-weight="bold" lengthAdjust="spacing" textLength="44" x="356.5" y="202.6387">Ready</text><g id="elem_GMN13"><path d="M431,170 L431,194.5 L410.773,198.5 L431,202.5 L431,226.5625 A0,0 0 0 0 431,226.5625 L650,226.5625 A0,0 0 0 0 650,226.5625 L650,180 L640,170 L431,170 A0,0 0 0 0 431,170 " fill="#F0F8FF" style="stroke:#181818;stroke-width:0.5;"/><path d="M640,170 L640,180 L650,180 L640,170 " fill="#F0F8FF" style="stroke:#181818;stroke-width:0.5;"/><text fill="#000000" font-family="Ubuntu Light" font-size="10" lengthAdjust="spacing" textLength="181" x="437" y="184.2822">The idea is clear, the contributors</text><text fill="#000000" font-family="Ubuntu Light" font-size="10" lengthAdjust="spacing" textLength="143" x="437" y="195.9229">and experts are identified,</text><text fill="#000000" font-family="Ubuntu Light" font-size="10" lengthAdjust="spacing" textLength="198" x="437" y="207.5635">the idea is planned to be included in</text><text fill="#000000" font-family="Ubuntu Light" font-size="10" lengthAdjust="spacing" textLength="129" x="437" y="219.2041">an upcoming milestone</text></g><rect fill="#B0E0E6" height="33.9688" rx="12.5" ry="12.5" style="stroke:#181818;stroke-width:0.5;" width="103" x="327" y="304"/><text fill="#000000" font-family="Ubuntu Light" font-size="12" font-weight="bold" lengthAdjust="spacing" textLength="83" x="337" y="325.1387">In progress</text><g id="elem_GMN18"><path d="M6,281 L6,360.8438 A0,0 0 0 0 6,360.8438 L307,360.8438 A0,0 0 0 0 307,360.8438 L307,325 L326.835,321 L307,317 L307,291 L297,281 L6,281 A0,0 0 0 0 6,281 " fill="#F0F8FF" style="stroke:#181818;stroke-width:0.5;"/><path d="M297,281 L297,291 L307,291 L297,281 " fill="#F0F8FF" style="stroke:#181818;stroke-width:0.5;"/><text fill="#000000" font-family="Ubuntu Light" font-size="10" lengthAdjust="spacing" textLength="242" x="12" y="295.2822">The introductory material with the necessary</text><text fill="#000000" font-family="Ubuntu Light" font-size="10" lengthAdjust="spacing" textLength="280" x="12" y="306.9229">supporting documents (code, architecture diagram,</text><text fill="#000000" font-family="Ubuntu Light" font-size="10" lengthAdjust="spacing" textLength="238" x="12" y="318.5635">any useful representation of the problem) is</text><text fill="#000000" font-family="Ubuntu Light" font-size="10" lengthAdjust="spacing" textLength="237" x="12" y="330.2041">created by the idea owner, and reviewed by</text><text fill="#000000" font-family="Ubuntu Light" font-size="10" lengthAdjust="spacing" textLength="237" x="12" y="341.8447">at least one of the staff members and a key</text><text fill="#000000" font-family="Ubuntu Light" font-size="10" lengthAdjust="spacing" textLength="60" x="12" y="353.4854">contributor</text></g><rect fill="#B0E0E6" height="33.9688" rx="12.5" ry="12.5" style="stroke:#181818;stroke-width:0.5;" width="95" x="331" y="432"/><text fill="#000000" font-family="Ubuntu Light" font-size="12" font-weight="bold" lengthAdjust="spacing" textLength="75" x="341" y="453.1387">Scheduled</text><g id="elem_GMN23"><path d="M446,415 L446,445 L426.029,449 L446,453 L446,483.2031 A0,0 0 0 0 446,483.2031 L621,483.2031 A0,0 0 0 0 621,483.2031 L621,425 L611,415 L446,415 A0,0 0 0 0 446,415 " fill="#F0F8FF" style="stroke:#181818;stroke-width:0.5;"/><path d="M611,415 L611,425 L621,425 L611,415 " fill="#F0F8FF" style="stroke:#181818;stroke-width:0.5;"/><text fill="#000000" font-family="Ubuntu Light" font-size="10" lengthAdjust="spacing" textLength="142" x="452" y="429.2822">An event is created on the</text><text fill="#000000" font-family="Ubuntu Light" font-size="10" lengthAdjust="spacing" textLength="154" x="452" y="440.9229">WeAreCommunity page and</text><text fill="#000000" font-family="Ubuntu Light" font-size="10" lengthAdjust="spacing" textLength="126" x="452" y="452.5635">contributors are invited</text><text fill="#000000" font-family="Ubuntu Light" font-size="10" lengthAdjust="spacing" textLength="132" x="452" y="464.2041">and/or the registration is</text><text fill="#000000" font-family="Ubuntu Light" font-size="10" lengthAdjust="spacing" textLength="45" x="452" y="475.8447">enabled</text></g><rect fill="#B0E0E6" height="33.9688" rx="12.5" ry="12.5" style="stroke:#181818;stroke-width:0.5;" width="98" x="111.5" y="574.5"/><text fill="#000000" font-family="Ubuntu Light" font-size="12" font-weight="bold" lengthAdjust="spacing" textLength="78" x="121.5" y="595.6387">Conducted</text><g id="elem_GMN28"><path d="M229.5,563 L229.5,587.5 L209.562,591.5 L229.5,595.5 L229.5,619.5625 A0,0 0 0 0 229.5,619.5625 L411.5,619.5625 A0,0 0 0 0 411.5,619.5625 L411.5,573 L401.5,563 L229.5,563 A0,0 0 0 0 229.5,563 " fill="#F0F8FF" style="stroke:#181818;stroke-width:0.5;"/><path d="M401.5,563 L401.5,573 L411.5,573 L401.5,563 " fill="#F0F8FF" style="stroke:#181818;stroke-width:0.5;"/><text fill="#000000" font-family="Ubuntu Light" font-size="10" lengthAdjust="spacing" textLength="161" x="235.5" y="577.2822">The workshop is conducted at</text><text fill="#000000" font-family="Ubuntu Light" font-size="10" lengthAdjust="spacing" textLength="155" x="235.5" y="588.9229">the given date/time, and the</text><text fill="#000000" font-family="Ubuntu Light" font-size="10" lengthAdjust="spacing" textLength="129" x="235.5" y="600.5635">collaborators came to a</text><text fill="#000000" font-family="Ubuntu Light" font-size="10" lengthAdjust="spacing" textLength="61" x="235.5" y="612.2041">conclusion.</text></g><g id="elem_#31"><polygon fill="#B0E0E6" points="371.5,661,383.5,673,371.5,685,359.5,673,371.5,661" style="stroke:#181818;stroke-width:0.5;"/></g><rect fill="#B0E0E6" height="33.9688" rx="12.5" ry="12.5" style="stroke:#181818;stroke-width:0.5;" width="85" x="329" y="739"/><text fill="#000000" font-family="Ubuntu Light" font-size="12" font-weight="bold" lengthAdjust="spacing" textLength="65" x="339" y="760.1387">Resolved</text><g id="elem_GMN37"><path d="M434.5,745 L434.5,752 L414.086,756 L434.5,760 L434.5,766.6406 A0,0 0 0 0 434.5,766.6406 L624.5,766.6406 A0,0 0 0 0 624.5,766.6406 L624.5,755 L614.5,745 L434.5,745 A0,0 0 0 0 434.5,745 " fill="#F0F8FF" style="stroke:#181818;stroke-width:0.5;"/><path d="M614.5,745 L614.5,755 L624.5,755 L614.5,745 " fill="#F0F8FF" style="stroke:#181818;stroke-width:0.5;"/><text fill="#000000" font-family="Ubuntu Light" font-size="10" lengthAdjust="spacing" textLength="169" x="440.5" y="759.2822">A conclusion has been reached</text></g><g id="elem_#40"><polygon fill="#B0E0E6" points="371.5,814,383.5,826,371.5,838,359.5,826,371.5,814" style="stroke:#181818;stroke-width:0.5;"/></g><rect fill="#B0E0E6" height="33.9688" rx="12.5" ry="12.5" style="stroke:#181818;stroke-width:0.5;" width="102" x="110.5" y="897.5"/><text fill="#000000" font-family="Ubuntu Light" font-size="12" font-weight="bold" lengthAdjust="spacing" textLength="82" x="120.5" y="918.6387">In summary</text><g id="elem_GMN45"><path d="M232.5,892 L232.5,910.5 L212.688,914.5 L232.5,918.5 L232.5,936.9219 A0,0 0 0 0 232.5,936.9219 L402.5,936.9219 A0,0 0 0 0 402.5,936.9219 L402.5,902 L392.5,892 L232.5,892 A0,0 0 0 0 232.5,892 " fill="#F0F8FF" style="stroke:#181818;stroke-width:0.5;"/><path d="M392.5,892 L392.5,902 L402.5,902 L392.5,892 " fill="#F0F8FF" style="stroke:#181818;stroke-width:0.5;"/><text fill="#000000" font-family="Ubuntu Light" font-size="10" lengthAdjust="spacing" textLength="145" x="238.5" y="906.2822">An article is created on the</text><text fill="#000000" font-family="Ubuntu Light" font-size="10" lengthAdjust="spacing" textLength="133" x="238.5" y="917.9229">WeAreCommunity page,</text><text fill="#000000" font-family="Ubuntu Light" font-size="10" lengthAdjust="spacing" textLength="149" x="238.5" y="929.5635">summarizing the workshop.</text></g><rect fill="#B0E0E6" height="33.9688" rx="12.5" ry="12.5" style="stroke:#181818;stroke-width:0.5;" width="57" x="319" y="991"/><text fill="#000000" font-family="Ubuntu Light" font-size="12" font-weight="bold" lengthAdjust="spacing" textLength="37" x="329" y="1012.1387">Done</text><ellipse cx="347.5" cy="1076" fill="none" rx="10" ry="10" style="stroke:#228B22;stroke-width:1.0;"/><ellipse cx="348" cy="1076.5" fill="#228B22" rx="6" ry="6" style="stroke:none;stroke-width:1.0;"/><!--link start to Draft--><g id="link_start_Draft"><path d="M378.5,27.18 C378.5,39.12 378.5,60.38 378.5,76.5 " fill="none" id="start-to-Draft" style="stroke:#4682B4;stroke-width:1.0;"/><polygon fill="#4682B4" points="378.5,81.74,382.5,72.74,378.5,76.74,374.5,72.74,378.5,81.74" style="stroke:#4682B4;stroke-width:1.0;"/><text fill="#4682B4" font-family="Ubuntu Light" font-size="11" lengthAdjust="spacing" textLength="65" x="379.5" y="59.2104">Submission</text></g><!--link Draft to Ready--><g id="link_Draft_Ready"><path d="M378.5,116.1 C378.5,132.472 378.5,157.935 378.5,176.019 " fill="none" id="Draft-to-Ready" style="stroke:#4682B4;stroke-width:1.0;"/><polygon fill="#4682B4" points="378.5,181.376,382.5,172.376,378.5,176.376,374.5,172.376,378.5,181.376" style="stroke:#4682B4;stroke-width:1.0;"/><text fill="#4682B4" font-family="Ubuntu Light" font-size="11" lengthAdjust="spacing" textLength="66" x="379.5" y="147.2104">Clarification</text></g><!--link Ready to In progress--><g id="link_Ready_In progress"><path d="M378.5,215.751 C378.5,237.132 378.5,274.768 378.5,298.491 " fill="none" id="Ready-to-In progress" style="stroke:#4682B4;stroke-width:1.0;stroke-dasharray:1.0,3.0;"/><polygon fill="#4682B4" points="378.5,303.621,382.5,294.621,378.5,298.621,374.5,294.621,378.5,303.621" style="stroke:#4682B4;stroke-width:1.0;"/><text fill="#4682B4" font-family="Ubuntu Light" font-size="11" lengthAdjust="spacing" textLength="90" x="379.5" y="258.2104">Milestone starts</text></g><!--link In progress to Scheduled--><g id="link_In progress_Scheduled"><path d="M378.5,338.214 C378.5,360.801 378.5,401.769 378.5,426.768 " fill="none" id="In progress-to-Scheduled" style="stroke:#4682B4;stroke-width:1.0;"/><polygon fill="#4682B4" points="378.5,431.848,382.5,422.848,378.5,426.848,374.5,422.848,378.5,431.848" style="stroke:#4682B4;stroke-width:1.0;"/><text fill="#4682B4" font-family="Ubuntu Light" font-size="11" lengthAdjust="spacing" textLength="72" x="379.5" y="392.2104">Organization</text></g><!--link Scheduled to Conducted--><g id="link_Scheduled_Conducted"><path d="M353.493,466.117 C312.946,492.25 233.053,543.74 189.867,571.573 " fill="none" id="Scheduled-to-Conducted" style="stroke:#4682B4;stroke-width:1.0;stroke-dasharray:1.0,3.0;"/><polygon fill="#4682B4" points="185.551,574.355,195.2829,572.8419,189.7538,571.6464,190.9492,566.1173,185.551,574.355" style="stroke:#4682B4;stroke-width:1.0;"/><text fill="#4682B4" font-family="Ubuntu Light" font-size="11" lengthAdjust="spacing" textLength="79" x="296.5" y="514.2104">The workshop</text><text fill="#4682B4" font-family="Ubuntu Light" font-size="11" font-weight="bold" lengthAdjust="spacing" textLength="31" x="320.5" y="527.0151">date</text><text fill="#4682B4" font-family="Ubuntu Light" font-size="11" lengthAdjust="spacing" textLength="39" x="316.5" y="539.8198">arrives</text></g><!--link Conducted to #31--><g id="link_Conducted_#31"><path d="M193.305,608.545 C201.762,612.472 210.904,616.538 219.5,620 C269.705,640.221 331.141,659.667 357.929,667.892 " fill="none" id="Conducted-to-#31" style="stroke:#4682B4;stroke-width:1.0;"/><polygon fill="#4682B4" points="362.812,669.385,355.3755,662.9276,358.0306,667.9226,353.0356,670.5778,362.812,669.385" style="stroke:#4682B4;stroke-width:1.0;"/><text fill="#4682B4" font-family="Ubuntu Light" font-size="11" lengthAdjust="spacing" textLength="187" x="164.6352" y="666.5878">More workshop session needed?</text></g><!--link #31 to Scheduled--><g id="link_#31_Scheduled"><path d="M378.347,667.565 C389.861,659.647 412.703,641.84 421.5,620 C442.314,568.323 411.398,503.658 392.073,470.98 " fill="none" id="#31-to-Scheduled" style="stroke:#4682B4;stroke-width:1.0;"/><polygon fill="#4682B4" points="389.313,466.397,390.5269,476.1708,391.8914,470.6809,397.3812,472.0454,389.313,466.397" style="stroke:#4682B4;stroke-width:1.0;"/><text fill="#4682B4" font-family="Ubuntu Light" font-size="11" lengthAdjust="spacing" textLength="21" x="428.5" y="595.7104">Yes</text></g><!--link #31 to Resolved--><g id="link_#31_Resolved"><path d="M371.5,685.263 C371.5,697.76 371.5,718.211 371.5,733.743 " fill="none" id="#31-to-Resolved" style="stroke:#4682B4;stroke-width:1.0;"/><polygon fill="#4682B4" points="371.5,738.803,375.5,729.803,371.5,733.803,367.5,729.803,371.5,738.803" style="stroke:#4682B4;stroke-width:1.0;"/><text fill="#4682B4" font-family="Ubuntu Light" font-size="11" lengthAdjust="spacing" textLength="15" x="372.5" y="716.2104">No</text></g><!--link Resolved to #40--><g id="link_Resolved_#40"><path d="M371.5,773.115 C371.5,783.916 371.5,798.082 371.5,808.883 " fill="none" id="Resolved-to-#40" style="stroke:#4682B4;stroke-width:1.0;"/><polygon fill="#4682B4" points="371.5,813.885,375.5,804.885,371.5,808.885,367.5,804.885,371.5,813.885" style="stroke:#4682B4;stroke-width:1.0;"/><text fill="#4682B4" font-family="Ubuntu Light" font-size="11" lengthAdjust="spacing" textLength="162" x="189.7563" y="807.778">Summary article is needed?</text></g><!--link #40 to In summary--><g id="link_#40_In summary"><path d="M363.524,830.285 C337.976,840.808 256.846,874.227 205.503,895.375 " fill="none" id="#40-to-In summary" style="stroke:#4682B4;stroke-width:1.0;"/><polygon fill="#4682B4" points="200.63,897.382,210.4751,897.6526,205.2531,895.4776,207.4281,890.2556,200.63,897.382" style="stroke:#4682B4;stroke-width:1.0;"/><text fill="#4682B4" font-family="Ubuntu Light" font-size="11" lengthAdjust="spacing" textLength="21" x="292.5" y="869.2104">Yes</text></g><!--link In summary to Done--><g id="link_In summary_Done"><path d="M194.325,931.648 C228.022,948.225 280.191,973.888 314.098,990.5682 " fill="none" id="In summary-to-Done" style="stroke:#4682B4;stroke-width:1.0;"/><polygon fill="#4682B4" points="318.963,992.9618,312.653,985.3998,314.4765,990.7547,309.1216,992.5782,318.963,992.9618" style="stroke:#4682B4;stroke-width:1.0;"/><text fill="#4682B4" font-family="Ubuntu Light" font-size="11" lengthAdjust="spacing" textLength="81" x="272.5" y="968.2104">Administration</text></g><!--link #40 to Done--><g id="link_#40_Done"><path d="M376.867,832.877 C386.286,843.638 405.461,867.647 412.5,892 C418.053,911.214 419.81,918.384 412.5,937 C404.632,957.036 388.033,974.75 373.579,987.3452 " fill="none" id="#40-to-Done" style="stroke:#4682B4;stroke-width:1.0;"/><polygon fill="#4682B4" points="369.568,990.7597,379.0138,987.9709,373.3751,987.5183,373.8276,981.8796,369.568,990.7597" style="stroke:#4682B4;stroke-width:1.0;"/><text fill="#4682B4" font-family="Ubuntu Light" font-size="11" lengthAdjust="spacing" textLength="103" x="417.5" y="918.7104">No, Administration</text></g><!--link Done to end--><g id="link_Done_end"><path d="M347.5,1025.3146 C347.5,1036.2368 347.5,1050.4683 347.5,1060.8993 " fill="none" id="Done-to-end" style="stroke:#4682B4;stroke-width:1.0;stroke-dasharray:1.0,3.0;"/><polygon fill="#4682B4" points="347.5,1065.97,351.5,1056.97,347.5,1060.97,343.5,1056.97,347.5,1065.97" style="stroke:#4682B4;stroke-width:1.0;"/></g><text fill="#4682B4" font-family="Ubuntu Light" font-size="10" font-style="italic" lengthAdjust="spacing" textLength="180" x="231.5" y="1101.2822">fig. process of the Workshop Format</text><!--SRC=[TLJHRXCn47pFLwnuAb58uGT0fL2410KH44A51v-zTx7giq_sEY55_3kxlhlaUgLzIi_sxCpExAPRwpiLLGi6QvKTNGLFrwf5-5PbJna-s6PBYtIyLYbzsyIGlRaCBaIWg7pY8_Iqc5pJgYCRFFnP0Fy9Q7zzGuZkjSju_BwXWqEmf9pLfu_s3k75yuuMVwUeIfFTMJeCiAzdN3w7lS5uHD-GYaFPgn0nqRk8wClHs_79_E34g0hEpAh76FP3wSVKpB_V0_21y17g5wmUx_UbRu4WZCsiRRE6BWQDAK6eWRO8tqEyJTlGYP9MiGUbI2ok2TG5KEYiPl8suGAzAImMYxFbKtZsxEND9bUjJOdXVy6RgEeHmM4z07XuRr316T_A-1Hi0XrH4Pe9cY1TEgvHMwseW7r1PGuFw7nbobRW1CQXYgkYGhFWQAjC8QPoJp4q_kumKcBgvOqdHaUpAkSqmUcSyXuD2uMAlthjik5_hH-G87SwjDOtq5h7RWS_RSHw_VBcu_WTacGc_OBtNXhTS3ZIl2550jCD9clcUm1kEqQh7EmjRGipZsAHYeVo8EMk2v64W0awjwmamPaE1bUiJMyjeQRC8erL3UTaDV0-G4vOPmSHEoR2pqfhH-UPN-Mm5KVAWy4Lg0wdxeIzHswnT3FYpkA-dFVun99K8X3P0oIhhsjeiQqmfl9AmItszoSMpOp_51lbxTtW-qPlqMJ7yNWGHG-uOnMJ275nALoEl-D5nClGjjdBY7UgGQ4mBpxamVCUG3DcvLms4Gk8sDZ4AwdqQUWBUbMvUsaLoyN5_J0xF_roQPZESldJyv3R7N82BeCNWuywxla_lYnInelSqcCs6mRn8A3dP5liBHYLwk2SgWBJ53bQjYrdLurAERyoZ-i9Orl3au-ygaw54vQXvQWXX_tL4m7tOWVS_13w9nlGyU2NW-iWOvc2s_7d1tlYL1csAl4eiG1sIN1EJFY7hNi-czos776sWwoM5PvcP0HMyb7uy42b_i6Y7CpA3_cOOFqd8O-aP7Kyx2lOEnarcjYq7e8mjdDaTc5uBHm3mmkmh0RfrtZZEgpW_xVwHd2KW5VfFm00]--></g></svg>