<?xml version="1.0" encoding="us-ascii" standalone="no"?><svg xmlns="http://www.w3.org/2000/svg" xmlns:xlink="http://www.w3.org/1999/xlink" contentStyleType="text/css" height="892px" preserveAspectRatio="none" style="width:704px;height:892px;" version="1.1" viewBox="0 0 704 892" width="704px" zoomAndPan="magnify"><defs/><g><g id="elem_GMN2"><path d="M368.5,6 L368.5,13 L348.117,17 L368.5,21 L368.5,27.6406 A0,0 0 0 0 368.5,27.6406 L455.5,27.6406 A0,0 0 0 0 455.5,27.6406 L455.5,16 L445.5,6 L368.5,6 A0,0 0 0 0 368.5,6 " fill="#F0F8FF" style="stroke:#181818;stroke-width:0.5;"/><path d="M445.5,6 L445.5,16 L455.5,16 L445.5,6 " fill="#F0F8FF" style="stroke:#181818;stroke-width:0.5;"/><text fill="#000000" font-family="Ubuntu Light" font-size="10" lengthAdjust="spacing" textLength="66" x="374.5" y="20.2822">A topic arise</text></g><ellipse cx="338" cy="17" fill="#222222" rx="10" ry="10" style="stroke:none;stroke-width:1.0;"/><rect fill="#B0E0E6" height="33.9688" rx="12.5" ry="12.5" style="stroke:#181818;stroke-width:0.5;" width="60" x="308" y="82"/><text fill="#000000" font-family="Ubuntu Light" font-size="12" font-weight="bold" lengthAdjust="spacing" textLength="40" x="318" y="103.1387">Draft</text><g id="elem_GMN8"><path d="M132,88 L132,109.6406 A0,0 0 0 0 132,109.6406 L288,109.6406 A0,0 0 0 0 288,109.6406 L288,106 L307.836,99 L288,98 L288,98 L278,88 L132,88 A0,0 0 0 0 132,88 " fill="#F0F8FF" style="stroke:#181818;stroke-width:0.5;"/><path d="M278,88 L278,98 L288,98 L278,88 " fill="#F0F8FF" style="stroke:#181818;stroke-width:0.5;"/><text fill="#000000" font-family="Ubuntu Light" font-size="10" lengthAdjust="spacing" textLength="135" x="138" y="102.2822">An Idea (issue) is created</text></g><rect fill="#B0E0E6" height="33.9688" rx="12.5" ry="12.5" style="stroke:#181818;stroke-width:0.5;" width="64" x="306" y="181.5"/><text fill="#000000" font-family="Ubuntu Light" font-size="12" font-weight="bold" lengthAdjust="spacing" textLength="44" x="316" y="202.6387">Ready</text><g id="elem_GMN13"><path d="M390.5,170 L390.5,194.5 L370.273,198.5 L390.5,202.5 L390.5,226.5625 A0,0 0 0 0 390.5,226.5625 L609.5,226.5625 A0,0 0 0 0 609.5,226.5625 L609.5,180 L599.5,170 L390.5,170 A0,0 0 0 0 390.5,170 " fill="#F0F8FF" style="stroke:#181818;stroke-width:0.5;"/><path d="M599.5,170 L599.5,180 L609.5,180 L599.5,170 " fill="#F0F8FF" style="stroke:#181818;stroke-width:0.5;"/><text fill="#000000" font-family="Ubuntu Light" font-size="10" lengthAdjust="spacing" textLength="181" x="396.5" y="184.2822">The idea is clear, the contributors</text><text fill="#000000" font-family="Ubuntu Light" font-size="10" lengthAdjust="spacing" textLength="143" x="396.5" y="195.9229">and experts are identified,</text><text fill="#000000" font-family="Ubuntu Light" font-size="10" lengthAdjust="spacing" textLength="198" x="396.5" y="207.5635">the idea is planned to be included in</text><text fill="#000000" font-family="Ubuntu Light" font-size="10" lengthAdjust="spacing" textLength="129" x="396.5" y="219.2041">an upcoming milestone</text></g><rect fill="#B0E0E6" height="33.9688" rx="12.5" ry="12.5" style="stroke:#181818;stroke-width:0.5;" width="103" x="286.5" y="304"/><text fill="#000000" font-family="Ubuntu Light" font-size="12" font-weight="bold" lengthAdjust="spacing" textLength="83" x="296.5" y="325.1387">In progress</text><g id="elem_GMN18"><path d="M6,281 L6,360.8438 A0,0 0 0 0 6,360.8438 L266,360.8438 A0,0 0 0 0 266,360.8438 L266,325 L286.39,321 L266,317 L266,291 L256,281 L6,281 A0,0 0 0 0 6,281 " fill="#F0F8FF" style="stroke:#181818;stroke-width:0.5;"/><path d="M256,281 L256,291 L266,291 L256,281 " fill="#F0F8FF" style="stroke:#181818;stroke-width:0.5;"/><text fill="#000000" font-family="Ubuntu Light" font-size="10" lengthAdjust="spacing" textLength="236" x="12" y="295.2822">The introdutory material with the necessary</text><text fill="#000000" font-family="Ubuntu Light" font-size="10" lengthAdjust="spacing" textLength="225" x="12" y="306.9229">artifacts (code, architecture diagram, any</text><text fill="#000000" font-family="Ubuntu Light" font-size="10" lengthAdjust="spacing" textLength="222" x="12" y="318.5635">useful representation of the problemd) is</text><text fill="#000000" font-family="Ubuntu Light" font-size="10" lengthAdjust="spacing" textLength="237" x="12" y="330.2041">created by the idea owner, and reviewed by</text><text fill="#000000" font-family="Ubuntu Light" font-size="10" lengthAdjust="spacing" textLength="237" x="12" y="341.8447">at least one of the staff members and a key</text><text fill="#000000" font-family="Ubuntu Light" font-size="10" lengthAdjust="spacing" textLength="60" x="12" y="353.4854">contributor</text></g><rect fill="#B0E0E6" height="33.9688" rx="12.5" ry="12.5" style="stroke:#181818;stroke-width:0.5;" width="95" x="290.5" y="432"/><text fill="#000000" font-family="Ubuntu Light" font-size="12" font-weight="bold" lengthAdjust="spacing" textLength="75" x="300.5" y="453.1387">Scheduled</text><g id="elem_GMN23"><path d="M405.5,415 L405.5,445 L385.529,449 L405.5,453 L405.5,483.2031 A0,0 0 0 0 405.5,483.2031 L580.5,483.2031 A0,0 0 0 0 580.5,483.2031 L580.5,425 L570.5,415 L405.5,415 A0,0 0 0 0 405.5,415 " fill="#F0F8FF" style="stroke:#181818;stroke-width:0.5;"/><path d="M570.5,415 L570.5,425 L580.5,425 L570.5,415 " fill="#F0F8FF" style="stroke:#181818;stroke-width:0.5;"/><text fill="#000000" font-family="Ubuntu Light" font-size="10" lengthAdjust="spacing" textLength="142" x="411.5" y="429.2822">An event is created on the</text><text fill="#000000" font-family="Ubuntu Light" font-size="10" lengthAdjust="spacing" textLength="154" x="411.5" y="440.9229">WeAreCommunity page and</text><text fill="#000000" font-family="Ubuntu Light" font-size="10" lengthAdjust="spacing" textLength="126" x="411.5" y="452.5635">contributors are invited</text><text fill="#000000" font-family="Ubuntu Light" font-size="10" lengthAdjust="spacing" textLength="132" x="411.5" y="464.2041">and/or the registration is</text><text fill="#000000" font-family="Ubuntu Light" font-size="10" lengthAdjust="spacing" textLength="45" x="411.5" y="475.8447">enabled</text></g><rect fill="#B0E0E6" height="33.9688" rx="12.5" ry="12.5" style="stroke:#181818;stroke-width:0.5;" width="98" x="289" y="580"/><text fill="#000000" font-family="Ubuntu Light" font-size="12" font-weight="bold" lengthAdjust="spacing" textLength="78" x="299" y="601.1387">Conducted</text><g id="elem_GMN28"><path d="M77.5,563 L77.5,631.2031 A0,0 0 0 0 77.5,631.2031 L268.5,631.2031 A0,0 0 0 0 268.5,631.2031 L268.5,601 L288.741,597 L268.5,593 L268.5,573 L258.5,563 L77.5,563 A0,0 0 0 0 77.5,563 " fill="#F0F8FF" style="stroke:#181818;stroke-width:0.5;"/><path d="M258.5,563 L258.5,573 L268.5,573 L258.5,563 " fill="#F0F8FF" style="stroke:#181818;stroke-width:0.5;"/><text fill="#000000" font-family="Ubuntu Light" font-size="10" lengthAdjust="spacing" textLength="161" x="83.5" y="577.2822">The workshop is conducted at</text><text fill="#000000" font-family="Ubuntu Light" font-size="10" lengthAdjust="spacing" textLength="147" x="83.5" y="588.9229">the given date/time, all the</text><text fill="#000000" font-family="Ubuntu Light" font-size="10" lengthAdjust="spacing" textLength="170" x="83.5" y="600.5635">questions answered or followed</text><text fill="#000000" font-family="Ubuntu Light" font-size="10" lengthAdjust="spacing" textLength="150" x="83.5" y="612.2041">up, the recording and slides</text><text fill="#000000" font-family="Ubuntu Light" font-size="10" lengthAdjust="spacing" textLength="71" x="83.5" y="623.8447">are available</text></g><g id="elem_#31"><polygon fill="#B0E0E6" points="338,682.5,350,694.5,338,706.5,326,694.5,338,682.5" style="stroke:#181818;stroke-width:0.5;"/></g><rect fill="#B0E0E6" height="33.9688" rx="12.5" ry="12.5" style="stroke:#181818;stroke-width:0.5;" width="102" x="405" y="677.5"/><text fill="#000000" font-family="Ubuntu Light" font-size="12" font-weight="bold" lengthAdjust="spacing" textLength="82" x="415" y="698.6387">In summary</text><g id="elem_GMN36"><path d="M527,672 L527,690.5 L507.188,694.5 L527,698.5 L527,716.9219 A0,0 0 0 0 527,716.9219 L697,716.9219 A0,0 0 0 0 697,716.9219 L697,682 L687,672 L527,672 A0,0 0 0 0 527,672 " fill="#F0F8FF" style="stroke:#181818;stroke-width:0.5;"/><path d="M687,672 L687,682 L697,682 L687,672 " fill="#F0F8FF" style="stroke:#181818;stroke-width:0.5;"/><text fill="#000000" font-family="Ubuntu Light" font-size="10" lengthAdjust="spacing" textLength="145" x="533" y="686.2822">An article is created on the</text><text fill="#000000" font-family="Ubuntu Light" font-size="10" lengthAdjust="spacing" textLength="133" x="533" y="697.9229">WeAreCommunity page,</text><text fill="#000000" font-family="Ubuntu Light" font-size="10" lengthAdjust="spacing" textLength="149" x="533" y="709.5635">summarizing the workshop.</text></g><rect fill="#B0E0E6" height="33.9688" rx="12.5" ry="12.5" style="stroke:#181818;stroke-width:0.5;" width="57" x="368.5" y="771"/><text fill="#000000" font-family="Ubuntu Light" font-size="12" font-weight="bold" lengthAdjust="spacing" textLength="37" x="378.5" y="792.1387">Done</text><ellipse cx="397" cy="856" fill="none" rx="10" ry="10" style="stroke:#228B22;stroke-width:1.0;"/><ellipse cx="397.5" cy="856.5" fill="#228B22" rx="6" ry="6" style="stroke:none;stroke-width:1.0;"/><!--link start to Draft--><g id="link_start_Draft"><path d="M338,27.177 C338,39.124 338,60.379 338,76.496 " fill="none" id="start-to-Draft" style="stroke:#4682B4;stroke-width:1.0;"/><polygon fill="#4682B4" points="338,81.745,342,72.745,338,76.745,334,72.745,338,81.745" style="stroke:#4682B4;stroke-width:1.0;"/><text fill="#4682B4" font-family="Ubuntu Light" font-size="11" lengthAdjust="spacing" textLength="65" x="339" y="59.2104">Submission</text></g><!--link Draft to Ready--><g id="link_Draft_Ready"><path d="M338,116.1 C338,132.472 338,157.935 338,176.019 " fill="none" id="Draft-to-Ready" style="stroke:#4682B4;stroke-width:1.0;"/><polygon fill="#4682B4" points="338,181.376,342,172.376,338,176.376,334,172.376,338,181.376" style="stroke:#4682B4;stroke-width:1.0;"/><text fill="#4682B4" font-family="Ubuntu Light" font-size="11" lengthAdjust="spacing" textLength="66" x="339" y="147.2104">Clarification</text></g><!--link Ready to In progress--><g id="link_Ready_In progress"><path d="M338,215.751 C338,237.132 338,274.768 338,298.491 " fill="none" id="Ready-to-In progress" style="stroke:#4682B4;stroke-width:1.0;stroke-dasharray:1.0,3.0;"/><polygon fill="#4682B4" points="338,303.621,342,294.621,338,298.621,334,294.621,338,303.621" style="stroke:#4682B4;stroke-width:1.0;"/><text fill="#4682B4" font-family="Ubuntu Light" font-size="11" lengthAdjust="spacing" textLength="90" x="339" y="258.2104">Milestone starts</text></g><!--link In progress to Scheduled--><g id="link_In progress_Scheduled"><path d="M338,338.214 C338,360.801 338,401.769 338,426.768 " fill="none" id="In progress-to-Scheduled" style="stroke:#4682B4;stroke-width:1.0;"/><polygon fill="#4682B4" points="338,431.848,342,422.848,338,426.848,334,422.848,338,431.848" style="stroke:#4682B4;stroke-width:1.0;"/><text fill="#4682B4" font-family="Ubuntu Light" font-size="11" lengthAdjust="spacing" textLength="72" x="339" y="392.2104">Organization</text></g><!--link Scheduled to Conducted--><g id="link_Scheduled_Conducted"><path d="M338,466.182 C338,492.602 338,545.007 338,574.513 " fill="none" id="Scheduled-to-Conducted" style="stroke:#4682B4;stroke-width:1.0;stroke-dasharray:1.0,3.0;"/><polygon fill="#4682B4" points="338,579.745,342,570.745,338,574.745,334,570.745,338,579.745" style="stroke:#4682B4;stroke-width:1.0;"/><text fill="#4682B4" font-family="Ubuntu Light" font-size="11" lengthAdjust="spacing" textLength="79" x="339" y="514.2104">The workshop</text><text fill="#4682B4" font-family="Ubuntu Light" font-size="11" font-weight="bold" lengthAdjust="spacing" textLength="31" x="363" y="527.0151">date</text><text fill="#4682B4" font-family="Ubuntu Light" font-size="11" lengthAdjust="spacing" textLength="39" x="359" y="539.8198">arrives</text></g><!--link Conducted to #31--><g id="link_Conducted_#31"><path d="M338,614.2 C338,631.755 338,659.607 338,677.2 " fill="none" id="Conducted-to-#31" style="stroke:#4682B4;stroke-width:1.0;"/><polygon fill="#4682B4" points="338,682.308,342,673.308,338,677.308,334,673.308,338,682.308" style="stroke:#4682B4;stroke-width:1.0;"/><text fill="#4682B4" font-family="Ubuntu Light" font-size="11" lengthAdjust="spacing" textLength="162" x="156.2563" y="676.1822">Summary article is needed?</text></g><!--link #31 to In summary--><g id="link_#31_In summary"><path d="M350.184,694.5 C362.079,694.5 381.06,694.5 399.683,694.5 " fill="none" id="#31-to-In summary" style="stroke:#4682B4;stroke-width:1.0;"/><polygon fill="#4682B4" points="404.92,694.5,395.92,690.5,399.92,694.5,395.92,698.5,404.92,694.5" style="stroke:#4682B4;stroke-width:1.0;"/><text fill="#4682B4" font-family="Ubuntu Light" font-size="11" lengthAdjust="spacing" textLength="21" x="367" y="688.7104">Yes</text></g><!--link In summary to Done--><g id="link_In summary_Done"><path d="M453.174,711.567 C450.579,723.222 445.906,738.984 438,751 C434.024,757.044 428.77,762.686 423.356,767.6275 " fill="none" id="In summary-to-Done" style="stroke:#4682B4;stroke-width:1.0;"/><polygon fill="#4682B4" points="419.596,770.9332,428.9963,767.9948,423.3511,767.6318,423.7141,761.9866,419.596,770.9332" style="stroke:#4682B4;stroke-width:1.0;"/><text fill="#4682B4" font-family="Ubuntu Light" font-size="11" lengthAdjust="spacing" textLength="81" x="445" y="748.2104">Administration</text></g><!--link #31 to Done--><g id="link_#31_Done"><path d="M333.856,702.545 C327.913,713.663 318.662,735.595 328,751 C335.798,763.863 349.862,772.347 363.269,777.8275 " fill="none" id="#31-to-Done" style="stroke:#4682B4;stroke-width:1.0;"/><polygon fill="#4682B4" points="368.165,779.7133,361.2042,772.7457,363.4991,777.9162,358.3287,780.2111,368.165,779.7133" style="stroke:#4682B4;stroke-width:1.0;"/><text fill="#4682B4" font-family="Ubuntu Light" font-size="11" lengthAdjust="spacing" textLength="103" x="329" y="748.2104">No, Administration</text></g><!--link Done to end--><g id="link_Done_end"><path d="M397,805.3146 C397,816.2368 397,830.4683 397,840.8993 " fill="none" id="Done-to-end" style="stroke:#4682B4;stroke-width:1.0;stroke-dasharray:1.0,3.0;"/><polygon fill="#4682B4" points="397,845.97,401,836.97,397,840.97,393,836.97,397,845.97" style="stroke:#4682B4;stroke-width:1.0;"/></g><text fill="#4682B4" font-family="Ubuntu Light" font-size="10" font-style="italic" lengthAdjust="spacing" textLength="180" x="255" y="881.2822">fig. process of the Workshop Format</text><!--SRC=[TLJTRjCm5BxFKnnnjLLT1oymr1M69i5053IXRHUEVP9QTUpWduOEyUuSEqwMTbllwdFydU_dE6uhTSiiQq1WnOBoLqRx6zOW_2o3zW4-othZ2pUsbOnlQsk25YkZZ0LlcNPKGksBIHjdhPT6mzy2w1T1-_QrHrINAk1ullPxXI0zKv8_7Sf7X7TlMr_ycw8oxkLE-ds6lJpYyirq0ks8llRCvh5NngBpdooYJgMFmvNZmXEZqYXnDDrQq-NHhwavFZy0qCRZAzINf1uFVUajY0Y3cPMi5z1Qmz4vC1Nu3SAjiLktCMrKqZ3A80snARK8jGHlMic9l7HOe1Q9HL6Sp4xXxEpYRXtAHZf7y0_mmR9gG51OPG0Drm8Pd51Nm5EG3hX5vb5Cq2BIIj6CIdBc4zXtP6B_ZCuFeYmZN8HHoEmygU0asCeoU6DTwcC4ZNzQjDuHzNH7Uq97CKzrFy5f5TCQ1Gc5aaurLq7GNwap4eIMcqRg6XgfA6sZfqOi5XTtNuPpS75dt0DSwsXqJSlXZWr94eYk4P7k7iXrj98fwAJV968QOqACQZq3IynfTHsSS2DmJWTy8pro7qYPaAocvQ1JlK_jmM4L55XiQJgfJduESHEfKc4ZOWwfEsS1vVx94zDfjFFaeSMTn2xLUowUX33d8OhDcAIvgg31faJhqYq6M-px9y4SnVtLrapBnvpscczG14LByMm1DU2EP4mMXuR7mQbyYqkBAzCqGSU7tR8Q8uNZuNaBDBr-5CE6dCVl3mcmM4j77w9aLFO5DIlLmOx6e6DsNNunztes4qHdDhlNzBJb3YdtbT4YS3_gE4Xzk9ca38rawRYHDO5eYA3dNZOnQQL6fRy3xHWnZ1Qx3ctqmK9bb39TrXJQUHR4ZHLnOsCQJb6g-LcG2Mp7f8hY9jfa1M_MeMdYpiLru_6JwcWHaLx2-pSHj7yDPoaOYkyNzblk-bj5gXv5b-ER0BuGu2iXpiTYFq4-HZb-uk8YvpHeIFI8sLBGMntpfAzIUg_AuTXnO-RmSfSMiaf90ttV_WC0]--></g></svg>