<?xml version="1.0" encoding="us-ascii" standalone="no"?><svg xmlns="http://www.w3.org/2000/svg" xmlns:xlink="http://www.w3.org/1999/xlink" contentStyleType="text/css" height="923px" preserveAspectRatio="none" style="width:642px;height:923px;" version="1.1" viewBox="0 0 642 923" width="642px" zoomAndPan="magnify"><defs/><g><text fill="#000000" font-family="Ubuntu Light" font-size="14" font-weight="bold" lengthAdjust="spacing" textLength="198" x="215" y="22.9951">Webinar Format Process</text><g id="elem_GMN2"><path d="M310.5,43.2969 L310.5,50.2969 L290.117,54.2969 L310.5,58.2969 L310.5,64.9375 A0,0 0 0 0 310.5,64.9375 L397.5,64.9375 A0,0 0 0 0 397.5,64.9375 L397.5,53.2969 L387.5,43.2969 L310.5,43.2969 A0,0 0 0 0 310.5,43.2969 " fill="#F0F8FF" style="stroke:#181818;stroke-width:0.5;"/><path d="M387.5,43.2969 L387.5,53.2969 L397.5,53.2969 L387.5,43.2969 " fill="#F0F8FF" style="stroke:#181818;stroke-width:0.5;"/><text fill="#000000" font-family="Ubuntu Light" font-size="10" lengthAdjust="spacing" textLength="66" x="316.5" y="57.5791">A topic arise</text></g><ellipse cx="280" cy="54.2969" fill="#222222" rx="10" ry="10" style="stroke:none;stroke-width:1.0;"/><rect fill="#B0E0E6" height="33.9688" rx="12.5" ry="12.5" style="stroke:#181818;stroke-width:0.5;" width="60" x="250" y="119.2969"/><text fill="#000000" font-family="Ubuntu Light" font-size="12" font-weight="bold" lengthAdjust="spacing" textLength="40" x="260" y="140.4355">Draft</text><g id="elem_GMN8"><path d="M74,125.2969 L74,146.9375 A0,0 0 0 0 74,146.9375 L230,146.9375 A0,0 0 0 0 230,146.9375 L230,143.2969 L249.836,136.2969 L230,135.2969 L230,135.2969 L220,125.2969 L74,125.2969 A0,0 0 0 0 74,125.2969 " fill="#F0F8FF" style="stroke:#181818;stroke-width:0.5;"/><path d="M220,125.2969 L220,135.2969 L230,135.2969 L220,125.2969 " fill="#F0F8FF" style="stroke:#181818;stroke-width:0.5;"/><text fill="#000000" font-family="Ubuntu Light" font-size="10" lengthAdjust="spacing" textLength="135" x="80" y="139.5791">An Idea (issue) is created</text></g><rect fill="#B0E0E6" height="33.9688" rx="12.5" ry="12.5" style="stroke:#181818;stroke-width:0.5;" width="64" x="248" y="218.7969"/><text fill="#000000" font-family="Ubuntu Light" font-size="12" font-weight="bold" lengthAdjust="spacing" textLength="44" x="258" y="239.9355">Ready</text><g id="elem_GMN13"><path d="M332.5,207.2969 L332.5,231.7969 L312.035,235.7969 L332.5,239.7969 L332.5,263.8594 A0,0 0 0 0 332.5,263.8594 L505.5,263.8594 A0,0 0 0 0 505.5,263.8594 L505.5,217.2969 L495.5,207.2969 L332.5,207.2969 A0,0 0 0 0 332.5,207.2969 " fill="#F0F8FF" style="stroke:#181818;stroke-width:0.5;"/><path d="M495.5,207.2969 L495.5,217.2969 L505.5,217.2969 L495.5,207.2969 " fill="#F0F8FF" style="stroke:#181818;stroke-width:0.5;"/><text fill="#000000" font-family="Ubuntu Light" font-size="10" lengthAdjust="spacing" textLength="152" x="338.5" y="221.5791">The idea is clear, the trainer</text><text fill="#000000" font-family="Ubuntu Light" font-size="10" lengthAdjust="spacing" textLength="149" x="338.5" y="233.2197">is identified, and the idea is</text><text fill="#000000" font-family="Ubuntu Light" font-size="10" lengthAdjust="spacing" textLength="139" x="338.5" y="244.8604">planned to be included in</text><text fill="#000000" font-family="Ubuntu Light" font-size="10" lengthAdjust="spacing" textLength="129" x="338.5" y="256.501">an upcoming milestone</text></g><rect fill="#B0E0E6" height="33.9688" rx="12.5" ry="12.5" style="stroke:#181818;stroke-width:0.5;" width="103" x="228.5" y="329.7969"/><text fill="#000000" font-family="Ubuntu Light" font-size="12" font-weight="bold" lengthAdjust="spacing" textLength="83" x="238.5" y="350.9355">In progress</text><g id="elem_GMN18"><path d="M6,318.2969 L6,374.8594 A0,0 0 0 0 6,374.8594 L208,374.8594 A0,0 0 0 0 208,374.8594 L208,350.7969 L228.271,346.7969 L208,342.7969 L208,328.2969 L198,318.2969 L6,318.2969 A0,0 0 0 0 6,318.2969 " fill="#F0F8FF" style="stroke:#181818;stroke-width:0.5;"/><path d="M198,318.2969 L198,328.2969 L208,328.2969 L198,318.2969 " fill="#F0F8FF" style="stroke:#181818;stroke-width:0.5;"/><text fill="#000000" font-family="Ubuntu Light" font-size="10" lengthAdjust="spacing" textLength="175" x="12" y="332.5791">The presentation and additional</text><text fill="#000000" font-family="Ubuntu Light" font-size="10" lengthAdjust="spacing" textLength="154" x="12" y="344.2197">artifacts (code) is created by</text><text fill="#000000" font-family="Ubuntu Light" font-size="10" lengthAdjust="spacing" textLength="152" x="12" y="355.8604">the trainer, and reviewed by</text><text fill="#000000" font-family="Ubuntu Light" font-size="10" lengthAdjust="spacing" textLength="181" x="12" y="367.501">at least one of the staff members</text></g><rect fill="#B0E0E6" height="33.9688" rx="12.5" ry="12.5" style="stroke:#181818;stroke-width:0.5;" width="95" x="232.5" y="434.7969"/><text fill="#000000" font-family="Ubuntu Light" font-size="12" font-weight="bold" lengthAdjust="spacing" textLength="75" x="242.5" y="455.9355">Scheduled</text><g id="elem_GMN23"><path d="M347.5,429.2969 L347.5,447.7969 L327.529,451.7969 L347.5,455.7969 L347.5,474.2188 A0,0 0 0 0 347.5,474.2188 L522.5,474.2188 A0,0 0 0 0 522.5,474.2188 L522.5,439.2969 L512.5,429.2969 L347.5,429.2969 A0,0 0 0 0 347.5,429.2969 " fill="#F0F8FF" style="stroke:#181818;stroke-width:0.5;"/><path d="M512.5,429.2969 L512.5,439.2969 L522.5,439.2969 L512.5,429.2969 " fill="#F0F8FF" style="stroke:#181818;stroke-width:0.5;"/><text fill="#000000" font-family="Ubuntu Light" font-size="10" lengthAdjust="spacing" textLength="142" x="353.5" y="443.5791">An event is created on the</text><text fill="#000000" font-family="Ubuntu Light" font-size="10" lengthAdjust="spacing" textLength="154" x="353.5" y="455.2197">WeAreCommunity page and</text><text fill="#000000" font-family="Ubuntu Light" font-size="10" lengthAdjust="spacing" textLength="121" x="353.5" y="466.8604">registration is enabled</text></g><rect fill="#B0E0E6" height="33.9688" rx="12.5" ry="12.5" style="stroke:#181818;stroke-width:0.5;" width="98" x="231" y="571.2969"/><text fill="#000000" font-family="Ubuntu Light" font-size="12" font-weight="bold" lengthAdjust="spacing" textLength="78" x="241" y="592.4355">Conducted</text><g id="elem_GMN28"><path d="M19.5,554.2969 L19.5,622.5 A0,0 0 0 0 19.5,622.5 L210.5,622.5 A0,0 0 0 0 210.5,622.5 L210.5,592.2969 L230.741,588.2969 L210.5,584.2969 L210.5,564.2969 L200.5,554.2969 L19.5,554.2969 A0,0 0 0 0 19.5,554.2969 " fill="#F0F8FF" style="stroke:#181818;stroke-width:0.5;"/><path d="M200.5,554.2969 L200.5,564.2969 L210.5,564.2969 L200.5,554.2969 " fill="#F0F8FF" style="stroke:#181818;stroke-width:0.5;"/><text fill="#000000" font-family="Ubuntu Light" font-size="10" lengthAdjust="spacing" textLength="153" x="25.5" y="568.5791">The webinar is conducted at</text><text fill="#000000" font-family="Ubuntu Light" font-size="10" lengthAdjust="spacing" textLength="147" x="25.5" y="580.2197">the given date/time, all the</text><text fill="#000000" font-family="Ubuntu Light" font-size="10" lengthAdjust="spacing" textLength="170" x="25.5" y="591.8604">questions answered or followed</text><text fill="#000000" font-family="Ubuntu Light" font-size="10" lengthAdjust="spacing" textLength="150" x="25.5" y="603.501">up, the recording and slides</text><text fill="#000000" font-family="Ubuntu Light" font-size="10" lengthAdjust="spacing" textLength="71" x="25.5" y="615.1416">are available</text></g><g id="elem_#31"><polygon fill="#B0E0E6" points="280,673.7969,292,685.7969,280,697.7969,268,685.7969,280,673.7969" style="stroke:#181818;stroke-width:0.5;"/></g><rect fill="#B0E0E6" height="33.9688" rx="12.5" ry="12.5" style="stroke:#181818;stroke-width:0.5;" width="102" x="347" y="668.7969"/><text fill="#000000" font-family="Ubuntu Light" font-size="12" font-weight="bold" lengthAdjust="spacing" textLength="82" x="357" y="689.9355">In summary</text><g id="elem_GMN36"><path d="M469,663.2969 L469,681.7969 L449.133,685.7969 L469,689.7969 L469,708.2188 A0,0 0 0 0 469,708.2188 L635,708.2188 A0,0 0 0 0 635,708.2188 L635,673.2969 L625,663.2969 L469,663.2969 A0,0 0 0 0 469,663.2969 " fill="#F0F8FF" style="stroke:#181818;stroke-width:0.5;"/><path d="M625,663.2969 L625,673.2969 L635,673.2969 L625,663.2969 " fill="#F0F8FF" style="stroke:#181818;stroke-width:0.5;"/><text fill="#000000" font-family="Ubuntu Light" font-size="10" lengthAdjust="spacing" textLength="145" x="475" y="677.5791">An article is created on the</text><text fill="#000000" font-family="Ubuntu Light" font-size="10" lengthAdjust="spacing" textLength="133" x="475" y="689.2197">WeAreCommunity page,</text><text fill="#000000" font-family="Ubuntu Light" font-size="10" lengthAdjust="spacing" textLength="141" x="475" y="700.8604">summarizing the webinar.</text></g><rect fill="#B0E0E6" height="33.9688" rx="12.5" ry="12.5" style="stroke:#181818;stroke-width:0.5;" width="57" x="310.5" y="779.2969"/><text fill="#000000" font-family="Ubuntu Light" font-size="12" font-weight="bold" lengthAdjust="spacing" textLength="37" x="320.5" y="800.4355">Done</text><g id="elem_GMN42"><path d="M113.5,762.2969 L113.5,830.5 A0,0 0 0 0 113.5,830.5 L290.5,830.5 A0,0 0 0 0 290.5,830.5 L290.5,800.2969 L310.244,796.2969 L290.5,792.2969 L290.5,772.2969 L280.5,762.2969 L113.5,762.2969 A0,0 0 0 0 113.5,762.2969 " fill="#F0F8FF" style="stroke:#181818;stroke-width:0.5;"/><path d="M280.5,762.2969 L280.5,772.2969 L290.5,772.2969 L280.5,762.2969 " fill="#F0F8FF" style="stroke:#181818;stroke-width:0.5;"/><text fill="#000000" font-family="Ubuntu Light" font-size="10" lengthAdjust="spacing" textLength="156" x="119.5" y="776.5791">The recording is uploaded to</text><text fill="#000000" font-family="Ubuntu Light" font-size="10" lengthAdjust="spacing" textLength="133" x="119.5" y="788.2197">VideoPortal and the talk,</text><text fill="#000000" font-family="Ubuntu Light" font-size="10" lengthAdjust="spacing" textLength="156" x="119.5" y="799.8604">alongside with the slides and</text><text fill="#000000" font-family="Ubuntu Light" font-size="10" lengthAdjust="spacing" textLength="123" x="119.5" y="811.501">link to the source code</text><text fill="#000000" font-family="Ubuntu Light" font-size="10" lengthAdjust="spacing" textLength="60" x="119.5" y="823.1416">(if created)</text></g><ellipse cx="339" cy="893.7969" fill="none" rx="10" ry="10" style="stroke:#228B22;stroke-width:1.0;"/><ellipse cx="339.5" cy="894.2969" fill="#228B22" rx="6" ry="6" style="stroke:none;stroke-width:1.0;"/><g id="elem_GMN47"><path d="M369,871.2969 L369,889.7969 L349.045,893.7969 L369,897.7969 L369,916.2188 A0,0 0 0 0 369,916.2188 L587,916.2188 A0,0 0 0 0 587,916.2188 L587,881.2969 L577,871.2969 L369,871.2969 A0,0 0 0 0 369,871.2969 " fill="#F0F8FF" style="stroke:#181818;stroke-width:0.5;"/><path d="M577,871.2969 L577,881.2969 L587,881.2969 L577,871.2969 " fill="#F0F8FF" style="stroke:#181818;stroke-width:0.5;"/><text fill="#000000" font-family="Ubuntu Light" font-size="10" lengthAdjust="spacing" textLength="129" x="375" y="885.5791">We collect statistics and</text><text fill="#000000" font-family="Ubuntu Light" font-size="10" lengthAdjust="spacing" textLength="156" x="375" y="897.2197">feedback about the webinar:</text><text fill="#000000" font-family="Ubuntu Light" font-size="10" lengthAdjust="spacing" textLength="197" x="375" y="908.8604">views, questions, speaker badge, etc</text></g><!--link start to Draft--><g id="link_start_Draft"><path d="M280,64.4739 C280,76.4209 280,97.6759 280,113.7929 " fill="none" id="start-to-Draft" style="stroke:#4682B4;stroke-width:1.0;"/><polygon fill="#4682B4" points="280,119.0419,284,110.0419,280,114.0419,276,110.0419,280,119.0419" style="stroke:#4682B4;stroke-width:1.0;"/><text fill="#4682B4" font-family="Ubuntu Light" font-size="11" lengthAdjust="spacing" textLength="65" x="281" y="96.5073">Submission</text></g><!--link Draft to Ready--><g id="link_Draft_Ready"><path d="M280,153.3969 C280,169.7689 280,195.2319 280,213.3159 " fill="none" id="Draft-to-Ready" style="stroke:#4682B4;stroke-width:1.0;"/><polygon fill="#4682B4" points="280,218.6729,284,209.6729,280,213.6729,276,209.6729,280,218.6729" style="stroke:#4682B4;stroke-width:1.0;"/><text fill="#4682B4" font-family="Ubuntu Light" font-size="11" lengthAdjust="spacing" textLength="66" x="281" y="184.5073">Clarification</text></g><!--link Ready to In progress--><g id="link_Ready_In progress"><path d="M280,252.8799 C280,271.8789 280,303.5489 280,324.5519 " fill="none" id="Ready-to-In progress" style="stroke:#4682B4;stroke-width:1.0;stroke-dasharray:1.0,3.0;"/><polygon fill="#4682B4" points="280,329.6479,284,320.6479,280,324.6479,276,320.6479,280,329.6479" style="stroke:#4682B4;stroke-width:1.0;"/><text fill="#4682B4" font-family="Ubuntu Light" font-size="11" lengthAdjust="spacing" textLength="90" x="281" y="295.5073">Milestone starts</text></g><!--link In progress to Scheduled--><g id="link_In progress_Scheduled"><path d="M280,363.8909 C280,381.4749 280,409.7319 280,429.2259 " fill="none" id="In progress-to-Scheduled" style="stroke:#4682B4;stroke-width:1.0;"/><polygon fill="#4682B4" points="280,434.4759,284,425.4759,280,429.4759,276,425.4759,280,434.4759" style="stroke:#4682B4;stroke-width:1.0;"/><text fill="#4682B4" font-family="Ubuntu Light" font-size="11" lengthAdjust="spacing" textLength="72" x="281" y="406.5073">Organization</text></g><!--link Scheduled to Conducted--><g id="link_Scheduled_Conducted"><path d="M280,469.0209 C280,493.2569 280,538.9409 280,565.8879 " fill="none" id="Scheduled-to-Conducted" style="stroke:#4682B4;stroke-width:1.0;stroke-dasharray:1.0,3.0;"/><polygon fill="#4682B4" points="280,571.0159,284,562.0159,280,566.0159,276,562.0159,280,571.0159" style="stroke:#4682B4;stroke-width:1.0;"/><text fill="#4682B4" font-family="Ubuntu Light" font-size="11" lengthAdjust="spacing" textLength="71" x="281" y="505.5073">The webinar</text><text fill="#4682B4" font-family="Ubuntu Light" font-size="11" font-weight="bold" lengthAdjust="spacing" textLength="31" x="301" y="518.312">date</text><text fill="#4682B4" font-family="Ubuntu Light" font-size="11" lengthAdjust="spacing" textLength="39" x="297" y="531.1167">arrives</text></g><!--link Conducted to #31--><g id="link_Conducted_#31"><path d="M280,605.4969 C280,623.0519 280,650.9039 280,668.4969 " fill="none" id="Conducted-to-#31" style="stroke:#4682B4;stroke-width:1.0;"/><polygon fill="#4682B4" points="280,673.6049,284,664.6049,280,668.6049,276,664.6049,280,673.6049" style="stroke:#4682B4;stroke-width:1.0;"/><text fill="#4682B4" font-family="Ubuntu Light" font-size="11" lengthAdjust="spacing" textLength="162" x="98.2563" y="667.4791">Summary article is needed?</text></g><!--link #31 to In summary--><g id="link_#31_In summary"><path d="M292.184,685.7969 C304.079,685.7969 323.06,685.7969 341.683,685.7969 " fill="none" id="#31-to-In summary" style="stroke:#4682B4;stroke-width:1.0;"/><polygon fill="#4682B4" points="346.92,685.7969,337.92,681.7969,341.92,685.7969,337.92,689.7969,346.92,685.7969" style="stroke:#4682B4;stroke-width:1.0;"/><text fill="#4682B4" font-family="Ubuntu Light" font-size="11" lengthAdjust="spacing" textLength="21" x="309" y="680.0073">Yes</text></g><!--link In summary to Done--><g id="link_In summary_Done"><path d="M394.342,702.9319 C391.387,714.3349 386.624,729.7579 380,742.2969 C373.819,753.9969 365.036,765.7639 357.184,775.2279 " fill="none" id="In summary-to-Done" style="stroke:#4682B4;stroke-width:1.0;"/><polygon fill="#4682B4" points="353.886,779.1359,362.747,774.8367,357.1103,775.3144,356.6326,769.6777,353.886,779.1359" style="stroke:#4682B4;stroke-width:1.0;"/><text fill="#4682B4" font-family="Ubuntu Light" font-size="11" lengthAdjust="spacing" textLength="81" x="386" y="739.5073">Administration</text></g><!--link #31 to Done--><g id="link_#31_Done"><path d="M275.839,694.1059 C270.125,705.1999 261.474,726.6499 270,742.2969 C277.845,756.6949 287.888,752.4519 301,762.2969 C306.457,766.3939 312.12,771.0619 317.357,775.5719 " fill="none" id="#31-to-Done" style="stroke:#4682B4;stroke-width:1.0;"/><polygon fill="#4682B4" points="321.268,778.9779,317.1058,770.0517,317.4966,775.6951,311.8533,776.0859,321.268,778.9779" style="stroke:#4682B4;stroke-width:1.0;"/><text fill="#4682B4" font-family="Ubuntu Light" font-size="11" lengthAdjust="spacing" textLength="103" x="271" y="739.5073">No, Administration</text></g><!--link Done to end--><g id="link_Done_end"><path d="M339,813.4969 C339,831.6654 339,860.8636 339,878.3037 " fill="none" id="Done-to-end" style="stroke:#4682B4;stroke-width:1.0;stroke-dasharray:1.0,3.0;"/><polygon fill="#4682B4" points="339,883.7345,343,874.7345,339,878.7345,335,874.7345,339,883.7345" style="stroke:#4682B4;stroke-width:1.0;"/></g><!--SRC=[TLLDRzim3BtdLn0zjK7QRTSTEgJTEWpOHx5iAuPk1rcYNI6ov55KWdJOVnybfuwJjZd59ldu-1wPi6M7S8ELzOhWAb2h6AufQ8nnCebBwpj5gWM3jKgEhuBdpwf5-5ubpma-skQEHscLqik6GlBcChX0mAHyb11w7gCfpNPbUGD_9o2VYuEgwx0sI1SkOGalM17t4I68aTyJeY-XTmybXu5CTC4RcQqApap-xNKd2kjjwxvwmOXkw9Th3z_l0VZ0-0prkRCQzv0MzXxXrSkCKEgeI9QZS-3GMIryRCG9UbE09vFZwGcSdfxVBbBLsXXjyB_XBQcQjmWEwos0Xmy65HnBLi8Ji14qeM8q8xICTEcaHssruWBs5PNPFABpxGx1PhWCur3H35XUYONM8vKKYKY6Py52CmCbJNXNLL8wfxn7UH-WaeZNBXbvjBqjoaFgT6YjRw2rJYmBVZpwsTdvxQU7zn2pyV4tVF3GKMYexEI-19bq9m4XLOOhd9GnDZyerpSb8Imh5-5O1xEd4rIRaZ8Qj1-BS6LnlKkGgn198aFc5UfI8FJg6bfiAwHueFWNQfItzrl15_eEJNBYowCTy80h8J_c95C8V0dVu9pmChHjylbSEjLWfbTYX8sDGhgCBUNeLUNshCzgPe7M_Nd_yjEfaGxJwIzv8hj2qVOoU9Cq3zJsbDqM5d8FUIB585aZ61uovWksBOfqpWtS_oInKRX5OHpNI7aoWZeu5qJOafAwViS8TI2Jbo9h7vqiLDnQ9_Ekb7LvjD5ajeQZHMfRHPjYh-nh9kaHPTdU76NGVk5EYzHYo4_i5odsLPCIFJ1ZQyW8y0bBdh5bDWJx3lO-ZyCx4SzAmcw4maw8pOrSms2aN7gv21TnoFWSPl1qbZUsVigtdPuoG-fSKAQSP4du8Ug6wq2it731ydtPJw1Sy4sK55XRlkltlFWnx9spVfdFkuH28esGpwh4ZiMOhMOd-ui8yglsQFjlSgbpg3aV4yjyLkyQrU9c_aC1LON4OorVbtY-q3ZRxTaCOeTgYIH_GqOS0MGzaFWF]--></g></svg>