<?xml version="1.0" encoding="us-ascii" standalone="no"?><svg xmlns="http://www.w3.org/2000/svg" xmlns:xlink="http://www.w3.org/1999/xlink" contentStyleType="text/css" height="825px" preserveAspectRatio="none" style="width:529px;height:825px;" version="1.1" viewBox="0 0 529 825" width="529px" zoomAndPan="magnify"><defs/><g><g id="elem_GMN2"><path d="M310.5,6 L310.5,13 L290.117,17 L310.5,21 L310.5,27.6406 A0,0 0 0 0 310.5,27.6406 L397.5,27.6406 A0,0 0 0 0 397.5,27.6406 L397.5,16 L387.5,6 L310.5,6 A0,0 0 0 0 310.5,6 " fill="#F0F8FF" style="stroke:#181818;stroke-width:0.5;"/><path d="M387.5,6 L387.5,16 L397.5,16 L387.5,6 " fill="#F0F8FF" style="stroke:#181818;stroke-width:0.5;"/><text fill="#000000" font-family="Ubuntu Light" font-size="10" lengthAdjust="spacing" textLength="66" x="316.5" y="20.2822">A topic arise</text></g><ellipse cx="280" cy="17" fill="#222222" rx="10" ry="10" style="stroke:none;stroke-width:1.0;"/><rect fill="#B0E0E6" height="33.9688" rx="12.5" ry="12.5" style="stroke:#181818;stroke-width:0.5;" width="60" x="250" y="82"/><text fill="#000000" font-family="Ubuntu Light" font-size="12" font-weight="bold" lengthAdjust="spacing" textLength="40" x="260" y="103.1387">Draft</text><g id="elem_GMN8"><path d="M74,88 L74,109.6406 A0,0 0 0 0 74,109.6406 L230,109.6406 A0,0 0 0 0 230,109.6406 L230,106 L249.836,99 L230,98 L230,98 L220,88 L74,88 A0,0 0 0 0 74,88 " fill="#F0F8FF" style="stroke:#181818;stroke-width:0.5;"/><path d="M220,88 L220,98 L230,98 L220,88 " fill="#F0F8FF" style="stroke:#181818;stroke-width:0.5;"/><text fill="#000000" font-family="Ubuntu Light" font-size="10" lengthAdjust="spacing" textLength="135" x="80" y="102.2822">An Idea (issue) is created</text></g><rect fill="#B0E0E6" height="33.9688" rx="12.5" ry="12.5" style="stroke:#181818;stroke-width:0.5;" width="64" x="248" y="181.5"/><text fill="#000000" font-family="Ubuntu Light" font-size="12" font-weight="bold" lengthAdjust="spacing" textLength="44" x="258" y="202.6387">Ready</text><g id="elem_GMN13"><path d="M332.5,170 L332.5,194.5 L312.035,198.5 L332.5,202.5 L332.5,226.5625 A0,0 0 0 0 332.5,226.5625 L505.5,226.5625 A0,0 0 0 0 505.5,226.5625 L505.5,180 L495.5,170 L332.5,170 A0,0 0 0 0 332.5,170 " fill="#F0F8FF" style="stroke:#181818;stroke-width:0.5;"/><path d="M495.5,170 L495.5,180 L505.5,180 L495.5,170 " fill="#F0F8FF" style="stroke:#181818;stroke-width:0.5;"/><text fill="#000000" font-family="Ubuntu Light" font-size="10" lengthAdjust="spacing" textLength="152" x="338.5" y="184.2822">The idea is clear, the trainer</text><text fill="#000000" font-family="Ubuntu Light" font-size="10" lengthAdjust="spacing" textLength="149" x="338.5" y="195.9229">is identified, and the idea is</text><text fill="#000000" font-family="Ubuntu Light" font-size="10" lengthAdjust="spacing" textLength="139" x="338.5" y="207.5635">planned to be included in</text><text fill="#000000" font-family="Ubuntu Light" font-size="10" lengthAdjust="spacing" textLength="144" x="338.5" y="219.2041">an upcoming sprint/month</text></g><rect fill="#B0E0E6" height="33.9688" rx="12.5" ry="12.5" style="stroke:#181818;stroke-width:0.5;" width="103" x="228.5" y="318.5"/><text fill="#000000" font-family="Ubuntu Light" font-size="12" font-weight="bold" lengthAdjust="spacing" textLength="83" x="238.5" y="339.6387">In progress</text><g id="elem_GMN18"><path d="M6,307 L6,363.5625 A0,0 0 0 0 6,363.5625 L208,363.5625 A0,0 0 0 0 208,363.5625 L208,339.5 L228.271,335.5 L208,331.5 L208,317 L198,307 L6,307 A0,0 0 0 0 6,307 " fill="#F0F8FF" style="stroke:#181818;stroke-width:0.5;"/><path d="M198,307 L198,317 L208,317 L198,307 " fill="#F0F8FF" style="stroke:#181818;stroke-width:0.5;"/><text fill="#000000" font-family="Ubuntu Light" font-size="10" lengthAdjust="spacing" textLength="175" x="12" y="321.2822">The presentation and additional</text><text fill="#000000" font-family="Ubuntu Light" font-size="10" lengthAdjust="spacing" textLength="154" x="12" y="332.9229">artifacts (code) is created by</text><text fill="#000000" font-family="Ubuntu Light" font-size="10" lengthAdjust="spacing" textLength="152" x="12" y="344.5635">the trainer, and reviewed by</text><text fill="#000000" font-family="Ubuntu Light" font-size="10" lengthAdjust="spacing" textLength="181" x="12" y="356.2041">at least one of the staff members</text></g><rect fill="#B0E0E6" height="33.9688" rx="12.5" ry="12.5" style="stroke:#181818;stroke-width:0.5;" width="95" x="232.5" y="423.5"/><text fill="#000000" font-family="Ubuntu Light" font-size="12" font-weight="bold" lengthAdjust="spacing" textLength="75" x="242.5" y="444.6387">Scheduled</text><g id="elem_GMN23"><path d="M347.5,418 L347.5,436.5 L327.529,440.5 L347.5,444.5 L347.5,462.9219 A0,0 0 0 0 347.5,462.9219 L522.5,462.9219 A0,0 0 0 0 522.5,462.9219 L522.5,428 L512.5,418 L347.5,418 A0,0 0 0 0 347.5,418 " fill="#F0F8FF" style="stroke:#181818;stroke-width:0.5;"/><path d="M512.5,418 L512.5,428 L522.5,428 L512.5,418 " fill="#F0F8FF" style="stroke:#181818;stroke-width:0.5;"/><text fill="#000000" font-family="Ubuntu Light" font-size="10" lengthAdjust="spacing" textLength="142" x="353.5" y="432.2822">An event is created on the</text><text fill="#000000" font-family="Ubuntu Light" font-size="10" lengthAdjust="spacing" textLength="154" x="353.5" y="443.9229">WeAreCommunity page and</text><text fill="#000000" font-family="Ubuntu Light" font-size="10" lengthAdjust="spacing" textLength="121" x="353.5" y="455.5635">registration is enabled</text></g><rect fill="#B0E0E6" height="33.9688" rx="12.5" ry="12.5" style="stroke:#181818;stroke-width:0.5;" width="98" x="231" y="560"/><text fill="#000000" font-family="Ubuntu Light" font-size="12" font-weight="bold" lengthAdjust="spacing" textLength="78" x="241" y="581.1387">Conducted</text><g id="elem_GMN28"><path d="M19.5,543 L19.5,611.2031 A0,0 0 0 0 19.5,611.2031 L210.5,611.2031 A0,0 0 0 0 210.5,611.2031 L210.5,581 L230.741,577 L210.5,573 L210.5,553 L200.5,543 L19.5,543 A0,0 0 0 0 19.5,543 " fill="#F0F8FF" style="stroke:#181818;stroke-width:0.5;"/><path d="M200.5,543 L200.5,553 L210.5,553 L200.5,543 " fill="#F0F8FF" style="stroke:#181818;stroke-width:0.5;"/><text fill="#000000" font-family="Ubuntu Light" font-size="10" lengthAdjust="spacing" textLength="153" x="25.5" y="557.2822">The webinar is conducted at</text><text fill="#000000" font-family="Ubuntu Light" font-size="10" lengthAdjust="spacing" textLength="147" x="25.5" y="568.9229">the given date/time, all the</text><text fill="#000000" font-family="Ubuntu Light" font-size="10" lengthAdjust="spacing" textLength="170" x="25.5" y="580.5635">questions answered or followed</text><text fill="#000000" font-family="Ubuntu Light" font-size="10" lengthAdjust="spacing" textLength="150" x="25.5" y="592.2041">up, the recording and slides</text><text fill="#000000" font-family="Ubuntu Light" font-size="10" lengthAdjust="spacing" textLength="71" x="25.5" y="603.8447">are available</text></g><rect fill="#B0E0E6" height="33.9688" rx="12.5" ry="12.5" style="stroke:#181818;stroke-width:0.5;" width="57" x="251.5" y="682"/><text fill="#000000" font-family="Ubuntu Light" font-size="12" font-weight="bold" lengthAdjust="spacing" textLength="37" x="261.5" y="703.1387">Done</text><g id="elem_GMN33"><path d="M328.5,665 L328.5,695 L308.631,699 L328.5,703 L328.5,733.2031 A0,0 0 0 0 328.5,733.2031 L505.5,733.2031 A0,0 0 0 0 505.5,733.2031 L505.5,675 L495.5,665 L328.5,665 A0,0 0 0 0 328.5,665 " fill="#F0F8FF" style="stroke:#181818;stroke-width:0.5;"/><path d="M495.5,665 L495.5,675 L505.5,675 L495.5,665 " fill="#F0F8FF" style="stroke:#181818;stroke-width:0.5;"/><text fill="#000000" font-family="Ubuntu Light" font-size="10" lengthAdjust="spacing" textLength="156" x="334.5" y="679.2822">The recording is uploaded to</text><text fill="#000000" font-family="Ubuntu Light" font-size="10" lengthAdjust="spacing" textLength="133" x="334.5" y="690.9229">VideoPortal and the talk,</text><text fill="#000000" font-family="Ubuntu Light" font-size="10" lengthAdjust="spacing" textLength="156" x="334.5" y="702.5635">alongside with the slides and</text><text fill="#000000" font-family="Ubuntu Light" font-size="10" lengthAdjust="spacing" textLength="123" x="334.5" y="714.2041">link to the source code</text><text fill="#000000" font-family="Ubuntu Light" font-size="10" lengthAdjust="spacing" textLength="60" x="334.5" y="725.8447">(if created)</text></g><ellipse cx="280" cy="796.5" fill="none" rx="10" ry="10" style="stroke:#228B22;stroke-width:1.0;"/><ellipse cx="280.5" cy="797" fill="#228B22" rx="6" ry="6" style="stroke:none;stroke-width:1.0;"/><g id="elem_GMN38"><path d="M32,774 L32,818.9219 A0,0 0 0 0 32,818.9219 L250,818.9219 A0,0 0 0 0 250,818.9219 L250,800.5 L269.734,796.5 L250,792.5 L250,784 L240,774 L32,774 A0,0 0 0 0 32,774 " fill="#F0F8FF" style="stroke:#181818;stroke-width:0.5;"/><path d="M240,774 L240,784 L250,784 L240,774 " fill="#F0F8FF" style="stroke:#181818;stroke-width:0.5;"/><text fill="#000000" font-family="Ubuntu Light" font-size="10" lengthAdjust="spacing" textLength="129" x="38" y="788.2822">We collect statistics and</text><text fill="#000000" font-family="Ubuntu Light" font-size="10" lengthAdjust="spacing" textLength="156" x="38" y="799.9229">feedback about the webinar:</text><text fill="#000000" font-family="Ubuntu Light" font-size="10" lengthAdjust="spacing" textLength="197" x="38" y="811.5635">views, questions, speaker badge, etc</text></g><!--link start to Draft--><g id="link_start_Draft"><path d="M280,27.177 C280,39.124 280,60.379 280,76.496 " fill="none" id="start-to-Draft" style="stroke:#4682B4;stroke-width:1.0;"/><polygon fill="#4682B4" points="280,81.745,284,72.745,280,76.745,276,72.745,280,81.745" style="stroke:#4682B4;stroke-width:1.0;"/><text fill="#4682B4" font-family="Ubuntu Light" font-size="11" lengthAdjust="spacing" textLength="65" x="281" y="59.2104">Submission</text></g><!--link Draft to Ready--><g id="link_Draft_Ready"><path d="M280,116.1 C280,132.472 280,157.935 280,176.019 " fill="none" id="Draft-to-Ready" style="stroke:#4682B4;stroke-width:1.0;"/><polygon fill="#4682B4" points="280,181.376,284,172.376,280,176.376,276,172.376,280,181.376" style="stroke:#4682B4;stroke-width:1.0;"/><text fill="#4682B4" font-family="Ubuntu Light" font-size="11" lengthAdjust="spacing" textLength="66" x="281" y="147.2104">Clarification</text></g><!--link Ready to In progress--><g id="link_Ready_In progress"><path d="M280,215.516 C280,239.744 280,285.756 280,312.915 " fill="none" id="Ready-to-In progress" style="stroke:#4682B4;stroke-width:1.0;stroke-dasharray:1.0,3.0;"/><polygon fill="#4682B4" points="280,318.083,284,309.083,280,313.083,276,309.083,280,318.083" style="stroke:#4682B4;stroke-width:1.0;"/><text fill="#4682B4" font-family="Ubuntu Light" font-size="11" lengthAdjust="spacing" textLength="58" x="296" y="258.2104">The given</text><text fill="#4682B4" font-family="Ubuntu Light" font-size="11" font-weight="bold" lengthAdjust="spacing" textLength="88" x="281" y="271.0151">sprint/month</text><text fill="#4682B4" font-family="Ubuntu Light" font-size="11" lengthAdjust="spacing" textLength="39" x="305.5" y="283.8198">arrives</text></g><!--link In progress to Scheduled--><g id="link_In progress_Scheduled"><path d="M280,352.594 C280,370.178 280,398.435 280,417.929 " fill="none" id="In progress-to-Scheduled" style="stroke:#4682B4;stroke-width:1.0;"/><polygon fill="#4682B4" points="280,423.179,284,414.179,280,418.179,276,414.179,280,423.179" style="stroke:#4682B4;stroke-width:1.0;"/><text fill="#4682B4" font-family="Ubuntu Light" font-size="11" lengthAdjust="spacing" textLength="72" x="281" y="395.2104">Organization</text></g><!--link Scheduled to Conducted--><g id="link_Scheduled_Conducted"><path d="M280,457.724 C280,481.96 280,527.644 280,554.591 " fill="none" id="Scheduled-to-Conducted" style="stroke:#4682B4;stroke-width:1.0;stroke-dasharray:1.0,3.0;"/><polygon fill="#4682B4" points="280,559.719,284,550.719,280,554.719,276,550.719,280,559.719" style="stroke:#4682B4;stroke-width:1.0;"/><text fill="#4682B4" font-family="Ubuntu Light" font-size="11" lengthAdjust="spacing" textLength="71" x="281" y="494.2104">The webinar</text><text fill="#4682B4" font-family="Ubuntu Light" font-size="11" font-weight="bold" lengthAdjust="spacing" textLength="31" x="301" y="507.0151">date</text><text fill="#4682B4" font-family="Ubuntu Light" font-size="11" lengthAdjust="spacing" textLength="39" x="297" y="519.8198">arrives</text></g><!--link Conducted to Done--><g id="link_Conducted_Done"><path d="M280,594.184 C280,615.476 280,652.956 280,676.58 " fill="none" id="Conducted-to-Done" style="stroke:#4682B4;stroke-width:1.0;"/><polygon fill="#4682B4" points="280,681.689,284,672.689,280,676.689,276,672.689,280,681.689" style="stroke:#4682B4;stroke-width:1.0;"/><text fill="#4682B4" font-family="Ubuntu Light" font-size="11" lengthAdjust="spacing" textLength="81" x="281" y="642.2104">Administration</text></g><!--link Done to end--><g id="link_Done_end"><path d="M280,716.2 C280,734.3685 280,763.5667 280,781.0068 " fill="none" id="Done-to-end" style="stroke:#4682B4;stroke-width:1.0;stroke-dasharray:1.0,3.0;"/><polygon fill="#4682B4" points="280,786.4376,284,777.4376,280,781.4376,276,777.4376,280,786.4376" style="stroke:#4682B4;stroke-width:1.0;"/></g><!--SRC=[TLJBRjim4BpxA_QO64xINdi8uBXD4Q1eWxgFGv83HQvamjHI9PSsdAB_tYLbovRHwYHnNxCpGyMrfKu5rOB1MYN7zvxuiseHlbU9EC4dswnu4eUqIkbr4tmYi_3E1-2WA4e8YISdQKgptLZUmUy9o7DtLlNejmR3dKjOmajMWVl8lGyO-MD0f1BwS2Wv3sIWIzuvXCexC_apcXw2t-v7zzLBHdJ3l5nxVZvgG9xnFz3dpceSTLhQLuItRtA7KXSAPJaw1_QTrOB7HfmWcT9uSZ6zXAkhswTbgbeRe_Nq0k-3ghclTrZlomaU32guaAI4bs0Zw82AqHnxvJuB9mDggnMNLbzHcTqvb6yh19kRvIOELPW1ov78Pmb3IP68P11BApGpK3A2ZrKbfNEA2ENSGoKHqYuP-RIz98eWTTgtbXg8NR34DwtmipgYlRw-VSf86hj1UgRfz3HjEdqcKKv2yGKU2BhW6z4ydh6Iwpiv5wHbuG9K6MFpXt8zaY1RY0SZN6XlHjH1jIif9zltkmRSMDmU4nJBJ1KPF27ukXH4LdKDBROLXZWMuKje5DdNlGPBlKAJd2XrRWa2bDtv597i8CrB-2VE0ovysoRAjwTJ3MPm9HQmiL4WbwMb74bLxjGB1tQtM5bXClDhPC28ruKdapGVW8rOtTSLQ8SqeM6WgwW6kUKDsnQ5DkS6vB-IN4z15WLlt6B8UmMelNDUI2qfgUjD5r3xOB9BCk_HYSFYNZRPTgEioukDwPqRiTMmljmNKULV7Z_sbYrIvxmonQybuOTCyey-i7A3lULzFUkdEqzDb1JOMbxrUXTiWmBEqZfxluHy2XeXswl4Bcnz4FHo90d8TJyZ-sUkSmurPqUnh6NrSKgDQF9l5bJb4vTXUsNUbNYsQPmT2P_9PKErnY0_PzE8BCXwGF0N]--></g></svg>