<?xml version="1.0" encoding="us-ascii" standalone="no"?><svg xmlns="http://www.w3.org/2000/svg" xmlns:xlink="http://www.w3.org/1999/xlink" contentStyleType="text/css" height="906px" preserveAspectRatio="none" style="width:642px;height:906px;" version="1.1" viewBox="0 0 642 906" width="642px" zoomAndPan="magnify"><defs/><g><g id="elem_GMN2"><path d="M310.5,6 L310.5,13 L290.117,17 L310.5,21 L310.5,27.6406 A0,0 0 0 0 310.5,27.6406 L397.5,27.6406 A0,0 0 0 0 397.5,27.6406 L397.5,16 L387.5,6 L310.5,6 A0,0 0 0 0 310.5,6 " fill="#F0F8FF" style="stroke:#181818;stroke-width:0.5;"/><path d="M387.5,6 L387.5,16 L397.5,16 L387.5,6 " fill="#F0F8FF" style="stroke:#181818;stroke-width:0.5;"/><text fill="#000000" font-family="Ubuntu Light" font-size="10" lengthAdjust="spacing" textLength="66" x="316.5" y="20.2822">A topic arise</text></g><ellipse cx="280" cy="17" fill="#222222" rx="10" ry="10" style="stroke:none;stroke-width:1.0;"/><rect fill="#B0E0E6" height="33.9688" rx="12.5" ry="12.5" style="stroke:#181818;stroke-width:0.5;" width="60" x="250" y="82"/><text fill="#000000" font-family="Ubuntu Light" font-size="12" font-weight="bold" lengthAdjust="spacing" textLength="40" x="260" y="103.1387">Draft</text><g id="elem_GMN8"><path d="M74,88 L74,109.6406 A0,0 0 0 0 74,109.6406 L230,109.6406 A0,0 0 0 0 230,109.6406 L230,106 L249.836,99 L230,98 L230,98 L220,88 L74,88 A0,0 0 0 0 74,88 " fill="#F0F8FF" style="stroke:#181818;stroke-width:0.5;"/><path d="M220,88 L220,98 L230,98 L220,88 " fill="#F0F8FF" style="stroke:#181818;stroke-width:0.5;"/><text fill="#000000" font-family="Ubuntu Light" font-size="10" lengthAdjust="spacing" textLength="135" x="80" y="102.2822">An Idea (issue) is created</text></g><rect fill="#B0E0E6" height="33.9688" rx="12.5" ry="12.5" style="stroke:#181818;stroke-width:0.5;" width="64" x="248" y="181.5"/><text fill="#000000" font-family="Ubuntu Light" font-size="12" font-weight="bold" lengthAdjust="spacing" textLength="44" x="258" y="202.6387">Ready</text><g id="elem_GMN13"><path d="M332.5,170 L332.5,194.5 L312.035,198.5 L332.5,202.5 L332.5,226.5625 A0,0 0 0 0 332.5,226.5625 L505.5,226.5625 A0,0 0 0 0 505.5,226.5625 L505.5,180 L495.5,170 L332.5,170 A0,0 0 0 0 332.5,170 " fill="#F0F8FF" style="stroke:#181818;stroke-width:0.5;"/><path d="M495.5,170 L495.5,180 L505.5,180 L495.5,170 " fill="#F0F8FF" style="stroke:#181818;stroke-width:0.5;"/><text fill="#000000" font-family="Ubuntu Light" font-size="10" lengthAdjust="spacing" textLength="152" x="338.5" y="184.2822">The idea is clear, the trainer</text><text fill="#000000" font-family="Ubuntu Light" font-size="10" lengthAdjust="spacing" textLength="149" x="338.5" y="195.9229">is identified, and the idea is</text><text fill="#000000" font-family="Ubuntu Light" font-size="10" lengthAdjust="spacing" textLength="139" x="338.5" y="207.5635">planned to be included in</text><text fill="#000000" font-family="Ubuntu Light" font-size="10" lengthAdjust="spacing" textLength="129" x="338.5" y="219.2041">an upcoming milestone</text></g><rect fill="#B0E0E6" height="33.9688" rx="12.5" ry="12.5" style="stroke:#181818;stroke-width:0.5;" width="103" x="228.5" y="292.5"/><text fill="#000000" font-family="Ubuntu Light" font-size="12" font-weight="bold" lengthAdjust="spacing" textLength="83" x="238.5" y="313.6387">In progress</text><g id="elem_GMN18"><path d="M6,281 L6,337.5625 A0,0 0 0 0 6,337.5625 L208,337.5625 A0,0 0 0 0 208,337.5625 L208,313.5 L228.271,309.5 L208,305.5 L208,291 L198,281 L6,281 A0,0 0 0 0 6,281 " fill="#F0F8FF" style="stroke:#181818;stroke-width:0.5;"/><path d="M198,281 L198,291 L208,291 L198,281 " fill="#F0F8FF" style="stroke:#181818;stroke-width:0.5;"/><text fill="#000000" font-family="Ubuntu Light" font-size="10" lengthAdjust="spacing" textLength="175" x="12" y="295.2822">The presentation and additional</text><text fill="#000000" font-family="Ubuntu Light" font-size="10" lengthAdjust="spacing" textLength="154" x="12" y="306.9229">artifacts (code) is created by</text><text fill="#000000" font-family="Ubuntu Light" font-size="10" lengthAdjust="spacing" textLength="152" x="12" y="318.5635">the trainer, and reviewed by</text><text fill="#000000" font-family="Ubuntu Light" font-size="10" lengthAdjust="spacing" textLength="181" x="12" y="330.2041">at least one of the staff members</text></g><rect fill="#B0E0E6" height="33.9688" rx="12.5" ry="12.5" style="stroke:#181818;stroke-width:0.5;" width="95" x="232.5" y="397.5"/><text fill="#000000" font-family="Ubuntu Light" font-size="12" font-weight="bold" lengthAdjust="spacing" textLength="75" x="242.5" y="418.6387">Scheduled</text><g id="elem_GMN23"><path d="M347.5,392 L347.5,410.5 L327.529,414.5 L347.5,418.5 L347.5,436.9219 A0,0 0 0 0 347.5,436.9219 L522.5,436.9219 A0,0 0 0 0 522.5,436.9219 L522.5,402 L512.5,392 L347.5,392 A0,0 0 0 0 347.5,392 " fill="#F0F8FF" style="stroke:#181818;stroke-width:0.5;"/><path d="M512.5,392 L512.5,402 L522.5,402 L512.5,392 " fill="#F0F8FF" style="stroke:#181818;stroke-width:0.5;"/><text fill="#000000" font-family="Ubuntu Light" font-size="10" lengthAdjust="spacing" textLength="142" x="353.5" y="406.2822">An event is created on the</text><text fill="#000000" font-family="Ubuntu Light" font-size="10" lengthAdjust="spacing" textLength="154" x="353.5" y="417.9229">WeAreCommunity page and</text><text fill="#000000" font-family="Ubuntu Light" font-size="10" lengthAdjust="spacing" textLength="121" x="353.5" y="429.5635">registration is enabled</text></g><rect fill="#B0E0E6" height="33.9688" rx="12.5" ry="12.5" style="stroke:#181818;stroke-width:0.5;" width="98" x="231" y="534"/><text fill="#000000" font-family="Ubuntu Light" font-size="12" font-weight="bold" lengthAdjust="spacing" textLength="78" x="241" y="555.1387">Conducted</text><g id="elem_GMN28"><path d="M19.5,517 L19.5,585.2031 A0,0 0 0 0 19.5,585.2031 L210.5,585.2031 A0,0 0 0 0 210.5,585.2031 L210.5,555 L230.741,551 L210.5,547 L210.5,527 L200.5,517 L19.5,517 A0,0 0 0 0 19.5,517 " fill="#F0F8FF" style="stroke:#181818;stroke-width:0.5;"/><path d="M200.5,517 L200.5,527 L210.5,527 L200.5,517 " fill="#F0F8FF" style="stroke:#181818;stroke-width:0.5;"/><text fill="#000000" font-family="Ubuntu Light" font-size="10" lengthAdjust="spacing" textLength="153" x="25.5" y="531.2822">The webinar is conducted at</text><text fill="#000000" font-family="Ubuntu Light" font-size="10" lengthAdjust="spacing" textLength="147" x="25.5" y="542.9229">the given date/time, all the</text><text fill="#000000" font-family="Ubuntu Light" font-size="10" lengthAdjust="spacing" textLength="170" x="25.5" y="554.5635">questions answered or followed</text><text fill="#000000" font-family="Ubuntu Light" font-size="10" lengthAdjust="spacing" textLength="150" x="25.5" y="566.2041">up, the recording and slides</text><text fill="#000000" font-family="Ubuntu Light" font-size="10" lengthAdjust="spacing" textLength="71" x="25.5" y="577.8447">are available</text></g><g id="elem_#31"><polygon fill="#B0E0E6" points="280,636.5,292,648.5,280,660.5,268,648.5,280,636.5" style="stroke:#181818;stroke-width:0.5;"/></g><rect fill="#B0E0E6" height="33.9688" rx="12.5" ry="12.5" style="stroke:#181818;stroke-width:0.5;" width="102" x="347" y="631.5"/><text fill="#000000" font-family="Ubuntu Light" font-size="12" font-weight="bold" lengthAdjust="spacing" textLength="82" x="357" y="652.6387">In summary</text><g id="elem_GMN36"><path d="M469,626 L469,644.5 L449.133,648.5 L469,652.5 L469,670.9219 A0,0 0 0 0 469,670.9219 L635,670.9219 A0,0 0 0 0 635,670.9219 L635,636 L625,626 L469,626 A0,0 0 0 0 469,626 " fill="#F0F8FF" style="stroke:#181818;stroke-width:0.5;"/><path d="M625,626 L625,636 L635,636 L625,626 " fill="#F0F8FF" style="stroke:#181818;stroke-width:0.5;"/><text fill="#000000" font-family="Ubuntu Light" font-size="10" lengthAdjust="spacing" textLength="145" x="475" y="640.2822">An article is created on the</text><text fill="#000000" font-family="Ubuntu Light" font-size="10" lengthAdjust="spacing" textLength="133" x="475" y="651.9229">WeAreCommunity page,</text><text fill="#000000" font-family="Ubuntu Light" font-size="10" lengthAdjust="spacing" textLength="141" x="475" y="663.5635">summarizing the webinar.</text></g><rect fill="#B0E0E6" height="33.9688" rx="12.5" ry="12.5" style="stroke:#181818;stroke-width:0.5;" width="57" x="310.5" y="742"/><text fill="#000000" font-family="Ubuntu Light" font-size="12" font-weight="bold" lengthAdjust="spacing" textLength="37" x="320.5" y="763.1387">Done</text><g id="elem_GMN42"><path d="M113.5,725 L113.5,793.2031 A0,0 0 0 0 113.5,793.2031 L290.5,793.2031 A0,0 0 0 0 290.5,793.2031 L290.5,763 L310.244,759 L290.5,755 L290.5,735 L280.5,725 L113.5,725 A0,0 0 0 0 113.5,725 " fill="#F0F8FF" style="stroke:#181818;stroke-width:0.5;"/><path d="M280.5,725 L280.5,735 L290.5,735 L280.5,725 " fill="#F0F8FF" style="stroke:#181818;stroke-width:0.5;"/><text fill="#000000" font-family="Ubuntu Light" font-size="10" lengthAdjust="spacing" textLength="156" x="119.5" y="739.2822">The recording is uploaded to</text><text fill="#000000" font-family="Ubuntu Light" font-size="10" lengthAdjust="spacing" textLength="133" x="119.5" y="750.9229">VideoPortal and the talk,</text><text fill="#000000" font-family="Ubuntu Light" font-size="10" lengthAdjust="spacing" textLength="156" x="119.5" y="762.5635">alongside with the slides and</text><text fill="#000000" font-family="Ubuntu Light" font-size="10" lengthAdjust="spacing" textLength="123" x="119.5" y="774.2041">link to the source code</text><text fill="#000000" font-family="Ubuntu Light" font-size="10" lengthAdjust="spacing" textLength="60" x="119.5" y="785.8447">(if created)</text></g><ellipse cx="339" cy="856.5" fill="none" rx="10" ry="10" style="stroke:#228B22;stroke-width:1.0;"/><ellipse cx="339.5" cy="857" fill="#228B22" rx="6" ry="6" style="stroke:none;stroke-width:1.0;"/><g id="elem_GMN47"><path d="M369,834 L369,852.5 L349.045,856.5 L369,860.5 L369,878.9219 A0,0 0 0 0 369,878.9219 L587,878.9219 A0,0 0 0 0 587,878.9219 L587,844 L577,834 L369,834 A0,0 0 0 0 369,834 " fill="#F0F8FF" style="stroke:#181818;stroke-width:0.5;"/><path d="M577,834 L577,844 L587,844 L577,834 " fill="#F0F8FF" style="stroke:#181818;stroke-width:0.5;"/><text fill="#000000" font-family="Ubuntu Light" font-size="10" lengthAdjust="spacing" textLength="129" x="375" y="848.2822">We collect statistics and</text><text fill="#000000" font-family="Ubuntu Light" font-size="10" lengthAdjust="spacing" textLength="156" x="375" y="859.9229">feedback about the webinar:</text><text fill="#000000" font-family="Ubuntu Light" font-size="10" lengthAdjust="spacing" textLength="197" x="375" y="871.5635">views, questions, speaker badge, etc</text></g><!--link start to Draft--><g id="link_start_Draft"><path d="M280,27.177 C280,39.124 280,60.379 280,76.496 " fill="none" id="start-to-Draft" style="stroke:#4682B4;stroke-width:1.0;"/><polygon fill="#4682B4" points="280,81.745,284,72.745,280,76.745,276,72.745,280,81.745" style="stroke:#4682B4;stroke-width:1.0;"/><text fill="#4682B4" font-family="Ubuntu Light" font-size="11" lengthAdjust="spacing" textLength="65" x="281" y="59.2104">Submission</text></g><!--link Draft to Ready--><g id="link_Draft_Ready"><path d="M280,116.1 C280,132.472 280,157.935 280,176.019 " fill="none" id="Draft-to-Ready" style="stroke:#4682B4;stroke-width:1.0;"/><polygon fill="#4682B4" points="280,181.376,284,172.376,280,176.376,276,172.376,280,181.376" style="stroke:#4682B4;stroke-width:1.0;"/><text fill="#4682B4" font-family="Ubuntu Light" font-size="11" lengthAdjust="spacing" textLength="66" x="281" y="147.2104">Clarification</text></g><!--link Ready to In progress--><g id="link_Ready_In progress"><path d="M280,215.583 C280,234.582 280,266.252 280,287.255 " fill="none" id="Ready-to-In progress" style="stroke:#4682B4;stroke-width:1.0;stroke-dasharray:1.0,3.0;"/><polygon fill="#4682B4" points="280,292.351,284,283.351,280,287.351,276,283.351,280,292.351" style="stroke:#4682B4;stroke-width:1.0;"/><text fill="#4682B4" font-family="Ubuntu Light" font-size="11" lengthAdjust="spacing" textLength="90" x="281" y="258.2104">Milestone starts</text></g><!--link In progress to Scheduled--><g id="link_In progress_Scheduled"><path d="M280,326.594 C280,344.178 280,372.435 280,391.929 " fill="none" id="In progress-to-Scheduled" style="stroke:#4682B4;stroke-width:1.0;"/><polygon fill="#4682B4" points="280,397.179,284,388.179,280,392.179,276,388.179,280,397.179" style="stroke:#4682B4;stroke-width:1.0;"/><text fill="#4682B4" font-family="Ubuntu Light" font-size="11" lengthAdjust="spacing" textLength="72" x="281" y="369.2104">Organization</text></g><!--link Scheduled to Conducted--><g id="link_Scheduled_Conducted"><path d="M280,431.724 C280,455.96 280,501.644 280,528.591 " fill="none" id="Scheduled-to-Conducted" style="stroke:#4682B4;stroke-width:1.0;stroke-dasharray:1.0,3.0;"/><polygon fill="#4682B4" points="280,533.719,284,524.719,280,528.719,276,524.719,280,533.719" style="stroke:#4682B4;stroke-width:1.0;"/><text fill="#4682B4" font-family="Ubuntu Light" font-size="11" lengthAdjust="spacing" textLength="71" x="281" y="468.2104">The webinar</text><text fill="#4682B4" font-family="Ubuntu Light" font-size="11" font-weight="bold" lengthAdjust="spacing" textLength="31" x="301" y="481.0151">date</text><text fill="#4682B4" font-family="Ubuntu Light" font-size="11" lengthAdjust="spacing" textLength="39" x="297" y="493.8198">arrives</text></g><!--link Conducted to #31--><g id="link_Conducted_#31"><path d="M280,568.2 C280,585.755 280,613.607 280,631.2 " fill="none" id="Conducted-to-#31" style="stroke:#4682B4;stroke-width:1.0;"/><polygon fill="#4682B4" points="280,636.308,284,627.308,280,631.308,276,627.308,280,636.308" style="stroke:#4682B4;stroke-width:1.0;"/><text fill="#4682B4" font-family="Ubuntu Light" font-size="11" lengthAdjust="spacing" textLength="162" x="98.2563" y="630.1822">Summary article is needed?</text></g><!--link #31 to In summary--><g id="link_#31_In summary"><path d="M292.184,648.5 C304.079,648.5 323.06,648.5 341.683,648.5 " fill="none" id="#31-to-In summary" style="stroke:#4682B4;stroke-width:1.0;"/><polygon fill="#4682B4" points="346.92,648.5,337.92,644.5,341.92,648.5,337.92,652.5,346.92,648.5" style="stroke:#4682B4;stroke-width:1.0;"/><text fill="#4682B4" font-family="Ubuntu Light" font-size="11" lengthAdjust="spacing" textLength="21" x="309" y="642.7104">Yes</text></g><!--link In summary to Done--><g id="link_In summary_Done"><path d="M394.342,665.635 C391.387,677.038 386.624,692.461 380,705 C373.819,716.7 365.036,728.467 357.184,737.931 " fill="none" id="In summary-to-Done" style="stroke:#4682B4;stroke-width:1.0;"/><polygon fill="#4682B4" points="353.886,741.839,362.747,737.5398,357.1103,738.0175,356.6326,732.3809,353.886,741.839" style="stroke:#4682B4;stroke-width:1.0;"/><text fill="#4682B4" font-family="Ubuntu Light" font-size="11" lengthAdjust="spacing" textLength="81" x="386" y="702.2104">Administration</text></g><!--link #31 to Done--><g id="link_#31_Done"><path d="M275.839,656.809 C270.125,667.903 261.474,689.353 270,705 C277.845,719.398 287.888,715.155 301,725 C306.457,729.097 312.12,733.765 317.357,738.275 " fill="none" id="#31-to-Done" style="stroke:#4682B4;stroke-width:1.0;"/><polygon fill="#4682B4" points="321.268,741.681,317.1058,732.7549,317.4966,738.3982,311.8533,738.789,321.268,741.681" style="stroke:#4682B4;stroke-width:1.0;"/><text fill="#4682B4" font-family="Ubuntu Light" font-size="11" lengthAdjust="spacing" textLength="103" x="271" y="702.2104">No, Administration</text></g><!--link Done to end--><g id="link_Done_end"><path d="M339,776.2 C339,794.3685 339,823.5667 339,841.0068 " fill="none" id="Done-to-end" style="stroke:#4682B4;stroke-width:1.0;stroke-dasharray:1.0,3.0;"/><polygon fill="#4682B4" points="339,846.4376,343,837.4376,339,841.4376,335,837.4376,339,846.4376" style="stroke:#4682B4;stroke-width:1.0;"/></g><text fill="#4682B4" font-family="Ubuntu Light" font-size="10" font-style="italic" lengthAdjust="spacing" textLength="172" x="228" y="895.2041">fig. process of the Webinar Format</text><!--SRC=[TLHBRzim3BxxLt0zfK4Uznuw51q6zB07rc75qFP0IxGZH9OyYKwG_lfHSc8xVUHacnJrlPXFnYdRQO8DStkrNYljLaOJjjxRbV9Dqpd3XtNRDNR96sfecQhBN4uVYq9XoyOxg4ozWZPuHJ62hq2wuO5Aup30LnyQvA9mdWc2gJTSWFnkW7rh560maGfo6b93KSpcbx1SNZ_UTsLZOfJfp_0bO7MQOAaw3d1m9t1W9bqTNOA9e08XavvCIvDkhTnH6OMSX_qYr8StS7uBuiGkZx64OP59S43ZAEGMgKY7Ovb5UW4eb_1uAhUq5fqZ-UwXb4elhvQ7N4K7NIkw6bT3Oon5zcvAVRMwVlns-WwHCN1yXZkNbAs3IFjQWWIwbOA0okGo9jJQf1Uq_QL10AFY23FbzPbEK1voouHeJolGpj1-R42MEp4o95n7UmLULK53JKaXlbByHwZHcPUZuFTgGxgpuikR33YWdO2VOX8MCZwN7-WcqEqfXz1YJGbUhWMgJHJGcROS9uUbFRC-gPa4slSvV7BpkPORvlCdUGjcHwBjhNUwKpn0ErFsU323E_M958DajSnma6QksJGaqbaxOF_NYOs2BGhYkAUGc0MelBLUXCqjNTjdB93oGQTG9EsZbK35etN2TuV69ceJPgQ2Y_kkQJ0SihsIrmJI4KdOFb-aeNtWbbbgCUGlzK6A_QaYLr-PSJHaCl0TIpwmPJ4K-nlCIwB3euYht31IoEW4s8sMRHYCb4tF6s4Z3HtV_GBUxtBQLE_vDkef7BhMUjHv9NF37r7N__I1qGuRBC_RdW5Qx-eeBR0tlEbpdlqOScUDswRrpYNV1KMGrYhNPcBCKRFByo22_AkzIVz3EcejAKxBnCBFgF6YIjmiKMq1Iz_nLCkhN4yR6XTZpXOGMy8j1IXHYoD0h0OG_m40]--></g></svg>