<?xml version="1.0" encoding="us-ascii" standalone="no"?><svg xmlns="http://www.w3.org/2000/svg" xmlns:xlink="http://www.w3.org/1999/xlink" contentStyleType="text/css" height="826px" preserveAspectRatio="none" style="width:583px;height:826px;" version="1.1" viewBox="0 0 583 826" width="583px" zoomAndPan="magnify"><defs/><g><g id="elem_GMN2"><path d="M256.1875,6 L256.1875,13 L235.8045,17 L256.1875,21 L256.1875,27.6406 A0,0 0 0 0 256.1875,27.6406 L343.1875,27.6406 A0,0 0 0 0 343.1875,27.6406 L343.1875,16 L333.1875,6 L256.1875,6 A0,0 0 0 0 256.1875,6 " fill="#F0F8FF" style="stroke:#181818;stroke-width:0.5;"/><path d="M333.1875,6 L333.1875,16 L343.1875,16 L333.1875,6 " fill="#F0F8FF" style="stroke:#181818;stroke-width:0.5;"/><text fill="#000000" font-family="Ubuntu Light" font-size="10" lengthAdjust="spacing" textLength="66" x="262.1875" y="20.2822">A topic arise</text></g><ellipse cx="225.6875" cy="17" fill="#222222" rx="10" ry="10" style="stroke:none;stroke-width:1.0;"/><rect fill="#B0E0E6" height="33.9688" rx="12.5" ry="12.5" style="stroke:#181818;stroke-width:0.5;" width="60" x="195.6875" y="82"/><text fill="#000000" font-family="Ubuntu Light" font-size="12" font-weight="bold" lengthAdjust="spacing" textLength="40" x="205.6875" y="103.1387">Draft</text><g id="elem_GMN8"><path d="M19.6875,88 L19.6875,109.6406 A0,0 0 0 0 19.6875,109.6406 L175.6875,109.6406 A0,0 0 0 0 175.6875,109.6406 L175.6875,106 L195.5235,99 L175.6875,98 L175.6875,98 L165.6875,88 L19.6875,88 A0,0 0 0 0 19.6875,88 " fill="#F0F8FF" style="stroke:#181818;stroke-width:0.5;"/><path d="M165.6875,88 L165.6875,98 L175.6875,98 L165.6875,88 " fill="#F0F8FF" style="stroke:#181818;stroke-width:0.5;"/><text fill="#000000" font-family="Ubuntu Light" font-size="10" lengthAdjust="spacing" textLength="135" x="25.6875" y="102.2822">An Idea (issue) is created</text></g><rect fill="#B0E0E6" height="33.9688" rx="12.5" ry="12.5" style="stroke:#181818;stroke-width:0.5;" width="64" x="193.6875" y="181.5"/><text fill="#000000" font-family="Ubuntu Light" font-size="12" font-weight="bold" lengthAdjust="spacing" textLength="44" x="203.6875" y="202.6387">Ready</text><g id="elem_GMN13"><path d="M278.1875,170 L278.1875,194.5 L257.7225,198.5 L278.1875,202.5 L278.1875,226.5625 A0,0 0 0 0 278.1875,226.5625 L451.1875,226.5625 A0,0 0 0 0 451.1875,226.5625 L451.1875,180 L441.1875,170 L278.1875,170 A0,0 0 0 0 278.1875,170 " fill="#F0F8FF" style="stroke:#181818;stroke-width:0.5;"/><path d="M441.1875,170 L441.1875,180 L451.1875,180 L441.1875,170 " fill="#F0F8FF" style="stroke:#181818;stroke-width:0.5;"/><text fill="#000000" font-family="Ubuntu Light" font-size="10" lengthAdjust="spacing" textLength="152" x="284.1875" y="184.2822">The idea is clear, the trainer</text><text fill="#000000" font-family="Ubuntu Light" font-size="10" lengthAdjust="spacing" textLength="149" x="284.1875" y="195.9229">is identified, and the idea is</text><text fill="#000000" font-family="Ubuntu Light" font-size="10" lengthAdjust="spacing" textLength="139" x="284.1875" y="207.5635">planned to be included in</text><text fill="#000000" font-family="Ubuntu Light" font-size="10" lengthAdjust="spacing" textLength="129" x="284.1875" y="219.2041">an upcoming milestone</text></g><rect fill="#B0E0E6" height="33.9688" rx="12.5" ry="12.5" style="stroke:#181818;stroke-width:0.5;" width="103" x="174.1875" y="281"/><text fill="#000000" font-family="Ubuntu Light" font-size="12" font-weight="bold" lengthAdjust="spacing" textLength="83" x="184.1875" y="302.1387">In progress</text><rect fill="#B0E0E6" height="33.9688" rx="12.5" ry="12.5" style="stroke:#181818;stroke-width:0.5;" width="85" x="183.1875" y="369"/><text fill="#000000" font-family="Ubuntu Light" font-size="12" font-weight="bold" lengthAdjust="spacing" textLength="65" x="193.1875" y="390.1387">In review</text><g id="elem_#20"><polygon fill="#B0E0E6" points="225.6875,449,237.6875,461,225.6875,473,213.6875,461,225.6875,449" style="stroke:#181818;stroke-width:0.5;"/></g><rect fill="#B0E0E6" height="33.9688" rx="12.5" ry="12.5" style="stroke:#181818;stroke-width:0.5;" width="72" x="280.6875" y="444"/><text fill="#000000" font-family="Ubuntu Light" font-size="12" font-weight="bold" lengthAdjust="spacing" textLength="52" x="290.6875" y="465.1387">Update</text><g id="elem_GMN25"><path d="M373.1875,444.5 L373.1875,457 L352.7925,461 L373.1875,465 L373.1875,477.7813 A0,0 0 0 0 373.1875,477.7813 L576.1875,477.7813 A0,0 0 0 0 576.1875,477.7813 L576.1875,454.5 L566.1875,444.5 L373.1875,444.5 A0,0 0 0 0 373.1875,444.5 " fill="#F0F8FF" style="stroke:#181818;stroke-width:0.5;"/><path d="M566.1875,444.5 L566.1875,454.5 L576.1875,454.5 L566.1875,444.5 " fill="#F0F8FF" style="stroke:#181818;stroke-width:0.5;"/><text fill="#000000" font-family="Ubuntu Light" font-size="10" lengthAdjust="spacing" textLength="165" x="379.1875" y="458.7822">The author updates the article</text><text fill="#000000" font-family="Ubuntu Light" font-size="10" lengthAdjust="spacing" textLength="182" x="379.1875" y="470.4229">based on the recieved comments</text></g><rect fill="#555555" height="8" style="stroke:none;stroke-width:1.0;" width="80" x="230.6875" y="532"/><rect fill="#B0E0E6" height="33.9688" rx="12.5" ry="12.5" style="stroke:#181818;stroke-width:0.5;" width="90" x="225.6875" y="605.5"/><text fill="#000000" font-family="Ubuntu Light" font-size="12" font-weight="bold" lengthAdjust="spacing" textLength="70" x="235.6875" y="626.6387">Published</text><g id="elem_GMN33"><path d="M32.1875,594 L32.1875,650.5625 A0,0 0 0 0 32.1875,650.5625 L205.1875,650.5625 A0,0 0 0 0 205.1875,650.5625 L205.1875,626.5 L225.5305,622.5 L205.1875,618.5 L205.1875,604 L195.1875,594 L32.1875,594 A0,0 0 0 0 32.1875,594 " fill="#F0F8FF" style="stroke:#181818;stroke-width:0.5;"/><path d="M195.1875,594 L195.1875,604 L205.1875,604 L195.1875,594 " fill="#F0F8FF" style="stroke:#181818;stroke-width:0.5;"/><text fill="#000000" font-family="Ubuntu Light" font-size="10" lengthAdjust="spacing" textLength="103" x="38.1875" y="608.2822">The created article</text><text fill="#000000" font-family="Ubuntu Light" font-size="10" lengthAdjust="spacing" textLength="99" x="38.1875" y="619.9229">is published to the</text><text fill="#000000" font-family="Ubuntu Light" font-size="10" lengthAdjust="spacing" textLength="152" x="38.1875" y="631.5635">WeAreCommunity Idea Pool</text><text fill="#000000" font-family="Ubuntu Light" font-size="10" lengthAdjust="spacing" textLength="70" x="38.1875" y="643.2041">Articles page</text></g><rect fill="#B0E0E6" height="33.9688" rx="12.5" ry="12.5" style="stroke:#181818;stroke-width:0.5;" width="57" x="242.1875" y="705"/><text fill="#000000" font-family="Ubuntu Light" font-size="12" font-weight="bold" lengthAdjust="spacing" textLength="37" x="252.1875" y="726.1387">Done</text><ellipse cx="270.6875" cy="790" fill="none" rx="10" ry="10" style="stroke:#228B22;stroke-width:1.0;"/><ellipse cx="271.1875" cy="790.5" fill="#228B22" rx="6" ry="6" style="stroke:none;stroke-width:1.0;"/><!--link start to Draft--><g id="link_start_Draft"><path d="M225.6875,27.177 C225.6875,39.124 225.6875,60.379 225.6875,76.496 " fill="none" id="start-to-Draft" style="stroke:#4682B4;stroke-width:1.0;"/><polygon fill="#4682B4" points="225.6875,81.745,229.6875,72.745,225.6875,76.745,221.6875,72.745,225.6875,81.745" style="stroke:#4682B4;stroke-width:1.0;"/><text fill="#4682B4" font-family="Ubuntu Light" font-size="11" lengthAdjust="spacing" textLength="65" x="226.6875" y="59.2104">Submission</text></g><!--link Draft to Ready--><g id="link_Draft_Ready"><path d="M225.6875,116.1 C225.6875,132.472 225.6875,157.935 225.6875,176.019 " fill="none" id="Draft-to-Ready" style="stroke:#4682B4;stroke-width:1.0;"/><polygon fill="#4682B4" points="225.6875,181.376,229.6875,172.376,225.6875,176.376,221.6875,172.376,225.6875,181.376" style="stroke:#4682B4;stroke-width:1.0;"/><text fill="#4682B4" font-family="Ubuntu Light" font-size="11" lengthAdjust="spacing" textLength="66" x="226.6875" y="147.2104">Clarification</text></g><!--link Ready to In progress--><g id="link_Ready_In progress"><path d="M225.6875,215.6 C225.6875,231.972 225.6875,257.435 225.6875,275.519 " fill="none" id="Ready-to-In progress" style="stroke:#4682B4;stroke-width:1.0;stroke-dasharray:1.0,3.0;"/><polygon fill="#4682B4" points="225.6875,280.876,229.6875,271.876,225.6875,275.876,221.6875,271.876,225.6875,280.876" style="stroke:#4682B4;stroke-width:1.0;"/><text fill="#4682B4" font-family="Ubuntu Light" font-size="11" lengthAdjust="spacing" textLength="90" x="226.6875" y="258.2104">Milestone starts</text></g><!--link In progress to In review--><g id="link_In progress_In review"><path d="M225.6875,315.176 C225.6875,328.87 225.6875,348.606 225.6875,363.605 " fill="none" id="In progress-to-In review" style="stroke:#4682B4;stroke-width:1.0;"/><polygon fill="#4682B4" points="225.6875,368.897,229.6875,359.897,225.6875,363.897,221.6875,359.897,225.6875,368.897" style="stroke:#4682B4;stroke-width:1.0;"/><text fill="#4682B4" font-family="Ubuntu Light" font-size="11" lengthAdjust="spacing" textLength="128" x="226.6875" y="346.2104">Draft article is created</text></g><!--link In review to #20--><g id="link_In review_#20"><path d="M225.6875,403.201 C225.6875,415.149 225.6875,431.351 225.6875,443.394 " fill="none" id="In review-to-#20" style="stroke:#4682B4;stroke-width:1.0;"/><polygon fill="#4682B4" points="225.6875,448.604,229.6875,439.604,225.6875,443.604,221.6875,439.604,225.6875,448.604" style="stroke:#4682B4;stroke-width:1.0;"/><text fill="#4682B4" font-family="Ubuntu Light" font-size="11" lengthAdjust="spacing" textLength="200" x="6" y="443.2719">Changes requested by reviewer(s)</text></g><!--link #20 to Update--><g id="link_#20_Update"><path d="M237.9605,461 C247.5535,461 261.4805,461 274.9625,461 " fill="none" id="#20-to-Update" style="stroke:#4682B4;stroke-width:1.0;"/><polygon fill="#4682B4" points="280.2965,461,271.2965,457,275.2965,461,271.2965,465,280.2965,461" style="stroke:#4682B4;stroke-width:1.0;"/><text fill="#4682B4" font-family="Ubuntu Light" font-size="11" lengthAdjust="spacing" textLength="21" x="248.6875" y="455.2104">Yes</text></g><!--link Update to B1--><g id="link_Update_B1"><path d="M306.4785,478.201 C296.8445,493.491 282.8185,515.748 275.5155,527.339 " fill="none" id="Update-to-B1" style="stroke:#4682B4;stroke-width:1.0;"/><polygon fill="#4682B4" points="272.8295,531.601,281.012,526.1195,275.4953,527.3709,274.2438,521.8542,272.8295,531.601" style="stroke:#4682B4;stroke-width:1.0;"/></g><!--link #20 to B1--><g id="link_#20_B1"><path d="M230.0025,469 C238.4665,482.73 257.1845,513.095 265.9655,527.34 " fill="none" id="#20-to-B1" style="stroke:#4682B4;stroke-width:1.0;"/><polygon fill="#4682B4" points="268.7145,531.799,267.3953,522.0389,266.0901,527.5431,260.5859,526.2379,268.7145,531.799" style="stroke:#4682B4;stroke-width:1.0;"/><text fill="#4682B4" font-family="Ubuntu Light" font-size="11" lengthAdjust="spacing" textLength="15" x="257.6875" y="509.2104">No</text></g><!--link B1 to Published--><g id="link_B1_Published"><path d="M270.6875,540.209 C270.6875,549.936 270.6875,579.687 270.6875,600.361 " fill="none" id="B1-to-Published" style="stroke:#4682B4;stroke-width:1.0;"/><polygon fill="#4682B4" points="270.6875,605.404,274.6875,596.404,270.6875,600.404,266.6875,596.404,270.6875,605.404" style="stroke:#4682B4;stroke-width:1.0;"/><text fill="#4682B4" font-family="Ubuntu Light" font-size="11" lengthAdjust="spacing" textLength="150" x="271.6875" y="571.2104">Article artifact is approved</text></g><!--link Published to Done--><g id="link_Published_Done"><path d="M270.6875,639.6 C270.6875,655.972 270.6875,681.435 270.6875,699.519 " fill="none" id="Published-to-Done" style="stroke:#4682B4;stroke-width:1.0;"/><polygon fill="#4682B4" points="270.6875,704.8759,274.6875,695.8759,270.6875,699.8759,266.6875,695.8759,270.6875,704.8759" style="stroke:#4682B4;stroke-width:1.0;"/><text fill="#4682B4" font-family="Ubuntu Light" font-size="11" lengthAdjust="spacing" textLength="81" x="271.6875" y="682.2104">Administration</text></g><!--link Done to end--><g id="link_Done_end"><path d="M270.6875,739.3146 C270.6875,750.2368 270.6875,764.4683 270.6875,774.8993 " fill="none" id="Done-to-end" style="stroke:#4682B4;stroke-width:1.0;stroke-dasharray:1.0,3.0;"/><polygon fill="#4682B4" points="270.6875,779.97,274.6875,770.97,270.6875,774.97,266.6875,770.97,270.6875,779.97" style="stroke:#4682B4;stroke-width:1.0;"/></g><text fill="#4682B4" font-family="Ubuntu Light" font-size="10" font-style="italic" lengthAdjust="spacing" textLength="164" x="202.5938" y="815.2822">fig. process of the Article Format</text><!--SRC=[TLDTQzj047pNhrZob9GuD3_00STfIg0DfcuenUHXfLl9IqvtwdqukAN_lNidoNPKuXUZtT7ixEp8lx3fq64BYcgCEjnR4nwn9NWgemaHld2p3OK_m4giNXfder5Bgws3uD1uQP49nGcimYwmDV2d0FabqXw-3aJwLaSwrDTXhmaueERgMEJV1DSVkr3yFMN5Al2EmtwWlPreMTbNHUx0lWxeXh7trf4FdnsHoQrFuolJnb5HQRMQJ7VElWwZtzjcMdz3O6oWTwGlP7jwwqjlGM8OpQovkOBEsOgy1rj3s18iNE1AvCeYBSe9yWoNZvQO5X1invLePqy56PL55CNvXmkOpMuswrYsxBsmFyETmtfaq5GF10OU526S2ohI1R27oX46KYTiYMcfPKRD5OPCzerGxV-JyrqKSw9BD9hGNUOb94Hio6M8T0HXWd2HkWIK8U7uLePq6eqXgLiefMCg7PKySdz2D12xohPi6cXPotcjELtzwkfcytMiWqyXyS_mO9ApZQJ1z_jaDyIttjxZsXdgQCVqMXHSmzboYwOXBxLVKKX5IBaV0EJE_SLPqjzBcsKdXFmdoSYdJc4Ib3eJdqQlC8Qjf2DcfCz638eEi1AzZ9HqfAQZYcadpx9_AoRsVXrtpo9cDp2Vp-7sElqLf3sDzSsZVNxJCuhhteunPsbyBTzXSWGxiMoNB5d5KhFVIYWcyKbB3COTl1pFt8qlfKCczRdnWnQEbY8_clIbv_2jhDLz6diAUHSRcWHmeUJax2LBVGBlqjdbs21P_mS0]--></g></svg>