<?xml version="1.0" encoding="us-ascii" standalone="no"?><svg xmlns="http://www.w3.org/2000/svg" xmlns:xlink="http://www.w3.org/1999/xlink" contentStyleType="text/css" height="712px" preserveAspectRatio="none" style="width:701px;height:712px;" version="1.1" viewBox="0 0 701 712" width="701px" zoomAndPan="magnify"><defs/><g><g id="elem_GMN2"><path d="M310.5,6 L310.5,13 L290.117,17 L310.5,21 L310.5,27.6406 A0,0 0 0 0 310.5,27.6406 L397.5,27.6406 A0,0 0 0 0 397.5,27.6406 L397.5,16 L387.5,6 L310.5,6 A0,0 0 0 0 310.5,6 " fill="#F0F8FF" style="stroke:#181818;stroke-width:0.5;"/><path d="M387.5,6 L387.5,16 L397.5,16 L387.5,6 " fill="#F0F8FF" style="stroke:#181818;stroke-width:0.5;"/><text fill="#000000" font-family="Ubuntu Light" font-size="10" lengthAdjust="spacing" textLength="66" x="316.5" y="20.2822">A topic arise</text></g><ellipse cx="280" cy="17" fill="#222222" rx="10" ry="10" style="stroke:none;stroke-width:1.0;"/><rect fill="#B0E0E6" height="33.9688" rx="12.5" ry="12.5" style="stroke:#181818;stroke-width:0.5;" width="60" x="250" y="82"/><text fill="#000000" font-family="Ubuntu Light" font-size="12" font-weight="bold" lengthAdjust="spacing" textLength="40" x="260" y="103.1387">Draft</text><g id="elem_GMN8"><path d="M74,88 L74,109.6406 A0,0 0 0 0 74,109.6406 L230,109.6406 A0,0 0 0 0 230,109.6406 L230,106 L249.836,99 L230,98 L230,98 L220,88 L74,88 A0,0 0 0 0 74,88 " fill="#F0F8FF" style="stroke:#181818;stroke-width:0.5;"/><path d="M220,88 L220,98 L230,98 L220,88 " fill="#F0F8FF" style="stroke:#181818;stroke-width:0.5;"/><text fill="#000000" font-family="Ubuntu Light" font-size="10" lengthAdjust="spacing" textLength="135" x="80" y="102.2822">An Idea (issue) is created</text></g><rect fill="#B0E0E6" height="33.9688" rx="12.5" ry="12.5" style="stroke:#181818;stroke-width:0.5;" width="64" x="248" y="181.5"/><text fill="#000000" font-family="Ubuntu Light" font-size="12" font-weight="bold" lengthAdjust="spacing" textLength="44" x="258" y="202.6387">Ready</text><g id="elem_GMN13"><path d="M332,170 L332,194.5 L312.266,198.5 L332,202.5 L332,226.5625 A0,0 0 0 0 332,226.5625 L508,226.5625 A0,0 0 0 0 508,226.5625 L508,180 L498,170 L332,170 A0,0 0 0 0 332,170 " fill="#F0F8FF" style="stroke:#181818;stroke-width:0.5;"/><path d="M498,170 L498,180 L508,180 L498,170 " fill="#F0F8FF" style="stroke:#181818;stroke-width:0.5;"/><text fill="#000000" font-family="Ubuntu Light" font-size="10" lengthAdjust="spacing" textLength="155" x="338" y="184.2822">The idea is clear, the creator</text><text fill="#000000" font-family="Ubuntu Light" font-size="10" lengthAdjust="spacing" textLength="149" x="338" y="195.9229">is identified, and the idea is</text><text fill="#000000" font-family="Ubuntu Light" font-size="10" lengthAdjust="spacing" textLength="139" x="338" y="207.5635">planned to be included in</text><text fill="#000000" font-family="Ubuntu Light" font-size="10" lengthAdjust="spacing" textLength="129" x="338" y="219.2041">an upcoming milestone</text></g><rect fill="#B0E0E6" height="33.9688" rx="12.5" ry="12.5" style="stroke:#181818;stroke-width:0.5;" width="103" x="228.5" y="286.5"/><text fill="#000000" font-family="Ubuntu Light" font-size="12" font-weight="bold" lengthAdjust="spacing" textLength="83" x="238.5" y="307.6387">In progress</text><g id="elem_GMN18"><path d="M6,281 L6,325.9219 A0,0 0 0 0 6,325.9219 L208,325.9219 A0,0 0 0 0 208,325.9219 L208,307.5 L228.271,303.5 L208,299.5 L208,291 L198,281 L6,281 A0,0 0 0 0 6,281 " fill="#F0F8FF" style="stroke:#181818;stroke-width:0.5;"/><path d="M198,281 L198,291 L208,291 L198,281 " fill="#F0F8FF" style="stroke:#181818;stroke-width:0.5;"/><text fill="#000000" font-family="Ubuntu Light" font-size="10" lengthAdjust="spacing" textLength="155" x="12" y="295.2822">The video content is created</text><text fill="#000000" font-family="Ubuntu Light" font-size="10" lengthAdjust="spacing" textLength="168" x="12" y="306.9229">by the trainer, and reviewed by</text><text fill="#000000" font-family="Ubuntu Light" font-size="10" lengthAdjust="spacing" textLength="181" x="12" y="318.5635">at least one of the staff members</text></g><rect fill="#B0E0E6" height="33.9688" rx="12.5" ry="12.5" style="stroke:#181818;stroke-width:0.5;" width="90" x="235" y="385.5"/><text fill="#000000" font-family="Ubuntu Light" font-size="12" font-weight="bold" lengthAdjust="spacing" textLength="70" x="245" y="406.6387">Published</text><g id="elem_GMN23"><path d="M345,380 L345,398.5 L325.246,402.5 L345,406.5 L345,424.9219 A0,0 0 0 0 345,424.9219 L539,424.9219 A0,0 0 0 0 539,424.9219 L539,390 L529,380 L345,380 A0,0 0 0 0 345,380 " fill="#F0F8FF" style="stroke:#181818;stroke-width:0.5;"/><path d="M529,380 L529,390 L539,390 L529,380 " fill="#F0F8FF" style="stroke:#181818;stroke-width:0.5;"/><text fill="#000000" font-family="Ubuntu Light" font-size="10" lengthAdjust="spacing" textLength="173" x="351" y="394.2822">The video recording is pubished</text><text fill="#000000" font-family="Ubuntu Light" font-size="10" lengthAdjust="spacing" textLength="157" x="351" y="405.9229">to the chosen video platfrom</text><text fill="#000000" font-family="Ubuntu Light" font-size="10" lengthAdjust="spacing" textLength="120" x="351" y="417.5635">(e.g.: EPAM VidePortal)</text></g><g id="elem_#26"><polygon fill="#B0E0E6" points="280,476.5,292,488.5,280,500.5,268,488.5,280,476.5" style="stroke:#181818;stroke-width:0.5;"/></g><rect fill="#B0E0E6" height="33.9688" rx="12.5" ry="12.5" style="stroke:#181818;stroke-width:0.5;" width="102" x="347" y="471.5"/><text fill="#000000" font-family="Ubuntu Light" font-size="12" font-weight="bold" lengthAdjust="spacing" textLength="82" x="357" y="492.6387">In summary</text><g id="elem_GMN31"><path d="M469.5,466 L469.5,484.5 L449.031,488.5 L469.5,492.5 L469.5,510.9219 A0,0 0 0 0 469.5,510.9219 L694.5,510.9219 A0,0 0 0 0 694.5,510.9219 L694.5,476 L684.5,466 L469.5,466 A0,0 0 0 0 469.5,466 " fill="#F0F8FF" style="stroke:#181818;stroke-width:0.5;"/><path d="M684.5,466 L684.5,476 L694.5,476 L684.5,466 " fill="#F0F8FF" style="stroke:#181818;stroke-width:0.5;"/><text fill="#000000" font-family="Ubuntu Light" font-size="10" lengthAdjust="spacing" textLength="145" x="475.5" y="480.2822">An article is created on the</text><text fill="#000000" font-family="Ubuntu Light" font-size="10" lengthAdjust="spacing" textLength="133" x="475.5" y="491.9229">WeAreCommunity page,</text><text fill="#000000" font-family="Ubuntu Light" font-size="10" lengthAdjust="spacing" textLength="204" x="475.5" y="503.5635">summarizing / extending the Minutes.</text></g><rect fill="#B0E0E6" height="33.9688" rx="12.5" ry="12.5" style="stroke:#181818;stroke-width:0.5;" width="57" x="310.5" y="565"/><text fill="#000000" font-family="Ubuntu Light" font-size="12" font-weight="bold" lengthAdjust="spacing" textLength="37" x="320.5" y="586.1387">Done</text><ellipse cx="339" cy="662.5" fill="none" rx="10" ry="10" style="stroke:#228B22;stroke-width:1.0;"/><ellipse cx="339.5" cy="663" fill="#228B22" rx="6" ry="6" style="stroke:none;stroke-width:1.0;"/><g id="elem_GMN39"><path d="M369,640 L369,658.5 L349.045,662.5 L369,666.5 L369,684.9219 A0,0 0 0 0 369,684.9219 L587,684.9219 A0,0 0 0 0 587,684.9219 L587,650 L577,640 L369,640 A0,0 0 0 0 369,640 " fill="#F0F8FF" style="stroke:#181818;stroke-width:0.5;"/><path d="M577,640 L577,650 L587,650 L577,640 " fill="#F0F8FF" style="stroke:#181818;stroke-width:0.5;"/><text fill="#000000" font-family="Ubuntu Light" font-size="10" lengthAdjust="spacing" textLength="129" x="375" y="654.2822">We collect statistics and</text><text fill="#000000" font-family="Ubuntu Light" font-size="10" lengthAdjust="spacing" textLength="155" x="375" y="665.9229">feedback about the Minutes:</text><text fill="#000000" font-family="Ubuntu Light" font-size="10" lengthAdjust="spacing" textLength="197" x="375" y="677.5635">views, questions, speaker badge, etc</text></g><!--link start to Draft--><g id="link_start_Draft"><path d="M280,27.177 C280,39.124 280,60.379 280,76.496 " fill="none" id="start-to-Draft" style="stroke:#4682B4;stroke-width:1.0;"/><polygon fill="#4682B4" points="280,81.745,284,72.745,280,76.745,276,72.745,280,81.745" style="stroke:#4682B4;stroke-width:1.0;"/><text fill="#4682B4" font-family="Ubuntu Light" font-size="11" lengthAdjust="spacing" textLength="65" x="281" y="59.2104">Submission</text></g><!--link Draft to Ready--><g id="link_Draft_Ready"><path d="M280,116.1 C280,132.472 280,157.935 280,176.019 " fill="none" id="Draft-to-Ready" style="stroke:#4682B4;stroke-width:1.0;"/><polygon fill="#4682B4" points="280,181.376,284,172.376,280,176.376,276,172.376,280,181.376" style="stroke:#4682B4;stroke-width:1.0;"/><text fill="#4682B4" font-family="Ubuntu Light" font-size="11" lengthAdjust="spacing" textLength="66" x="281" y="147.2104">Clarification</text></g><!--link Ready to In progress--><g id="link_Ready_In progress"><path d="M280,215.594 C280,233.178 280,261.435 280,280.929 " fill="none" id="Ready-to-In progress" style="stroke:#4682B4;stroke-width:1.0;stroke-dasharray:1.0,3.0;"/><polygon fill="#4682B4" points="280,286.179,284,277.179,280,281.179,276,277.179,280,286.179" style="stroke:#4682B4;stroke-width:1.0;"/><text fill="#4682B4" font-family="Ubuntu Light" font-size="11" lengthAdjust="spacing" textLength="90" x="281" y="258.2104">Milestone starts</text></g><!--link In progress to Published--><g id="link_In progress_Published"><path d="M280,320.518 C280,336.805 280,362.138 280,380.129 " fill="none" id="In progress-to-Published" style="stroke:#4682B4;stroke-width:1.0;"/><polygon fill="#4682B4" points="280,385.459,284,376.459,280,380.459,276,376.459,280,385.459" style="stroke:#4682B4;stroke-width:1.0;"/><text fill="#4682B4" font-family="Ubuntu Light" font-size="11" lengthAdjust="spacing" textLength="72" x="281" y="357.2104">Organization</text></g><!--link Published to #26--><g id="link_Published_#26"><path d="M280,419.696 C280,434.557 280,456.455 280,471.313 " fill="none" id="Published-to-#26" style="stroke:#4682B4;stroke-width:1.0;"/><polygon fill="#4682B4" points="280,476.443,284,467.443,280,471.443,276,467.443,280,476.443" style="stroke:#4682B4;stroke-width:1.0;"/><text fill="#4682B4" font-family="Ubuntu Light" font-size="11" lengthAdjust="spacing" textLength="162" x="98.2563" y="470.3501">Summary article is needed?</text></g><!--link #26 to In summary--><g id="link_#26_In summary"><path d="M292.184,488.5 C304.079,488.5 323.06,488.5 341.683,488.5 " fill="none" id="#26-to-In summary" style="stroke:#4682B4;stroke-width:1.0;"/><polygon fill="#4682B4" points="346.92,488.5,337.92,484.5,341.92,488.5,337.92,492.5,346.92,488.5" style="stroke:#4682B4;stroke-width:1.0;"/><text fill="#4682B4" font-family="Ubuntu Light" font-size="11" lengthAdjust="spacing" textLength="21" x="309" y="482.7104">Yes</text></g><!--link In summary to Done--><g id="link_In summary_Done"><path d="M395.174,505.567 C392.579,517.222 387.906,532.984 380,545 C376.024,551.044 370.77,556.686 365.356,561.627 " fill="none" id="In summary-to-Done" style="stroke:#4682B4;stroke-width:1.0;"/><polygon fill="#4682B4" points="361.596,564.933,370.996,561.9935,365.3507,561.6312,365.7131,555.9859,361.596,564.933" style="stroke:#4682B4;stroke-width:1.0;"/><text fill="#4682B4" font-family="Ubuntu Light" font-size="11" lengthAdjust="spacing" textLength="81" x="387" y="542.2104">Administration</text></g><!--link #26 to Done--><g id="link_#26_Done"><path d="M275.856,496.545 C269.913,507.663 260.662,529.595 270,545 C277.798,557.863 291.862,566.347 305.269,571.827 " fill="none" id="#26-to-Done" style="stroke:#4682B4;stroke-width:1.0;"/><polygon fill="#4682B4" points="310.165,573.713,303.2042,566.7454,305.4992,571.9158,300.3287,574.2107,310.165,573.713" style="stroke:#4682B4;stroke-width:1.0;"/><text fill="#4682B4" font-family="Ubuntu Light" font-size="11" lengthAdjust="spacing" textLength="103" x="271" y="542.2104">No, Administration</text></g><!--link Done to end--><g id="link_Done_end"><path d="M339,599.2653 C339,613.3791 339,633.6153 339,647.1396 " fill="none" id="Done-to-end" style="stroke:#4682B4;stroke-width:1.0;stroke-dasharray:1.0,3.0;"/><polygon fill="#4682B4" points="339,652.1406,343,643.1406,339,647.1406,335,643.1406,339,652.1406" style="stroke:#4682B4;stroke-width:1.0;"/></g><text fill="#4682B4" font-family="Ubuntu Light" font-size="10" font-style="italic" lengthAdjust="spacing" textLength="170" x="258.75" y="701.2041">fig. process of the Minutes Format</text><!--SRC=[TLHDJnin4BtlhnXnWYgaxPK3LVYga0gDchQeGXoytjdD2A-zjSVGKFM_T-pT94k0d1BFytjltemJxibsogiMAgnLD7pXB5-h5k576Ir7-4BDaekmWPLAtpVUHLkTEkCyi5SsI0aj5oEOLXsJi_2t0FaaqXw-O4HpOY9kpXUyCWZ4of3U7j8JmiSF7HV_ngnACpqGhmRQanqlS_TOeT-mBrZvGVR2UGpysIFQN3fVNzajR1sLpbGxwjwxnq7whMvspvyHMCVuXlMPT8_FS-aZI0phC6jgfj1vfp44S3Nm4k6AR6GCgP5MoGYoXiz3IqmpODUH5kyKi41RPHD5iV_k00uFZsyNiMmf166_WpElwZM3mNeWi71PeO9zGKKy00gWFIh6QiIMc4wDQDIa5MUoRwYgrGixtyKn9Rf4Or3vIMuYCpgV8L8HX6NXmce2IaHuUoj3EgEiHJbtK4h5QXCh-Kdz29M5s6dNacsW9IFZTNRS-dHwV7krFeUGbYJSmQLDoJQo3M4tWcJwGVGTQ9cBM1k7a03bAbkKfq0MVU_PumFXexWgLxqh5a8L69BeC3lHhcjeiItHXvqul_f6MNeQqfp7qb1OYjvhYVRcF6hdgzIrsEjYsUCJHdBAAIzTG3kW9KEklMipO1-dpVG8pkUpA_WfvRdpyXuFHfQeXhr5R5lbLx9BJ3gzsG0MKPB_j9Vu-_GFipLfu1VsgOR-Lf6hE-Q71HiH3h5AIebo0xh1cSTJrxRHfkVVgGOdcsAlG4-fzVU0VsH4EORHyvXcyBQTx5HCpYfP4meokJxdixmg9k06SUqcy3fAHEgyJI2FwSLSRYHlPmngJcDckKqwfCt8rLfoI_-ae4eNUUpqADVJxeG9_8wofI8fNqE7wXwz_FzMqZiWwyrq_WC0]--></g></svg>