<?xml version="1.0" encoding="us-ascii" standalone="no"?><svg xmlns="http://www.w3.org/2000/svg" xmlns:xlink="http://www.w3.org/1999/xlink" contentStyleType="text/css" height="1184px" preserveAspectRatio="none" style="width:668px;height:1184px;" version="1.1" viewBox="0 0 668 1184" width="668px" zoomAndPan="magnify"><defs/><g><text fill="#000000" font-family="Ubuntu Light" font-size="14" font-weight="bold" lengthAdjust="spacing" textLength="190" x="232.25" y="22.9951">Project Format Process</text><g id="elem_GMN2"><path d="M313,43.2969 L313,50.2969 L292.617,54.2969 L313,58.2969 L313,64.9375 A0,0 0 0 0 313,64.9375 L400,64.9375 A0,0 0 0 0 400,64.9375 L400,53.2969 L390,43.2969 L313,43.2969 A0,0 0 0 0 313,43.2969 " fill="#F0F8FF" style="stroke:#181818;stroke-width:0.5;"/><path d="M390,43.2969 L390,53.2969 L400,53.2969 L390,43.2969 " fill="#F0F8FF" style="stroke:#181818;stroke-width:0.5;"/><text fill="#000000" font-family="Ubuntu Light" font-size="10" lengthAdjust="spacing" textLength="66" x="319" y="57.5791">A topic arise</text></g><ellipse cx="282.5" cy="54.2969" fill="#222222" rx="10" ry="10" style="stroke:none;stroke-width:1.0;"/><rect fill="#B0E0E6" height="33.9688" rx="12.5" ry="12.5" style="stroke:#181818;stroke-width:0.5;" width="60" x="252.5" y="119.2969"/><text fill="#000000" font-family="Ubuntu Light" font-size="12" font-weight="bold" lengthAdjust="spacing" textLength="40" x="262.5" y="140.4355">Draft</text><g id="elem_GMN8"><path d="M76.5,125.2969 L76.5,146.9375 A0,0 0 0 0 76.5,146.9375 L232.5,146.9375 A0,0 0 0 0 232.5,146.9375 L232.5,143.2969 L252.336,136.2969 L232.5,135.2969 L232.5,135.2969 L222.5,125.2969 L76.5,125.2969 A0,0 0 0 0 76.5,125.2969 " fill="#F0F8FF" style="stroke:#181818;stroke-width:0.5;"/><path d="M222.5,125.2969 L222.5,135.2969 L232.5,135.2969 L222.5,125.2969 " fill="#F0F8FF" style="stroke:#181818;stroke-width:0.5;"/><text fill="#000000" font-family="Ubuntu Light" font-size="10" lengthAdjust="spacing" textLength="135" x="82.5" y="139.5791">An Idea (issue) is created</text></g><rect fill="#B0E0E6" height="33.9688" rx="12.5" ry="12.5" style="stroke:#181818;stroke-width:0.5;" width="58" x="253.5" y="212.7969"/><text fill="#000000" font-family="Ubuntu Light" font-size="12" font-weight="bold" lengthAdjust="spacing" textLength="38" x="263.5" y="233.9355">Clear</text><g id="elem_GMN13"><path d="M332,207.2969 L332,225.7969 L311.549,229.7969 L332,233.7969 L332,252.2188 A0,0 0 0 0 332,252.2188 L511,252.2188 A0,0 0 0 0 511,252.2188 L511,217.2969 L501,207.2969 L332,207.2969 A0,0 0 0 0 332,207.2969 " fill="#F0F8FF" style="stroke:#181818;stroke-width:0.5;"/><path d="M501,207.2969 L501,217.2969 L511,217.2969 L501,207.2969 " fill="#F0F8FF" style="stroke:#181818;stroke-width:0.5;"/><text fill="#000000" font-family="Ubuntu Light" font-size="10" lengthAdjust="spacing" textLength="133" x="338" y="221.5791">The idea, the main goal,</text><text fill="#000000" font-family="Ubuntu Light" font-size="10" lengthAdjust="spacing" textLength="158" x="338" y="233.2197">the expected results, and the</text><text fill="#000000" font-family="Ubuntu Light" font-size="10" lengthAdjust="spacing" textLength="137" x="338" y="244.8604">required effort is clarified</text></g><rect fill="#B0E0E6" height="33.9688" rx="12.5" ry="12.5" style="stroke:#181818;stroke-width:0.5;" width="64" x="250.5" y="311.7969"/><text fill="#000000" font-family="Ubuntu Light" font-size="12" font-weight="bold" lengthAdjust="spacing" textLength="44" x="260.5" y="332.9355">Ready</text><g id="elem_GMN18"><path d="M68.5,306.2969 L68.5,351.2188 A0,0 0 0 0 68.5,351.2188 L230.5,351.2188 A0,0 0 0 0 230.5,351.2188 L230.5,332.7969 L250.435,328.7969 L230.5,324.7969 L230.5,316.2969 L220.5,306.2969 L68.5,306.2969 A0,0 0 0 0 68.5,306.2969 " fill="#F0F8FF" style="stroke:#181818;stroke-width:0.5;"/><path d="M220.5,306.2969 L220.5,316.2969 L230.5,316.2969 L220.5,306.2969 " fill="#F0F8FF" style="stroke:#181818;stroke-width:0.5;"/><text fill="#000000" font-family="Ubuntu Light" font-size="10" lengthAdjust="spacing" textLength="110" x="74.5" y="320.5791">The contributors are</text><text fill="#000000" font-family="Ubuntu Light" font-size="10" lengthAdjust="spacing" textLength="140" x="74.5" y="332.2197">identified and the kick-off</text><text fill="#000000" font-family="Ubuntu Light" font-size="10" lengthAdjust="spacing" textLength="141" x="74.5" y="343.8604">is planned for a milestone</text></g><rect fill="#B0E0E6" height="33.9688" rx="12.5" ry="12.5" style="stroke:#181818;stroke-width:0.5;" width="103" x="231" y="410.7969"/><text fill="#000000" font-family="Ubuntu Light" font-size="12" font-weight="bold" lengthAdjust="spacing" textLength="83" x="241" y="431.9355">In progress</text><g id="elem_GMN25"><path d="M6,405.2969 L6,450.2188 A0,0 0 0 0 6,450.2188 L211,450.2188 A0,0 0 0 0 211,450.2188 L211,431.7969 L230.926,427.7969 L211,423.7969 L211,415.2969 L201,405.2969 L6,405.2969 A0,0 0 0 0 6,405.2969 " fill="#F0F8FF" style="stroke:#181818;stroke-width:0.5;"/><path d="M201,405.2969 L201,415.2969 L211,415.2969 L201,405.2969 " fill="#F0F8FF" style="stroke:#181818;stroke-width:0.5;"/><text fill="#000000" font-family="Ubuntu Light" font-size="10" lengthAdjust="spacing" textLength="135" x="12" y="419.5791">The work in the project is</text><text fill="#000000" font-family="Ubuntu Light" font-size="10" lengthAdjust="spacing" textLength="150" x="12" y="431.2197">organized using the chosen</text><text fill="#000000" font-family="Ubuntu Light" font-size="10" lengthAdjust="spacing" textLength="184" x="12" y="442.8604">SDLC (SCRUM, KanBan, WaterFall)</text></g><rect fill="#B0E0E6" height="33.9688" rx="12.5" ry="12.5" style="stroke:#181818;stroke-width:0.5;" width="89" x="238" y="509.7969"/><text fill="#000000" font-family="Ubuntu Light" font-size="12" font-weight="bold" lengthAdjust="spacing" textLength="69" x="248" y="530.9355">Delivered</text><g id="elem_GMN30"><path d="M33.5,504.2969 L33.5,549.2188 A0,0 0 0 0 33.5,549.2188 L217.5,549.2188 A0,0 0 0 0 217.5,549.2188 L217.5,530.7969 L237.765,526.7969 L217.5,522.7969 L217.5,514.2969 L207.5,504.2969 L33.5,504.2969 A0,0 0 0 0 33.5,504.2969 " fill="#F0F8FF" style="stroke:#181818;stroke-width:0.5;"/><path d="M207.5,504.2969 L207.5,514.2969 L217.5,514.2969 L207.5,504.2969 " fill="#F0F8FF" style="stroke:#181818;stroke-width:0.5;"/><text fill="#000000" font-family="Ubuntu Light" font-size="10" lengthAdjust="spacing" textLength="158" x="39.5" y="518.5791">The work in the project done,</text><text fill="#000000" font-family="Ubuntu Light" font-size="10" lengthAdjust="spacing" textLength="163" x="39.5" y="530.2197">the planned software/features</text><text fill="#000000" font-family="Ubuntu Light" font-size="10" lengthAdjust="spacing" textLength="72" x="39.5" y="541.8604">are delivered</text></g><g id="elem_#33"><polygon fill="#B0E0E6" points="282.5,600.7969,294.5,612.7969,282.5,624.7969,270.5,612.7969,282.5,600.7969" style="stroke:#181818;stroke-width:0.5;"/></g><rect fill="#B0E0E6" height="33.9688" rx="12.5" ry="12.5" style="stroke:#181818;stroke-width:0.5;" width="95" x="337" y="595.7969"/><text fill="#000000" font-family="Ubuntu Light" font-size="12" font-weight="bold" lengthAdjust="spacing" textLength="75" x="347" y="616.9355">Scheduled</text><g id="elem_GMN38"><path d="M452,590.2969 L452,608.7969 L432.029,612.7969 L452,616.7969 L452,635.2188 A0,0 0 0 0 452,635.2188 L627,635.2188 A0,0 0 0 0 627,635.2188 L627,600.2969 L617,590.2969 L452,590.2969 A0,0 0 0 0 452,590.2969 " fill="#F0F8FF" style="stroke:#181818;stroke-width:0.5;"/><path d="M617,590.2969 L617,600.2969 L627,600.2969 L617,590.2969 " fill="#F0F8FF" style="stroke:#181818;stroke-width:0.5;"/><text fill="#000000" font-family="Ubuntu Light" font-size="10" lengthAdjust="spacing" textLength="142" x="458" y="604.5791">An event is created on the</text><text fill="#000000" font-family="Ubuntu Light" font-size="10" lengthAdjust="spacing" textLength="154" x="458" y="616.2197">WeAreCommunity page and</text><text fill="#000000" font-family="Ubuntu Light" font-size="10" lengthAdjust="spacing" textLength="121" x="458" y="627.8604">registration is enabled</text></g><rect fill="#B0E0E6" height="33.9688" rx="12.5" ry="12.5" style="stroke:#181818;stroke-width:0.5;" width="98" x="329.5" y="738.2969"/><text fill="#000000" font-family="Ubuntu Light" font-size="12" font-weight="bold" lengthAdjust="spacing" textLength="78" x="339.5" y="759.4355">Conducted</text><g id="elem_GMN43"><path d="M448,715.2969 L448,751.2969 L427.807,755.2969 L448,759.2969 L448,795.1406 A0,0 0 0 0 448,795.1406 L639,795.1406 A0,0 0 0 0 639,795.1406 L639,725.2969 L629,715.2969 L448,715.2969 A0,0 0 0 0 448,715.2969 " fill="#F0F8FF" style="stroke:#181818;stroke-width:0.5;"/><path d="M629,715.2969 L629,725.2969 L639,725.2969 L629,715.2969 " fill="#F0F8FF" style="stroke:#181818;stroke-width:0.5;"/><text fill="#000000" font-family="Ubuntu Light" font-size="10" lengthAdjust="spacing" textLength="153" x="454" y="729.5791">The webinar is conducted at</text><text fill="#000000" font-family="Ubuntu Light" font-size="10" lengthAdjust="spacing" textLength="147" x="454" y="741.2197">the given date/time, all the</text><text fill="#000000" font-family="Ubuntu Light" font-size="10" lengthAdjust="spacing" textLength="170" x="454" y="752.8604">questions answered or followed</text><text fill="#000000" font-family="Ubuntu Light" font-size="10" lengthAdjust="spacing" textLength="150" x="454" y="764.501">up, the recording and slides</text><text fill="#000000" font-family="Ubuntu Light" font-size="10" lengthAdjust="spacing" textLength="150" x="454" y="776.1416">are available and uploaded</text><text fill="#000000" font-family="Ubuntu Light" font-size="10" lengthAdjust="spacing" textLength="144" x="454" y="787.7822">to VideoPortal and the talk</text></g><rect fill="#555555" height="8" style="stroke:none;stroke-width:1.0;" width="80" x="278.5" y="836.2969"/><g id="elem_#49"><polygon fill="#B0E0E6" points="318.5,895.7969,330.5,907.7969,318.5,919.7969,306.5,907.7969,318.5,895.7969" style="stroke:#181818;stroke-width:0.5;"/></g><rect fill="#B0E0E6" height="33.9688" rx="12.5" ry="12.5" style="stroke:#181818;stroke-width:0.5;" width="102" x="373.5" y="890.7969"/><text fill="#000000" font-family="Ubuntu Light" font-size="12" font-weight="bold" lengthAdjust="spacing" textLength="82" x="383.5" y="911.9355">In summary</text><g id="elem_GMN54"><path d="M495.5,885.2969 L495.5,903.7969 L475.633,907.7969 L495.5,911.7969 L495.5,930.2188 A0,0 0 0 0 495.5,930.2188 L661.5,930.2188 A0,0 0 0 0 661.5,930.2188 L661.5,895.2969 L651.5,885.2969 L495.5,885.2969 A0,0 0 0 0 495.5,885.2969 " fill="#F0F8FF" style="stroke:#181818;stroke-width:0.5;"/><path d="M651.5,885.2969 L651.5,895.2969 L661.5,895.2969 L651.5,885.2969 " fill="#F0F8FF" style="stroke:#181818;stroke-width:0.5;"/><text fill="#000000" font-family="Ubuntu Light" font-size="10" lengthAdjust="spacing" textLength="145" x="501.5" y="899.5791">An article is created on the</text><text fill="#000000" font-family="Ubuntu Light" font-size="10" lengthAdjust="spacing" textLength="133" x="501.5" y="911.2197">WeAreCommunity page,</text><text fill="#000000" font-family="Ubuntu Light" font-size="10" lengthAdjust="spacing" textLength="133" x="501.5" y="922.8604">summarizing the project</text></g><rect fill="#555555" height="8" style="stroke:none;stroke-width:1.0;" width="80" x="339.5" y="984.2969"/><rect fill="#B0E0E6" height="33.9688" rx="12.5" ry="12.5" style="stroke:#181818;stroke-width:0.5;" width="57" x="351" y="1046.2969"/><text fill="#000000" font-family="Ubuntu Light" font-size="12" font-weight="bold" lengthAdjust="spacing" textLength="37" x="361" y="1067.4355">Done</text><ellipse cx="379.5" cy="1149.7969" fill="none" rx="10" ry="10" style="stroke:#228B22;stroke-width:1.0;"/><ellipse cx="380" cy="1150.2969" fill="#228B22" rx="6" ry="6" style="stroke:none;stroke-width:1.0;"/><g id="elem_GMN64"><path d="M410,1121.2969 L410,1145.7969 L389.689,1149.7969 L410,1153.7969 L410,1177.8594 A0,0 0 0 0 410,1177.8594 L631,1177.8594 A0,0 0 0 0 631,1177.8594 L631,1131.2969 L621,1121.2969 L410,1121.2969 A0,0 0 0 0 410,1121.2969 " fill="#F0F8FF" style="stroke:#181818;stroke-width:0.5;"/><path d="M621,1121.2969 L621,1131.2969 L631,1131.2969 L621,1121.2969 " fill="#F0F8FF" style="stroke:#181818;stroke-width:0.5;"/><text fill="#000000" font-family="Ubuntu Light" font-size="10" lengthAdjust="spacing" textLength="129" x="416" y="1135.5791">We collect statistics and</text><text fill="#000000" font-family="Ubuntu Light" font-size="10" lengthAdjust="spacing" textLength="151" x="416" y="1147.2197">feedback about the project,</text><text fill="#000000" font-family="Ubuntu Light" font-size="10" lengthAdjust="spacing" textLength="121" x="416" y="1158.8604">based on the artifacts:</text><text fill="#000000" font-family="Ubuntu Light" font-size="10" lengthAdjust="spacing" textLength="200" x="416" y="1170.501">views, questions, speaker badge, etc.</text></g><!--link start to Draft--><g id="link_start_Draft"><path d="M282.5,64.4769 C282.5,76.4169 282.5,97.6769 282.5,113.7969 " fill="none" id="start-to-Draft" style="stroke:#4682B4;stroke-width:1.0;"/><polygon fill="#4682B4" points="282.5,119.0369,286.5,110.0369,282.5,114.0369,278.5,110.0369,282.5,119.0369" style="stroke:#4682B4;stroke-width:1.0;"/><text fill="#4682B4" font-family="Ubuntu Light" font-size="11" lengthAdjust="spacing" textLength="65" x="283.5" y="96.5073">Submission</text></g><!--link Draft to Clear--><g id="link_Draft_Clear"><path d="M282.5,153.6569 C282.5,168.6169 282.5,190.8559 282.5,207.2599 " fill="none" id="Draft-to-Clear" style="stroke:#4682B4;stroke-width:1.0;"/><polygon fill="#4682B4" points="282.5,212.5799,286.5,203.5799,282.5,207.5799,278.5,203.5799,282.5,212.5799" style="stroke:#4682B4;stroke-width:1.0;"/><text fill="#4682B4" font-family="Ubuntu Light" font-size="11" lengthAdjust="spacing" textLength="66" x="283.5" y="184.5073">Clarification</text></g><!--link Clear to Ready--><g id="link_Clear_Ready"><path d="M282.5,246.8149 C282.5,263.1019 282.5,288.4349 282.5,306.4259 " fill="none" id="Clear-to-Ready" style="stroke:#4682B4;stroke-width:1.0;"/><polygon fill="#4682B4" points="282.5,311.7559,286.5,302.7559,282.5,306.7559,278.5,302.7559,282.5,311.7559" style="stroke:#4682B4;stroke-width:1.0;"/><text fill="#4682B4" font-family="Ubuntu Light" font-size="11" lengthAdjust="spacing" textLength="85" x="283.5" y="283.5073">Advertisement</text></g><!--link Ready to In progress--><g id="link_Ready_In progress"><path d="M282.5,345.8149 C282.5,362.1019 282.5,387.4349 282.5,405.4259 " fill="none" id="Ready-to-In progress" style="stroke:#4682B4;stroke-width:1.0;stroke-dasharray:1.0,3.0;"/><polygon fill="#4682B4" points="282.5,410.7559,286.5,401.7559,282.5,405.7559,278.5,401.7559,282.5,410.7559" style="stroke:#4682B4;stroke-width:1.0;"/><text fill="#4682B4" font-family="Ubuntu Light" font-size="11" lengthAdjust="spacing" textLength="90" x="283.5" y="382.5073">Milestone starts</text></g><!--reverse link In progress to In progress--><g id="link_In progress_In progress"><path d="M339.351,419.5789 C348.072,420.8259 354,423.5649 354,427.7969 C354,432.8129 345.673,435.7319 334.239,436.5549 " fill="none" id="In progress-backto-In progress" style="stroke:#4682B4;stroke-width:1.0;"/><polygon fill="#4682B4" points="334.239,419.0389,342.7699,423.9607,339.2114,419.5633,343.6089,416.0048,334.239,419.0389" style="stroke:#4682B4;stroke-width:1.0;"/><text fill="#4682B4" font-family="Ubuntu Light" font-size="11" lengthAdjust="spacing" textLength="53" x="360" y="432.0073">Iterations</text></g><!--link In progress to Delivered--><g id="link_In progress_Delivered"><path d="M282.5,444.8149 C282.5,461.1019 282.5,486.4349 282.5,504.4259 " fill="none" id="In progress-to-Delivered" style="stroke:#4682B4;stroke-width:1.0;stroke-dasharray:1.0,3.0;"/><polygon fill="#4682B4" points="282.5,509.7559,286.5,500.7559,282.5,504.7559,278.5,500.7559,282.5,509.7559" style="stroke:#4682B4;stroke-width:1.0;"/><text fill="#4682B4" font-family="Ubuntu Light" font-size="11" lengthAdjust="spacing" textLength="136" x="283.5" y="481.5073">Implementation is done</text></g><!--link Delivered to #33--><g id="link_Delivered_#33"><path d="M282.5,543.9929 C282.5,558.8539 282.5,580.7519 282.5,595.6099 " fill="none" id="Delivered-to-#33" style="stroke:#4682B4;stroke-width:1.0;"/><polygon fill="#4682B4" points="282.5,600.7399,286.5,591.7399,282.5,595.7399,278.5,591.7399,282.5,600.7399" style="stroke:#4682B4;stroke-width:1.0;"/><text fill="#4682B4" font-family="Ubuntu Light" font-size="11" lengthAdjust="spacing" textLength="111" x="151.7281" y="592.6609">Meetup is needed?</text></g><!--link #33 to Scheduled--><g id="link_#33_Scheduled"><path d="M294.601,612.7969 C304.001,612.7969 317.741,612.7969 331.664,612.7969 " fill="none" id="#33-to-Scheduled" style="stroke:#4682B4;stroke-width:1.0;"/><polygon fill="#4682B4" points="336.794,612.7969,327.794,608.7969,331.794,612.7969,327.794,616.7969,336.794,612.7969" style="stroke:#4682B4;stroke-width:1.0;"/><text fill="#4682B4" font-family="Ubuntu Light" font-size="11" lengthAdjust="spacing" textLength="21" x="305.25" y="607.0073">Yes</text></g><!--link Scheduled to Conducted--><g id="link_Scheduled_Conducted"><path d="M383.812,629.9139 C382.728,655.2919 380.623,704.5859 379.414,732.9019 " fill="none" id="Scheduled-to-Conducted" style="stroke:#4682B4;stroke-width:1.0;stroke-dasharray:1.0,3.0;"/><polygon fill="#4682B4" points="379.199,737.9349,383.5785,729.1133,379.4118,732.9394,375.5857,728.7728,379.199,737.9349" style="stroke:#4682B4;stroke-width:1.0;"/><text fill="#4682B4" font-family="Ubuntu Light" font-size="11" lengthAdjust="spacing" textLength="71" x="383.5" y="666.5073">The webinar</text><text fill="#4682B4" font-family="Ubuntu Light" font-size="11" font-weight="bold" lengthAdjust="spacing" textLength="31" x="403.5" y="679.312">date</text><text fill="#4682B4" font-family="Ubuntu Light" font-size="11" lengthAdjust="spacing" textLength="39" x="399.5" y="692.1167">arrives</text></g><!--link Conducted to B1--><g id="link_Conducted_B1"><path d="M366.931,772.2999 C353.951,790.2569 333.453,818.6109 323.827,831.9279 " fill="none" id="Conducted-to-B1" style="stroke:#4682B4;stroke-width:1.0;"/><polygon fill="#4682B4" points="320.806,836.1069,329.3205,831.1568,323.7354,832.0549,322.8373,826.4698,320.806,836.1069" style="stroke:#4682B4;stroke-width:1.0;"/></g><!--link #33 to B1--><g id="link_#33_B1"><path d="M282.792,624.5859 C283.752,652.9299 287.659,731.7009 302.5,795.2969 C305.502,808.1599 311.139,822.4219 314.857,831.1239 " fill="none" id="#33-to-B1" style="stroke:#4682B4;stroke-width:1.0;"/><polygon fill="#4682B4" points="317.068,836.1739,317.1217,826.3252,315.0623,831.5938,309.7936,829.5344,317.068,836.1739" style="stroke:#4682B4;stroke-width:1.0;"/><text fill="#4682B4" font-family="Ubuntu Light" font-size="11" lengthAdjust="spacing" textLength="15" x="303.5" y="759.5073">No</text></g><!--link B1 to #49--><g id="link_B1_#49"><path d="M318.5,844.4559 C318.5,852.6039 318.5,874.7799 318.5,890.3529 " fill="none" id="B1-to-#49" style="stroke:#4682B4;stroke-width:1.0;"/><polygon fill="#4682B4" points="318.5,895.7529,322.5,886.7529,318.5,890.7529,314.5,886.7529,318.5,895.7529" style="stroke:#4682B4;stroke-width:1.0;"/><text fill="#4682B4" font-family="Ubuntu Light" font-size="11" lengthAdjust="spacing" textLength="162" x="136.7563" y="889.6632">Summary article is needed?</text></g><!--link #49 to In summary--><g id="link_#49_In summary"><path d="M330.66,907.7969 C340.055,907.7969 353.797,907.7969 367.88,907.7969 " fill="none" id="#49-to-In summary" style="stroke:#4682B4;stroke-width:1.0;"/><polygon fill="#4682B4" points="373.077,907.7969,364.077,903.7969,368.077,907.7969,364.077,911.7969,373.077,907.7969" style="stroke:#4682B4;stroke-width:1.0;"/><text fill="#4682B4" font-family="Ubuntu Light" font-size="11" lengthAdjust="spacing" textLength="21" x="341.5" y="902.0073">Yes</text></g><!--link In summary to B2--><g id="link_In summary_B2"><path d="M415.176,925.0619 C405.625,941.7229 391.184,966.9159 383.954,979.5279 " fill="none" id="In summary-to-B2" style="stroke:#4682B4;stroke-width:1.0;"/><polygon fill="#4682B4" points="381.332,984.1009,389.2791,978.2833,383.8193,979.7634,382.3392,974.3037,381.332,984.1009" style="stroke:#4682B4;stroke-width:1.0;"/></g><!--link #49 to B2--><g id="link_#49_B2"><path d="M323.492,915.2209 C334.735,929.6889 361.981,964.7519 373.835,980.0059 " fill="none" id="#49-to-B2" style="stroke:#4682B4;stroke-width:1.0;"/><polygon fill="#4682B4" points="376.984,984.0589,374.6219,974.4975,373.9168,980.1102,368.304,979.405,376.984,984.0589" style="stroke:#4682B4;stroke-width:1.0;"/><text fill="#4682B4" font-family="Ubuntu Light" font-size="11" lengthAdjust="spacing" textLength="15" x="361.5" y="961.5073">No</text></g><!--link B2 to Done--><g id="link_B2_Done"><path d="M379.5,992.4339 C379.5,1000.6939 379.5,1023.6049 379.5,1040.9569 " fill="none" id="B2-to-Done" style="stroke:#4682B4;stroke-width:1.0;"/><polygon fill="#4682B4" points="379.5,1046.1409,383.5,1037.1409,379.5,1041.1409,375.5,1037.1409,379.5,1046.1409" style="stroke:#4682B4;stroke-width:1.0;"/><text fill="#4682B4" font-family="Ubuntu Light" font-size="11" lengthAdjust="spacing" textLength="81" x="380.5" y="1023.5073">Administration</text></g><!--link Done to end--><g id="link_Done_end"><path d="M379.5,1080.5893 C379.5,1096.1369 379.5,1119.3411 379.5,1134.2727 " fill="none" id="Done-to-end" style="stroke:#4682B4;stroke-width:1.0;stroke-dasharray:1.0,3.0;"/><polygon fill="#4682B4" points="379.5,1139.37,383.5,1130.37,379.5,1134.37,375.5,1130.37,379.5,1139.37" style="stroke:#4682B4;stroke-width:1.0;"/></g><!--SRC=[ZLN1Rjiu4BtxAmOz9OQTRdiia2uITrC4ROgWscwmI7EWn972cY9LScXlkjX_tndAbcMd3UABBJxEp9kdDsCoP16kW_-65S653wqYUQmmniaaBethL50jQAnLidJX7NrIBSANCZbAyD4qzpIwLgfgsGIVd5vuwmDGK2uoX8x6sLH5PcNe0VwT07_E3wAk_LfZEBS9CroG2jGZJ10ZlG-8BaD_R4CE0I5Qq0FtLdgh9__jLG_1hpUb- -Y24ErGJs8Fp_SIE4_u2-fdrbIubwamFn1U_IOPSbp8aWbw1kGxKp4V4t62JkV4aydHz1ZcyxUtHIfR4wFnxWxU1LNJ9eF5UfF0mQL61KTyA-4nc0XLG4MeHzaaqy9oZTfKYdAoXKKL7j7vynx1SBeP4FzgbN7GU6Ld6PGZ_ATZaw06bfgz46UWk0eZ-KR0xya4Hh6kVQ1CfY_xYCwPNc4WRhfbNzp1PrJwuR0tOLEnVC6KYNo8h59VXoawobctvM5fgkNSrtMFH-YiSevnvW4AMcFP6jwD9JuvUNjxjJs7A0QBTt3fe0k-2UBzkJ1XhfU48SjsWF-4xjg79R1gGgdRJ9I96VQXKOwDe255uvfyfRhtSUFMujt71HmLYyzVhcRmGRbpvMPmmoyoN2XhZm-8NxQTpT9bNjAmvYxO8sWD2yjoFvESXErUxrQrw6jQizelQxPIucRp3JxW9R0ji2DaQdXnXKYf4o8EKQF-_OKax5kRPuEna7yZArXKzwYJ5Oe27ZXmusbSSMyZCuDtWylaSuDd0HU-RPEJ7TAf1iKA0nwmCP72e0uwLKf9mNR4vKdKpE9WQPmANzrqghdYTFgLdmBtofGNtkaajlybvL66p7eR06ftHmHkEA43AV2IJ8iyFjRkDVOziI75QjnEN8lGR1nsiRL-ZRl-KjUFQC3A1orsaa68bYSZ3fVaVQcLCbPwpnTIPxtIeppauI-EyTSyhieEqyI_bp_HYWSNJazFuVoLV4tGHjoUttxoTtkOqwRkhL6ajbNXWUcGgPZ8Cpp2KnRxgATCCahuV9lC1h2lO7viXt4p4a_r_Vg9lb-F- -vNN6lSu4AUJTa_R3VWvVveyzx8ghDMHZBAKBC9gZXOkcQzv7yLLEaJZTdsxPGg3irdMMh-UurlChOokEOzFHXh1h53jSJ0KPhr0AJgP9Zc_m40]--></g></svg>