<?xml version="1.0" encoding="us-ascii" standalone="no"?><svg xmlns="http://www.w3.org/2000/svg" xmlns:xlink="http://www.w3.org/1999/xlink" contentStyleType="text/css" height="754px" preserveAspectRatio="none" style="width:517px;height:754px;" version="1.1" viewBox="0 0 517 754" width="517px" zoomAndPan="magnify"><defs/><g><g id="elem_GMN2"><path d="M311,6 L311,13 L290.617,17 L311,21 L311,27.6406 A0,0 0 0 0 311,27.6406 L398,27.6406 A0,0 0 0 0 398,27.6406 L398,16 L388,6 L311,6 A0,0 0 0 0 311,6 " fill="#F0F8FF" style="stroke:#181818;stroke-width:0.5;"/><path d="M388,6 L388,16 L398,16 L388,6 " fill="#F0F8FF" style="stroke:#181818;stroke-width:0.5;"/><text fill="#000000" font-family="Ubuntu Light" font-size="10" lengthAdjust="spacing" textLength="66" x="317" y="20.2822">A topic arise</text></g><ellipse cx="280.5" cy="17" fill="#222222" rx="10" ry="10" style="stroke:none;stroke-width:1.0;"/><rect fill="#B0E0E6" height="33.9688" rx="12.5" ry="12.5" style="stroke:#181818;stroke-width:0.5;" width="60" x="250.5" y="82"/><text fill="#000000" font-family="Ubuntu Light" font-size="12" font-weight="bold" lengthAdjust="spacing" textLength="40" x="260.5" y="103.1387">Draft</text><g id="elem_GMN8"><path d="M74.5,88 L74.5,109.6406 A0,0 0 0 0 74.5,109.6406 L230.5,109.6406 A0,0 0 0 0 230.5,109.6406 L230.5,106 L250.336,99 L230.5,98 L230.5,98 L220.5,88 L74.5,88 A0,0 0 0 0 74.5,88 " fill="#F0F8FF" style="stroke:#181818;stroke-width:0.5;"/><path d="M220.5,88 L220.5,98 L230.5,98 L220.5,88 " fill="#F0F8FF" style="stroke:#181818;stroke-width:0.5;"/><text fill="#000000" font-family="Ubuntu Light" font-size="10" lengthAdjust="spacing" textLength="135" x="80.5" y="102.2822">An Idea (issue) is created</text></g><rect fill="#B0E0E6" height="33.9688" rx="12.5" ry="12.5" style="stroke:#181818;stroke-width:0.5;" width="64" x="248.5" y="181.5"/><text fill="#000000" font-family="Ubuntu Light" font-size="12" font-weight="bold" lengthAdjust="spacing" textLength="44" x="258.5" y="202.6387">Ready</text><g id="elem_GMN13"><path d="M333,170 L333,194.5 L312.535,198.5 L333,202.5 L333,226.5625 A0,0 0 0 0 333,226.5625 L506,226.5625 A0,0 0 0 0 506,226.5625 L506,180 L496,170 L333,170 A0,0 0 0 0 333,170 " fill="#F0F8FF" style="stroke:#181818;stroke-width:0.5;"/><path d="M496,170 L496,180 L506,180 L496,170 " fill="#F0F8FF" style="stroke:#181818;stroke-width:0.5;"/><text fill="#000000" font-family="Ubuntu Light" font-size="10" lengthAdjust="spacing" textLength="152" x="339" y="184.2822">The idea is clear, the trainer</text><text fill="#000000" font-family="Ubuntu Light" font-size="10" lengthAdjust="spacing" textLength="149" x="339" y="195.9229">is identified, and the idea is</text><text fill="#000000" font-family="Ubuntu Light" font-size="10" lengthAdjust="spacing" textLength="139" x="339" y="207.5635">planned to be included in</text><text fill="#000000" font-family="Ubuntu Light" font-size="10" lengthAdjust="spacing" textLength="129" x="339" y="219.2041">an upcoming milestone</text></g><rect fill="#B0E0E6" height="33.9688" rx="12.5" ry="12.5" style="stroke:#181818;stroke-width:0.5;" width="103" x="229" y="281"/><text fill="#000000" font-family="Ubuntu Light" font-size="12" font-weight="bold" lengthAdjust="spacing" textLength="83" x="239" y="302.1387">In progress</text><rect fill="#B0E0E6" height="33.9688" rx="12.5" ry="12.5" style="stroke:#181818;stroke-width:0.5;" width="85" x="306" y="369"/><text fill="#000000" font-family="Ubuntu Light" font-size="12" font-weight="bold" lengthAdjust="spacing" textLength="65" x="316" y="390.1387">In review</text><g id="elem_#20"><polygon fill="#B0E0E6" points="290.5,444,302.5,456,290.5,468,278.5,456,290.5,444" style="stroke:#181818;stroke-width:0.5;"/></g><g id="elem_GMN25"><path d="M6,281.5 L6,314.7813 A0,0 0 0 0 6,314.7813 L209,314.7813 A0,0 0 0 0 209,314.7813 L209,302 L228.978,298 L209,294 L209,291.5 L199,281.5 L6,281.5 A0,0 0 0 0 6,281.5 " fill="#F0F8FF" style="stroke:#181818;stroke-width:0.5;"/><path d="M199,281.5 L199,291.5 L209,291.5 L199,281.5 " fill="#F0F8FF" style="stroke:#181818;stroke-width:0.5;"/><text fill="#000000" font-family="Ubuntu Light" font-size="10" lengthAdjust="spacing" textLength="165" x="12" y="295.7822">The author updates the article</text><text fill="#000000" font-family="Ubuntu Light" font-size="10" lengthAdjust="spacing" textLength="182" x="12" y="307.4229">based on the recieved comments</text></g><rect fill="#B0E0E6" height="33.9688" rx="12.5" ry="12.5" style="stroke:#181818;stroke-width:0.5;" width="90" x="245.5" y="533.5"/><text fill="#000000" font-family="Ubuntu Light" font-size="12" font-weight="bold" lengthAdjust="spacing" textLength="70" x="255.5" y="554.6387">Published</text><g id="elem_GMN30"><path d="M52,522 L52,578.5625 A0,0 0 0 0 52,578.5625 L225,578.5625 A0,0 0 0 0 225,578.5625 L225,554.5 L245.343,550.5 L225,546.5 L225,532 L215,522 L52,522 A0,0 0 0 0 52,522 " fill="#F0F8FF" style="stroke:#181818;stroke-width:0.5;"/><path d="M215,522 L215,532 L225,532 L215,522 " fill="#F0F8FF" style="stroke:#181818;stroke-width:0.5;"/><text fill="#000000" font-family="Ubuntu Light" font-size="10" lengthAdjust="spacing" textLength="103" x="58" y="536.2822">The created article</text><text fill="#000000" font-family="Ubuntu Light" font-size="10" lengthAdjust="spacing" textLength="99" x="58" y="547.9229">is published to the</text><text fill="#000000" font-family="Ubuntu Light" font-size="10" lengthAdjust="spacing" textLength="152" x="58" y="559.5635">WeAreCommunity Idea Pool</text><text fill="#000000" font-family="Ubuntu Light" font-size="10" lengthAdjust="spacing" textLength="70" x="58" y="571.2041">Articles page</text></g><rect fill="#B0E0E6" height="33.9688" rx="12.5" ry="12.5" style="stroke:#181818;stroke-width:0.5;" width="57" x="262" y="633"/><text fill="#000000" font-family="Ubuntu Light" font-size="12" font-weight="bold" lengthAdjust="spacing" textLength="37" x="272" y="654.1387">Done</text><ellipse cx="290.5" cy="718" fill="none" rx="10" ry="10" style="stroke:#228B22;stroke-width:1.0;"/><ellipse cx="291" cy="718.5" fill="#228B22" rx="6" ry="6" style="stroke:none;stroke-width:1.0;"/><!--link start to Draft--><g id="link_start_Draft"><path d="M280.5,27.177 C280.5,39.124 280.5,60.379 280.5,76.496 " fill="none" id="start-to-Draft" style="stroke:#4682B4;stroke-width:1.0;"/><polygon fill="#4682B4" points="280.5,81.745,284.5,72.745,280.5,76.745,276.5,72.745,280.5,81.745" style="stroke:#4682B4;stroke-width:1.0;"/><text fill="#4682B4" font-family="Ubuntu Light" font-size="11" lengthAdjust="spacing" textLength="65" x="281.5" y="59.2104">Submission</text></g><!--link Draft to Ready--><g id="link_Draft_Ready"><path d="M280.5,116.1 C280.5,132.472 280.5,157.935 280.5,176.019 " fill="none" id="Draft-to-Ready" style="stroke:#4682B4;stroke-width:1.0;"/><polygon fill="#4682B4" points="280.5,181.376,284.5,172.376,280.5,176.376,276.5,172.376,280.5,181.376" style="stroke:#4682B4;stroke-width:1.0;"/><text fill="#4682B4" font-family="Ubuntu Light" font-size="11" lengthAdjust="spacing" textLength="66" x="281.5" y="147.2104">Clarification</text></g><!--link Ready to In progress--><g id="link_Ready_In progress"><path d="M280.5,215.6 C280.5,231.972 280.5,257.435 280.5,275.519 " fill="none" id="Ready-to-In progress" style="stroke:#4682B4;stroke-width:1.0;stroke-dasharray:1.0,3.0;"/><polygon fill="#4682B4" points="280.5,280.876,284.5,271.876,280.5,275.876,276.5,271.876,280.5,280.876" style="stroke:#4682B4;stroke-width:1.0;"/><text fill="#4682B4" font-family="Ubuntu Light" font-size="11" lengthAdjust="spacing" textLength="90" x="281.5" y="258.2104">Milestone starts</text></g><!--link In progress to In review--><g id="link_In progress_In review"><path d="M293.29,315.176 C304.403,329.23 320.548,349.649 332.511,364.779 " fill="none" id="In progress-to-In review" style="stroke:#4682B4;stroke-width:1.0;"/><polygon fill="#4682B4" points="335.767,368.897,333.3231,359.3562,332.666,364.9747,327.0475,364.3177,335.767,368.897" style="stroke:#4682B4;stroke-width:1.0;"/><text fill="#4682B4" font-family="Ubuntu Light" font-size="11" lengthAdjust="spacing" textLength="128" x="319.5" y="346.2104">Draft article is created</text></g><!--link In review to #20--><g id="link_In review_#20"><path d="M334.755,403.115 C323.754,416.013 308.658,433.711 299.246,444.746 " fill="none" id="In review-to-#20" style="stroke:#4682B4;stroke-width:1.0;"/><polygon fill="#4682B4" points="295.822,448.761,304.7055,444.5085,299.0664,444.9566,298.6184,439.3175,295.822,448.761" style="stroke:#4682B4;stroke-width:1.0;"/><text fill="#4682B4" font-family="Ubuntu Light" font-size="11" lengthAdjust="spacing" textLength="200" x="310.6329" y="445.1663">Changes requested by reviewer(s)</text></g><!--reverse link In progress to #20--><g id="link_In progress_#20"><path d="M276.268,320.415 C272.749,341.531 268.986,374.663 273.5,403 C276.07,419.133 282.861,437.061 287.04,447.089 " fill="none" id="In progress-backto-#20" style="stroke:#4682B4;stroke-width:1.0;"/><polygon fill="#4682B4" points="277.152,315.315,271.6733,323.4994,276.2978,320.2415,279.5557,324.866,277.152,315.315" style="stroke:#4682B4;stroke-width:1.0;"/><text fill="#4682B4" font-family="Ubuntu Light" font-size="11" lengthAdjust="spacing" textLength="21" x="274.5" y="390.2104">Yes</text></g><!--link #20 to Published--><g id="link_#20_Published"><path d="M290.5,468.342 C290.5,483.247 290.5,509.715 290.5,528.364 " fill="none" id="#20-to-Published" style="stroke:#4682B4;stroke-width:1.0;"/><polygon fill="#4682B4" points="290.5,533.401,294.5,524.401,290.5,528.401,286.5,524.401,290.5,533.401" style="stroke:#4682B4;stroke-width:1.0;"/><text fill="#4682B4" font-family="Ubuntu Light" font-size="11" lengthAdjust="spacing" textLength="15" x="291.5" y="499.2104">No</text></g><!--link Published to Done--><g id="link_Published_Done"><path d="M290.5,567.6 C290.5,583.972 290.5,609.435 290.5,627.519 " fill="none" id="Published-to-Done" style="stroke:#4682B4;stroke-width:1.0;"/><polygon fill="#4682B4" points="290.5,632.8759,294.5,623.8759,290.5,627.8759,286.5,623.8759,290.5,632.8759" style="stroke:#4682B4;stroke-width:1.0;"/><text fill="#4682B4" font-family="Ubuntu Light" font-size="11" lengthAdjust="spacing" textLength="81" x="291.5" y="610.2104">Administration</text></g><!--link Done to end--><g id="link_Done_end"><path d="M290.5,667.3146 C290.5,678.2368 290.5,692.4683 290.5,702.8993 " fill="none" id="Done-to-end" style="stroke:#4682B4;stroke-width:1.0;stroke-dasharray:1.0,3.0;"/><polygon fill="#4682B4" points="290.5,707.97,294.5,698.97,290.5,702.97,286.5,698.97,290.5,707.97" style="stroke:#4682B4;stroke-width:1.0;"/></g><text fill="#4682B4" font-family="Ubuntu Light" font-size="10" font-style="italic" lengthAdjust="spacing" textLength="164" x="169.8165" y="743.2822">fig. process of the Article Format</text><!--SRC=[TLFBRjim4BphAnOvsKLij3yGm76Q8a0R67MBeWXyeCYLl0X5gdmaS8l-UvUav8UA-ARTvSpixDW_a-c54nqeR4JKuTwQy2WwXEzrD272PshteVB7iLh8vzRPQDJQQkiWE64yjz24wcnCYZwGDV2d0lubq3A-3OZwLaSyrhVXe14e24toLAJV21_Uzw7wUuugPA0N2eS1zdQYPMDV5ReZ-ZO8Dz3UMuS-V7A89hS-Za-cZPEYscerONVElWxKRsqphLy061lm3UahtXulVIaM98JHp8RQ9VJEIlGUR0DXZx1oWIJBvKKwmIV872uVBI6j8DYU96idZnKQbKLKrUpT71QBcwTjh3lodj5tSET4Co9eR0O00myA1SnuAk8So8DqA0AgCxI4jDRCqP0K8ODzHQ4E_ydvneefmIKOZS9TvoKuH6JGvH7ky8G9Z8Ng6WIJXDEhFD9hOGnotKBD7IDrLFn9vOJ2GEobxSYqq97cyrfpllfoUVFqPQo3Jo7nEtWmoTcMq-3BFjaDzgtOUrexZpfy8NojAchWQhqNfaNFjL-HGLb8VHW6qCty_2hfBz8MoLR6_ebJnjIzD7wqIyImvu34NZ6xpruCeevZjV3CoW59JOUIy8M_sOAEVIoMdTP7xSlBjEIZtS4crfhylXoKcca0aePXzQCRuw7wyMawHIBFZH-uShXczcZIVpN7PsEjBdag4FnMj3Y9q4hnqSXp6ag6xjBX-5p0QVq7]--></g></svg>