<?xml version="1.0" encoding="us-ascii" standalone="no"?><svg xmlns="http://www.w3.org/2000/svg" xmlns:xlink="http://www.w3.org/1999/xlink" contentStyleType="text/css" height="636px" preserveAspectRatio="none" style="width:446px;height:636px;" version="1.1" viewBox="0 0 446 636" width="446px" zoomAndPan="magnify"><defs/><g><g id="elem_GMN2"><path d="M244,6 L244,13 L223.617,17 L244,21 L244,27.6406 A0,0 0 0 0 244,27.6406 L331,27.6406 A0,0 0 0 0 331,27.6406 L331,16 L321,6 L244,6 A0,0 0 0 0 244,6 " fill="#F0F8FF" style="stroke:#181818;stroke-width:0.5;"/><path d="M321,6 L321,16 L331,16 L321,6 " fill="#F0F8FF" style="stroke:#181818;stroke-width:0.5;"/><text fill="#000000" font-family="Ubuntu Light" font-size="10" lengthAdjust="spacing" textLength="66" x="250" y="20.2822">A topic arise</text></g><ellipse cx="213.5" cy="17" fill="#222222" rx="10" ry="10" style="stroke:none;stroke-width:1.0;"/><rect fill="#B0E0E6" height="33.9688" rx="12.5" ry="12.5" style="stroke:#181818;stroke-width:0.5;" width="60" x="183.5" y="82"/><text fill="#000000" font-family="Ubuntu Light" font-size="12" font-weight="bold" lengthAdjust="spacing" textLength="40" x="193.5" y="103.1387">Draft</text><g id="elem_GMN8"><path d="M7.5,88 L7.5,109.6406 A0,0 0 0 0 7.5,109.6406 L163.5,109.6406 A0,0 0 0 0 163.5,109.6406 L163.5,106 L183.336,99 L163.5,98 L163.5,98 L153.5,88 L7.5,88 A0,0 0 0 0 7.5,88 " fill="#F0F8FF" style="stroke:#181818;stroke-width:0.5;"/><path d="M153.5,88 L153.5,98 L163.5,98 L153.5,88 " fill="#F0F8FF" style="stroke:#181818;stroke-width:0.5;"/><text fill="#000000" font-family="Ubuntu Light" font-size="10" lengthAdjust="spacing" textLength="135" x="13.5" y="102.2822">An Idea (issue) is created</text></g><rect fill="#B0E0E6" height="33.9688" rx="12.5" ry="12.5" style="stroke:#181818;stroke-width:0.5;" width="64" x="181.5" y="187"/><text fill="#000000" font-family="Ubuntu Light" font-size="12" font-weight="bold" lengthAdjust="spacing" textLength="44" x="191.5" y="208.1387">Ready</text><g id="elem_GMN13"><path d="M265.5,170 L265.5,200 L245.727,204 L265.5,208 L265.5,238.2031 A0,0 0 0 0 265.5,238.2031 L425.5,238.2031 A0,0 0 0 0 425.5,238.2031 L425.5,180 L415.5,170 L265.5,170 A0,0 0 0 0 265.5,170 " fill="#F0F8FF" style="stroke:#181818;stroke-width:0.5;"/><path d="M415.5,170 L415.5,180 L425.5,180 L415.5,170 " fill="#F0F8FF" style="stroke:#181818;stroke-width:0.5;"/><text fill="#000000" font-family="Ubuntu Light" font-size="10" lengthAdjust="spacing" textLength="92" x="271.5" y="184.2822">The idea is clear,</text><text fill="#000000" font-family="Ubuntu Light" font-size="10" lengthAdjust="spacing" textLength="12" x="271.5" y="195.9229">...,</text><text fill="#000000" font-family="Ubuntu Light" font-size="10" lengthAdjust="spacing" textLength="80" x="271.5" y="207.5635">and the idea is</text><text fill="#000000" font-family="Ubuntu Light" font-size="10" lengthAdjust="spacing" textLength="139" x="271.5" y="219.2041">planned to be included in</text><text fill="#000000" font-family="Ubuntu Light" font-size="10" lengthAdjust="spacing" textLength="129" x="271.5" y="230.8447">an upcoming milestone</text></g><rect fill="#B0E0E6" height="33.9688" rx="12.5" ry="12.5" style="stroke:#181818;stroke-width:0.5;" width="103" x="162" y="292"/><text fill="#000000" font-family="Ubuntu Light" font-size="12" font-weight="bold" lengthAdjust="spacing" textLength="83" x="172" y="313.1387">In progress</text><rect fill="#B0E0E6" height="33.9688" rx="12.5" ry="12.5" style="stroke:#181818;stroke-width:0.5;" width="49" x="189" y="367"/><text fill="#000000" font-family="Ubuntu Light" font-size="12" font-weight="bold" lengthAdjust="spacing" textLength="29" x="199" y="388.1387">TBD</text><rect fill="#B0E0E6" height="33.9688" rx="12.5" ry="12.5" style="stroke:#181818;stroke-width:0.5;" width="57" x="185" y="472"/><text fill="#000000" font-family="Ubuntu Light" font-size="12" font-weight="bold" lengthAdjust="spacing" textLength="37" x="195" y="493.1387">Done</text><g id="elem_GMN22"><path d="M262,455 L262,485 L242.131,489 L262,493 L262,523.2031 A0,0 0 0 0 262,523.2031 L439,523.2031 A0,0 0 0 0 439,523.2031 L439,465 L429,455 L262,455 A0,0 0 0 0 262,455 " fill="#F0F8FF" style="stroke:#181818;stroke-width:0.5;"/><path d="M429,455 L429,465 L439,465 L429,455 " fill="#F0F8FF" style="stroke:#181818;stroke-width:0.5;"/><text fill="#000000" font-family="Ubuntu Light" font-size="10" lengthAdjust="spacing" textLength="156" x="268" y="469.2822">The recording is uploaded to</text><text fill="#000000" font-family="Ubuntu Light" font-size="10" lengthAdjust="spacing" textLength="133" x="268" y="480.9229">VideoPortal and the talk,</text><text fill="#000000" font-family="Ubuntu Light" font-size="10" lengthAdjust="spacing" textLength="156" x="268" y="492.5635">alongside with the slides and</text><text fill="#000000" font-family="Ubuntu Light" font-size="10" lengthAdjust="spacing" textLength="123" x="268" y="504.2041">link to the source code</text><text fill="#000000" font-family="Ubuntu Light" font-size="10" lengthAdjust="spacing" textLength="60" x="268" y="515.8447">(if created)</text></g><ellipse cx="213.5" cy="586.5" fill="none" rx="10" ry="10" style="stroke:#228B22;stroke-width:1.0;"/><ellipse cx="214" cy="587" fill="#228B22" rx="6" ry="6" style="stroke:none;stroke-width:1.0;"/><g id="elem_GMN27"><path d="M6,564 L6,608.9219 A0,0 0 0 0 6,608.9219 L183,608.9219 A0,0 0 0 0 183,608.9219 L183,590.5 L203.114,586.5 L183,582.5 L183,574 L173,564 L6,564 A0,0 0 0 0 6,564 " fill="#F0F8FF" style="stroke:#181818;stroke-width:0.5;"/><path d="M173,564 L173,574 L183,574 L173,564 " fill="#F0F8FF" style="stroke:#181818;stroke-width:0.5;"/><text fill="#000000" font-family="Ubuntu Light" font-size="10" lengthAdjust="spacing" textLength="129" x="12" y="578.2822">We collect statistics and</text><text fill="#000000" font-family="Ubuntu Light" font-size="10" lengthAdjust="spacing" textLength="156" x="12" y="589.9229">feedback about the webinar:</text><text fill="#000000" font-family="Ubuntu Light" font-size="10" lengthAdjust="spacing" textLength="9" x="12" y="601.5635">...</text></g><!--link start to Draft--><g id="link_start_Draft"><path d="M213.5,27.177 C213.5,39.124 213.5,60.379 213.5,76.496 " fill="none" id="start-to-Draft" style="stroke:#4682B4;stroke-width:1.0;"/><polygon fill="#4682B4" points="213.5,81.745,217.5,72.745,213.5,76.745,209.5,72.745,213.5,81.745" style="stroke:#4682B4;stroke-width:1.0;"/><text fill="#4682B4" font-family="Ubuntu Light" font-size="11" lengthAdjust="spacing" textLength="65" x="214.5" y="59.2104">Submission</text></g><!--link Draft to Ready--><g id="link_Draft_Ready"><path d="M213.5,116.094 C213.5,133.678 213.5,161.935 213.5,181.429 " fill="none" id="Draft-to-Ready" style="stroke:#4682B4;stroke-width:1.0;"/><polygon fill="#4682B4" points="213.5,186.679,217.5,177.679,213.5,181.679,209.5,177.679,213.5,186.679" style="stroke:#4682B4;stroke-width:1.0;"/><text fill="#4682B4" font-family="Ubuntu Light" font-size="11" lengthAdjust="spacing" textLength="66" x="214.5" y="147.2104">Clarification</text></g><!--link Ready to In progress--><g id="link_Ready_In progress"><path d="M213.5,221.094 C213.5,238.678 213.5,266.935 213.5,286.429 " fill="none" id="Ready-to-In progress" style="stroke:#4682B4;stroke-width:1.0;stroke-dasharray:1.0,3.0;"/><polygon fill="#4682B4" points="213.5,291.679,217.5,282.679,213.5,286.679,209.5,282.679,213.5,291.679" style="stroke:#4682B4;stroke-width:1.0;"/><text fill="#4682B4" font-family="Ubuntu Light" font-size="11" lengthAdjust="spacing" textLength="90" x="214.5" y="269.2104">Milestone starts</text></g><!--link In progress to TBD--><g id="link_In progress_TBD"><path d="M213.5,326.201 C213.5,336.692 213.5,350.463 213.5,361.818 " fill="none" id="In progress-to-TBD" style="stroke:#4682B4;stroke-width:1.0;stroke-dasharray:1.0,3.0;"/><polygon fill="#4682B4" points="213.5,366.844,217.5,357.844,213.5,361.844,209.5,357.844,213.5,366.844" style="stroke:#4682B4;stroke-width:1.0;"/></g><!--link TBD to Done--><g id="link_TBD_Done"><path d="M213.5,401.094 C213.5,418.678 213.5,446.935 213.5,466.429 " fill="none" id="TBD-to-Done" style="stroke:#4682B4;stroke-width:1.0;"/><polygon fill="#4682B4" points="213.5,471.679,217.5,462.679,213.5,466.679,209.5,462.679,213.5,471.679" style="stroke:#4682B4;stroke-width:1.0;"/><text fill="#4682B4" font-family="Ubuntu Light" font-size="11" lengthAdjust="spacing" textLength="81" x="214.5" y="432.2104">Administration</text></g><!--link Done to end--><g id="link_Done_end"><path d="M213.5,506.2 C213.5,524.3685 213.5,553.5667 213.5,571.0068 " fill="none" id="Done-to-end" style="stroke:#4682B4;stroke-width:1.0;stroke-dasharray:1.0,3.0;"/><polygon fill="#4682B4" points="213.5,576.4376,217.5,567.4376,213.5,571.4376,209.5,567.4376,213.5,576.4376" style="stroke:#4682B4;stroke-width:1.0;"/></g><text fill="#4682B4" font-family="Ubuntu Light" font-size="10" font-style="italic" lengthAdjust="spacing" textLength="160" x="136" y="625.2041">fig. process of the [TBD] Format</text><!--SRC=[TLDBZzCm4BxdLyonHMm4LmuhjLiMhGHeHHSuh7fmx4awgcD7zeIg8FuxOoVfQzcSafdFtsF6YJjodGgg1OErwYtVUyTVLOlmlUeTz_2PcYqNyGYhbDurmVVEt7dh0t1GBaeB7HTdCAqw9k_WJm7o9D81lcP4kxGz7kjhFbW4OcL9duhq6-7zkuwBl-UiIZFz8ZwCjCihBuz-Rp0SsTUimYXxxmD6_XGGNMvzd8vSDqwEAc_DbNe8VZzAlvRckdv1u3pZAzONaXulvpAC835CmwofAQ4BNcECu6lWBSBpqtArIJ5Q9Gl82Y6lBF4iW7r7MfnJn0AToHQAOlPc3ZStjy_hlcefHk7Um2geUcAmM8y43XuCAfW9giSvK0GTK36QCxR4T6T5eoQjE9DzGsKEB-myYLzAT8d6eWflSxaio-552IMVCBdMMUKSIjr39HsdRM_aaznu0lfE-vPS0orPMQLtvq7BylRvorI7c2v4tC23IrDiPFCnGsI4Gug54IQASgU76Al4zhyK0RKF9gbAbBwpNfdiCGD-Y7__w8DSwMCaUT-D8QrtJHG8x8ctkHcjVCQ4pGXBRfVovfRlWqRGtWmtOqRrj87vPKwGfLwlxsSwQIrgJjbPaf4-wTI89ltEe2hVSvRROqLEXG_JNeuI_m00]--></g></svg>