<?xml version="1.0" encoding="us-ascii" standalone="no"?><svg xmlns="http://www.w3.org/2000/svg" xmlns:xlink="http://www.w3.org/1999/xlink" contentStyleType="text/css" height="194px" preserveAspectRatio="none" style="width:125px;height:194px;background:#FFFFFF;" version="1.1" viewBox="0 0 125 194" width="125px" zoomAndPan="magnify"><defs/><g><ellipse cx="30" cy="16" fill="#222222" rx="10" ry="10" style="stroke:none;stroke-width:1.0;"/><rect fill="#B0E0E6" height="33.9688" rx="12.5" ry="12.5" style="stroke:#181818;stroke-width:0.5;" width="46" x="7" y="80"/><text fill="#000000" font-family="sans-serif" font-size="12" lengthAdjust="spacing" textLength="26" x="17" y="101.1387">Idea</text><ellipse cx="30" cy="178" fill="none" rx="10" ry="10" style="stroke:#228B22;stroke-width:1.0;"/><ellipse cx="30.5" cy="178.5" fill="#228B22" rx="6" ry="6" style="stroke:none;stroke-width:1.0;"/><!--link start to Idea--><g id="link_start_Idea"><path d="M30,26.062 C30,37.86 30,58.849 30,74.765 " fill="none" id="start-to-Idea" style="stroke:#000080;stroke-width:1.0;"/><polygon fill="#000080" points="30,79.948,34,70.948,30,74.948,26,70.948,30,79.948" style="stroke:#000080;stroke-width:1.0;"/><text fill="#7B68EE" font-family="sans-serif" font-size="11" lengthAdjust="spacing" textLength="81" x="31" y="57.2104">Idea Proposed</text></g><!--link Idea to end--><g id="link_Idea_end"><path d="M30,114.3689 C30,128.5726 30,148.9377 30,162.5482 " fill="none" id="Idea-to-end" style="stroke:#000080;stroke-width:1.0;"/><polygon fill="#000080" points="30,167.581,34,158.581,30,162.581,26,158.581,30,167.581" style="stroke:#000080;stroke-width:1.0;"/><text fill="#7B68EE" font-family="sans-serif" font-size="11" lengthAdjust="spacing" textLength="86" x="31" y="145.2104">Idea Delivered</text></g><!--SRC=[HOnB2i9044JtSufUgf0h24QDk8W4N8gB9jF8aCbqwFc48DxTV33MhjwZoZV6TIZO0jR191C6U2iOasFTl8IZqqUsB51nhqbo6sdM1n7k5tF3DFnPmIuil2HjOdkt66YTdNzt1GlvS14YfpvARNPRoBBzuwe9eHBks9D-mbILck5gJsHD8fdqkFe2]--></g></svg>