<?xml version="1.0" encoding="us-ascii" standalone="no"?><svg xmlns="http://www.w3.org/2000/svg" xmlns:xlink="http://www.w3.org/1999/xlink" contentStyleType="text/css" height="653px" preserveAspectRatio="none" style="width:446px;height:653px;" version="1.1" viewBox="0 0 446 653" width="446px" zoomAndPan="magnify"><defs/><g><text fill="#4682B4" font-family="Ubuntu Light" font-size="14" font-weight="bold" lengthAdjust="spacing" textLength="165" x="133.5" y="22.9951">TBD Format Process</text><g id="elem_GMN2"><path d="M244,43.2969 L244,50.2969 L223.617,54.2969 L244,58.2969 L244,64.9375 A0,0 0 0 0 244,64.9375 L331,64.9375 A0,0 0 0 0 331,64.9375 L331,53.2969 L321,43.2969 L244,43.2969 A0,0 0 0 0 244,43.2969 " fill="#F0F8FF" style="stroke:#181818;stroke-width:0.5;"/><path d="M321,43.2969 L321,53.2969 L331,53.2969 L321,43.2969 " fill="#F0F8FF" style="stroke:#181818;stroke-width:0.5;"/><text fill="#000000" font-family="Ubuntu Light" font-size="10" lengthAdjust="spacing" textLength="66" x="250" y="57.5791">A topic arise</text></g><ellipse cx="213.5" cy="54.2969" fill="#222222" rx="10" ry="10" style="stroke:none;stroke-width:1.0;"/><rect fill="#B0E0E6" height="33.9688" rx="12.5" ry="12.5" style="stroke:#181818;stroke-width:0.5;" width="60" x="183.5" y="119.2969"/><text fill="#000000" font-family="Ubuntu Light" font-size="12" font-weight="bold" lengthAdjust="spacing" textLength="40" x="193.5" y="140.4355">Draft</text><g id="elem_GMN8"><path d="M7.5,125.2969 L7.5,146.9375 A0,0 0 0 0 7.5,146.9375 L163.5,146.9375 A0,0 0 0 0 163.5,146.9375 L163.5,143.2969 L183.336,136.2969 L163.5,135.2969 L163.5,135.2969 L153.5,125.2969 L7.5,125.2969 A0,0 0 0 0 7.5,125.2969 " fill="#F0F8FF" style="stroke:#181818;stroke-width:0.5;"/><path d="M153.5,125.2969 L153.5,135.2969 L163.5,135.2969 L153.5,125.2969 " fill="#F0F8FF" style="stroke:#181818;stroke-width:0.5;"/><text fill="#000000" font-family="Ubuntu Light" font-size="10" lengthAdjust="spacing" textLength="135" x="13.5" y="139.5791">An Idea (issue) is created</text></g><rect fill="#B0E0E6" height="33.9688" rx="12.5" ry="12.5" style="stroke:#181818;stroke-width:0.5;" width="64" x="181.5" y="224.2969"/><text fill="#000000" font-family="Ubuntu Light" font-size="12" font-weight="bold" lengthAdjust="spacing" textLength="44" x="191.5" y="245.4355">Ready</text><g id="elem_GMN13"><path d="M265.5,207.2969 L265.5,237.2969 L245.727,241.2969 L265.5,245.2969 L265.5,275.5 A0,0 0 0 0 265.5,275.5 L425.5,275.5 A0,0 0 0 0 425.5,275.5 L425.5,217.2969 L415.5,207.2969 L265.5,207.2969 A0,0 0 0 0 265.5,207.2969 " fill="#F0F8FF" style="stroke:#181818;stroke-width:0.5;"/><path d="M415.5,207.2969 L415.5,217.2969 L425.5,217.2969 L415.5,207.2969 " fill="#F0F8FF" style="stroke:#181818;stroke-width:0.5;"/><text fill="#000000" font-family="Ubuntu Light" font-size="10" lengthAdjust="spacing" textLength="92" x="271.5" y="221.5791">The idea is clear,</text><text fill="#000000" font-family="Ubuntu Light" font-size="10" lengthAdjust="spacing" textLength="12" x="271.5" y="233.2197">...,</text><text fill="#000000" font-family="Ubuntu Light" font-size="10" lengthAdjust="spacing" textLength="80" x="271.5" y="244.8604">and the idea is</text><text fill="#000000" font-family="Ubuntu Light" font-size="10" lengthAdjust="spacing" textLength="139" x="271.5" y="256.501">planned to be included in</text><text fill="#000000" font-family="Ubuntu Light" font-size="10" lengthAdjust="spacing" textLength="129" x="271.5" y="268.1416">an upcoming milestone</text></g><rect fill="#B0E0E6" height="33.9688" rx="12.5" ry="12.5" style="stroke:#181818;stroke-width:0.5;" width="103" x="162" y="329.2969"/><text fill="#000000" font-family="Ubuntu Light" font-size="12" font-weight="bold" lengthAdjust="spacing" textLength="83" x="172" y="350.4355">In progress</text><rect fill="#B0E0E6" height="33.9688" rx="12.5" ry="12.5" style="stroke:#181818;stroke-width:0.5;" width="49" x="189" y="404.2969"/><text fill="#000000" font-family="Ubuntu Light" font-size="12" font-weight="bold" lengthAdjust="spacing" textLength="29" x="199" y="425.4355">TBD</text><rect fill="#B0E0E6" height="33.9688" rx="12.5" ry="12.5" style="stroke:#181818;stroke-width:0.5;" width="57" x="185" y="509.2969"/><text fill="#000000" font-family="Ubuntu Light" font-size="12" font-weight="bold" lengthAdjust="spacing" textLength="37" x="195" y="530.4355">Done</text><g id="elem_GMN22"><path d="M262,492.2969 L262,522.2969 L242.131,526.2969 L262,530.2969 L262,560.5 A0,0 0 0 0 262,560.5 L439,560.5 A0,0 0 0 0 439,560.5 L439,502.2969 L429,492.2969 L262,492.2969 A0,0 0 0 0 262,492.2969 " fill="#F0F8FF" style="stroke:#181818;stroke-width:0.5;"/><path d="M429,492.2969 L429,502.2969 L439,502.2969 L429,492.2969 " fill="#F0F8FF" style="stroke:#181818;stroke-width:0.5;"/><text fill="#000000" font-family="Ubuntu Light" font-size="10" lengthAdjust="spacing" textLength="156" x="268" y="506.5791">The recording is uploaded to</text><text fill="#000000" font-family="Ubuntu Light" font-size="10" lengthAdjust="spacing" textLength="133" x="268" y="518.2197">VideoPortal and the talk,</text><text fill="#000000" font-family="Ubuntu Light" font-size="10" lengthAdjust="spacing" textLength="156" x="268" y="529.8604">alongside with the slides and</text><text fill="#000000" font-family="Ubuntu Light" font-size="10" lengthAdjust="spacing" textLength="123" x="268" y="541.501">link to the source code</text><text fill="#000000" font-family="Ubuntu Light" font-size="10" lengthAdjust="spacing" textLength="60" x="268" y="553.1416">(if created)</text></g><ellipse cx="213.5" cy="623.7969" fill="none" rx="10" ry="10" style="stroke:#228B22;stroke-width:1.0;"/><ellipse cx="214" cy="624.2969" fill="#228B22" rx="6" ry="6" style="stroke:none;stroke-width:1.0;"/><g id="elem_GMN27"><path d="M6,601.2969 L6,646.2188 A0,0 0 0 0 6,646.2188 L183,646.2188 A0,0 0 0 0 183,646.2188 L183,627.7969 L203.114,623.7969 L183,619.7969 L183,611.2969 L173,601.2969 L6,601.2969 A0,0 0 0 0 6,601.2969 " fill="#F0F8FF" style="stroke:#181818;stroke-width:0.5;"/><path d="M173,601.2969 L173,611.2969 L183,611.2969 L173,601.2969 " fill="#F0F8FF" style="stroke:#181818;stroke-width:0.5;"/><text fill="#000000" font-family="Ubuntu Light" font-size="10" lengthAdjust="spacing" textLength="129" x="12" y="615.5791">We collect statistics and</text><text fill="#000000" font-family="Ubuntu Light" font-size="10" lengthAdjust="spacing" textLength="156" x="12" y="627.2197">feedback about the webinar:</text><text fill="#000000" font-family="Ubuntu Light" font-size="10" lengthAdjust="spacing" textLength="9" x="12" y="638.8604">...</text></g><!--link start to Draft--><g id="link_start_Draft"><path d="M213.5,64.4739 C213.5,76.4209 213.5,97.6759 213.5,113.7929 " fill="none" id="start-to-Draft" style="stroke:#4682B4;stroke-width:1.0;"/><polygon fill="#4682B4" points="213.5,119.0419,217.5,110.0419,213.5,114.0419,209.5,110.0419,213.5,119.0419" style="stroke:#4682B4;stroke-width:1.0;"/><text fill="#4682B4" font-family="Ubuntu Light" font-size="11" lengthAdjust="spacing" textLength="65" x="214.5" y="96.5073">Submission</text></g><!--link Draft to Ready--><g id="link_Draft_Ready"><path d="M213.5,153.3909 C213.5,170.9749 213.5,199.2319 213.5,218.7259 " fill="none" id="Draft-to-Ready" style="stroke:#4682B4;stroke-width:1.0;"/><polygon fill="#4682B4" points="213.5,223.9759,217.5,214.9759,213.5,218.9759,209.5,214.9759,213.5,223.9759" style="stroke:#4682B4;stroke-width:1.0;"/><text fill="#4682B4" font-family="Ubuntu Light" font-size="11" lengthAdjust="spacing" textLength="66" x="214.5" y="184.5073">Clarification</text></g><!--link Ready to In progress--><g id="link_Ready_In progress"><path d="M213.5,258.3909 C213.5,275.9749 213.5,304.2319 213.5,323.7259 " fill="none" id="Ready-to-In progress" style="stroke:#4682B4;stroke-width:1.0;stroke-dasharray:1.0,3.0;"/><polygon fill="#4682B4" points="213.5,328.9759,217.5,319.9759,213.5,323.9759,209.5,319.9759,213.5,328.9759" style="stroke:#4682B4;stroke-width:1.0;"/><text fill="#4682B4" font-family="Ubuntu Light" font-size="11" lengthAdjust="spacing" textLength="90" x="214.5" y="306.5073">Milestone starts</text></g><!--link In progress to TBD--><g id="link_In progress_TBD"><path d="M213.5,363.4979 C213.5,373.9889 213.5,387.7599 213.5,399.1149 " fill="none" id="In progress-to-TBD" style="stroke:#4682B4;stroke-width:1.0;stroke-dasharray:1.0,3.0;"/><polygon fill="#4682B4" points="213.5,404.1409,217.5,395.1409,213.5,399.1409,209.5,395.1409,213.5,404.1409" style="stroke:#4682B4;stroke-width:1.0;"/></g><!--link TBD to Done--><g id="link_TBD_Done"><path d="M213.5,438.3909 C213.5,455.9749 213.5,484.2319 213.5,503.7259 " fill="none" id="TBD-to-Done" style="stroke:#4682B4;stroke-width:1.0;"/><polygon fill="#4682B4" points="213.5,508.9759,217.5,499.9759,213.5,503.9759,209.5,499.9759,213.5,508.9759" style="stroke:#4682B4;stroke-width:1.0;"/><text fill="#4682B4" font-family="Ubuntu Light" font-size="11" lengthAdjust="spacing" textLength="81" x="214.5" y="469.5073">Administration</text></g><!--link Done to end--><g id="link_Done_end"><path d="M213.5,543.4969 C213.5,561.6654 213.5,590.8636 213.5,608.3037 " fill="none" id="Done-to-end" style="stroke:#4682B4;stroke-width:1.0;stroke-dasharray:1.0,3.0;"/><polygon fill="#4682B4" points="213.5,613.7345,217.5,604.7345,213.5,608.7345,209.5,604.7345,213.5,613.7345" style="stroke:#4682B4;stroke-width:1.0;"/></g><!--SRC=[TLF1RXCn4BtlLyonGJI2AuTAIKDH9K0HAN2eUl3QiyaeNi_A7XC5nBypTZPj4c1FtdbltfktunKIZ_0mNy0Tnzu8B2DRJAbfqfR2OABfmM5difSx3lBPz0XVsnmamqTQR-I4rXgxNKVEmTsovmWIJKWAOJXbIJ4iKWVIIX3zt6SyDJHMw0V97dureC_yGdZ9EuUnDXLu9IQEQfe1ato8YA52xuyjbq0PO2LxZTwoTytlC_SOUJTQNmvvxBsidma45lpFw3DF5i-KLlGJuUsReb3xOlsg1Ps1y41Mvw643GPNXPlcwjK4hgzl7bUvxIabul04YsWw6HKyTgD0W7k71gwKbN42bC16D8BkHAqetNhrwCWQgM9VqBZzN-CyR12eo1KPZoQ-hkNfT7eu69MK5qwj3Tw4W5fdQ1K9rcUdhnJ63iY3vPx26dhokY0Efq6dqvl7JySwfBBcz0Jt0OR8wrWlgLBqxXvIp9mgKT9hTuYnA6h_IX7HSdJ5LQFamRDnTSPA-ARpyvAZ6FySIS_RCQJdi4vAWHt9feB9wsigtChm5BObRuKuHujWsHtsVKNTSGEJyvoWIxrSt_VIwJrQATb5av5zyUaGNVdZmBISfThjiALWuhlZNfuj_W00]--></g></svg>