<?xml version="1.0" encoding="us-ascii" standalone="no"?><svg xmlns="http://www.w3.org/2000/svg" xmlns:xlink="http://www.w3.org/1999/xlink" contentStyleType="text/css" height="641px" preserveAspectRatio="none" style="width:446px;height:641px;" version="1.1" viewBox="0 0 446 641" width="446px" zoomAndPan="magnify"><defs/><g><g id="elem_GMN2"><path d="M244,6 L244,13 L223.617,17 L244,21 L244,27.6406 A0,0 0 0 0 244,27.6406 L331,27.6406 A0,0 0 0 0 331,27.6406 L331,16 L321,6 L244,6 A0,0 0 0 0 244,6 " fill="#F0F8FF" style="stroke:#181818;stroke-width:0.5;"/><path d="M321,6 L321,16 L331,16 L321,6 " fill="#F0F8FF" style="stroke:#181818;stroke-width:0.5;"/><text fill="#000000" font-family="Ubuntu Light" font-size="10" lengthAdjust="spacing" textLength="66" x="250" y="20.2822">A topic arise</text></g><ellipse cx="213.5" cy="17" fill="#222222" rx="10" ry="10" style="stroke:none;stroke-width:1.0;"/><rect fill="#B0E0E6" height="33.9688" rx="12.5" ry="12.5" style="stroke:#181818;stroke-width:0.5;" width="60" x="183.5" y="82"/><text fill="#000000" font-family="Ubuntu Light" font-size="12" font-weight="bold" lengthAdjust="spacing" textLength="40" x="193.5" y="103.1387">Draft</text><g id="elem_GMN8"><path d="M7.5,88 L7.5,109.6406 A0,0 0 0 0 7.5,109.6406 L163.5,109.6406 A0,0 0 0 0 163.5,109.6406 L163.5,106 L183.336,99 L163.5,98 L163.5,98 L153.5,88 L7.5,88 A0,0 0 0 0 7.5,88 " fill="#F0F8FF" style="stroke:#181818;stroke-width:0.5;"/><path d="M153.5,88 L153.5,98 L163.5,98 L153.5,88 " fill="#F0F8FF" style="stroke:#181818;stroke-width:0.5;"/><text fill="#000000" font-family="Ubuntu Light" font-size="10" lengthAdjust="spacing" textLength="135" x="13.5" y="102.2822">An Idea (issue) is created</text></g><rect fill="#B0E0E6" height="33.9688" rx="12.5" ry="12.5" style="stroke:#181818;stroke-width:0.5;" width="64" x="181.5" y="187"/><text fill="#000000" font-family="Ubuntu Light" font-size="12" font-weight="bold" lengthAdjust="spacing" textLength="44" x="191.5" y="208.1387">Ready</text><g id="elem_GMN13"><path d="M266,170 L266,200 L245.668,204 L266,208 L266,238.2031 A0,0 0 0 0 266,238.2031 L431,238.2031 A0,0 0 0 0 431,238.2031 L431,180 L421,170 L266,170 A0,0 0 0 0 266,170 " fill="#F0F8FF" style="stroke:#181818;stroke-width:0.5;"/><path d="M421,170 L421,180 L431,180 L421,170 " fill="#F0F8FF" style="stroke:#181818;stroke-width:0.5;"/><text fill="#000000" font-family="Ubuntu Light" font-size="10" lengthAdjust="spacing" textLength="92" x="272" y="184.2822">The idea is clear,</text><text fill="#000000" font-family="Ubuntu Light" font-size="10" lengthAdjust="spacing" textLength="12" x="272" y="195.9229">...,</text><text fill="#000000" font-family="Ubuntu Light" font-size="10" lengthAdjust="spacing" textLength="80" x="272" y="207.5635">and the idea is</text><text fill="#000000" font-family="Ubuntu Light" font-size="10" lengthAdjust="spacing" textLength="139" x="272" y="219.2041">planned to be included in</text><text fill="#000000" font-family="Ubuntu Light" font-size="10" lengthAdjust="spacing" textLength="144" x="272" y="230.8447">an upcoming sprint/month</text></g><rect fill="#B0E0E6" height="33.9688" rx="12.5" ry="12.5" style="stroke:#181818;stroke-width:0.5;" width="103" x="162" y="318"/><text fill="#000000" font-family="Ubuntu Light" font-size="12" font-weight="bold" lengthAdjust="spacing" textLength="83" x="172" y="339.1387">In progress</text><rect fill="#B0E0E6" height="33.9688" rx="12.5" ry="12.5" style="stroke:#181818;stroke-width:0.5;" width="49" x="189" y="393"/><text fill="#000000" font-family="Ubuntu Light" font-size="12" font-weight="bold" lengthAdjust="spacing" textLength="29" x="199" y="414.1387">TBD</text><rect fill="#B0E0E6" height="33.9688" rx="12.5" ry="12.5" style="stroke:#181818;stroke-width:0.5;" width="57" x="185" y="498"/><text fill="#000000" font-family="Ubuntu Light" font-size="12" font-weight="bold" lengthAdjust="spacing" textLength="37" x="195" y="519.1387">Done</text><g id="elem_GMN22"><path d="M262,481 L262,511 L242.131,515 L262,519 L262,549.2031 A0,0 0 0 0 262,549.2031 L439,549.2031 A0,0 0 0 0 439,549.2031 L439,491 L429,481 L262,481 A0,0 0 0 0 262,481 " fill="#F0F8FF" style="stroke:#181818;stroke-width:0.5;"/><path d="M429,481 L429,491 L439,491 L429,481 " fill="#F0F8FF" style="stroke:#181818;stroke-width:0.5;"/><text fill="#000000" font-family="Ubuntu Light" font-size="10" lengthAdjust="spacing" textLength="156" x="268" y="495.2822">The recording is uploaded to</text><text fill="#000000" font-family="Ubuntu Light" font-size="10" lengthAdjust="spacing" textLength="133" x="268" y="506.9229">VideoPortal and the talk,</text><text fill="#000000" font-family="Ubuntu Light" font-size="10" lengthAdjust="spacing" textLength="156" x="268" y="518.5635">alongside with the slides and</text><text fill="#000000" font-family="Ubuntu Light" font-size="10" lengthAdjust="spacing" textLength="123" x="268" y="530.2041">link to the source code</text><text fill="#000000" font-family="Ubuntu Light" font-size="10" lengthAdjust="spacing" textLength="60" x="268" y="541.8447">(if created)</text></g><ellipse cx="213.5" cy="612.5" fill="none" rx="10" ry="10" style="stroke:#228B22;stroke-width:1.0;"/><ellipse cx="214" cy="613" fill="#228B22" rx="6" ry="6" style="stroke:none;stroke-width:1.0;"/><g id="elem_GMN27"><path d="M6,590 L6,634.9219 A0,0 0 0 0 6,634.9219 L183,634.9219 A0,0 0 0 0 183,634.9219 L183,616.5 L203.114,612.5 L183,608.5 L183,600 L173,590 L6,590 A0,0 0 0 0 6,590 " fill="#F0F8FF" style="stroke:#181818;stroke-width:0.5;"/><path d="M173,590 L173,600 L183,600 L173,590 " fill="#F0F8FF" style="stroke:#181818;stroke-width:0.5;"/><text fill="#000000" font-family="Ubuntu Light" font-size="10" lengthAdjust="spacing" textLength="129" x="12" y="604.2822">We collect statistics and</text><text fill="#000000" font-family="Ubuntu Light" font-size="10" lengthAdjust="spacing" textLength="156" x="12" y="615.9229">feedback about the webinar:</text><text fill="#000000" font-family="Ubuntu Light" font-size="10" lengthAdjust="spacing" textLength="9" x="12" y="627.5635">...</text></g><!--link start to Draft--><g id="link_start_Draft"><path d="M213.5,27.177 C213.5,39.124 213.5,60.379 213.5,76.496 " fill="none" id="start-to-Draft" style="stroke:#4682B4;stroke-width:1.0;"/><polygon fill="#4682B4" points="213.5,81.745,217.5,72.745,213.5,76.745,209.5,72.745,213.5,81.745" style="stroke:#4682B4;stroke-width:1.0;"/><text fill="#4682B4" font-family="Ubuntu Light" font-size="11" lengthAdjust="spacing" textLength="65" x="214.5" y="59.2104">Submission</text></g><!--link Draft to Ready--><g id="link_Draft_Ready"><path d="M213.5,116.094 C213.5,133.678 213.5,161.935 213.5,181.429 " fill="none" id="Draft-to-Ready" style="stroke:#4682B4;stroke-width:1.0;"/><polygon fill="#4682B4" points="213.5,186.679,217.5,177.679,213.5,181.679,209.5,177.679,213.5,186.679" style="stroke:#4682B4;stroke-width:1.0;"/><text fill="#4682B4" font-family="Ubuntu Light" font-size="11" lengthAdjust="spacing" textLength="66" x="214.5" y="147.2104">Clarification</text></g><!--link Ready to In progress--><g id="link_Ready_In progress"><path d="M213.5,221.077 C213.5,244.155 213.5,286.724 213.5,312.49 " fill="none" id="Ready-to-In progress" style="stroke:#4682B4;stroke-width:1.0;stroke-dasharray:1.0,3.0;"/><polygon fill="#4682B4" points="213.5,317.72,217.5,308.72,213.5,312.72,209.5,308.72,213.5,317.72" style="stroke:#4682B4;stroke-width:1.0;"/><text fill="#4682B4" font-family="Ubuntu Light" font-size="11" lengthAdjust="spacing" textLength="58" x="229.5" y="269.2104">The given</text><text fill="#4682B4" font-family="Ubuntu Light" font-size="11" font-weight="bold" lengthAdjust="spacing" textLength="88" x="214.5" y="282.0151">sprint/month</text><text fill="#4682B4" font-family="Ubuntu Light" font-size="11" lengthAdjust="spacing" textLength="39" x="239" y="294.8198">arrives</text></g><!--link In progress to TBD--><g id="link_In progress_TBD"><path d="M213.5,352.201 C213.5,362.692 213.5,376.463 213.5,387.818 " fill="none" id="In progress-to-TBD" style="stroke:#4682B4;stroke-width:1.0;stroke-dasharray:1.0,3.0;"/><polygon fill="#4682B4" points="213.5,392.844,217.5,383.844,213.5,387.844,209.5,383.844,213.5,392.844" style="stroke:#4682B4;stroke-width:1.0;"/></g><!--link TBD to Done--><g id="link_TBD_Done"><path d="M213.5,427.094 C213.5,444.678 213.5,472.935 213.5,492.429 " fill="none" id="TBD-to-Done" style="stroke:#4682B4;stroke-width:1.0;"/><polygon fill="#4682B4" points="213.5,497.679,217.5,488.679,213.5,492.679,209.5,488.679,213.5,497.679" style="stroke:#4682B4;stroke-width:1.0;"/><text fill="#4682B4" font-family="Ubuntu Light" font-size="11" lengthAdjust="spacing" textLength="81" x="214.5" y="458.2104">Administration</text></g><!--link Done to end--><g id="link_Done_end"><path d="M213.5,532.2 C213.5,550.3685 213.5,579.5667 213.5,597.0068 " fill="none" id="Done-to-end" style="stroke:#4682B4;stroke-width:1.0;stroke-dasharray:1.0,3.0;"/><polygon fill="#4682B4" points="213.5,602.4376,217.5,593.4376,213.5,597.4376,209.5,593.4376,213.5,602.4376" style="stroke:#4682B4;stroke-width:1.0;"/></g><!--SRC=[TLDBRzim3BxxL_2O16ksNNSea3JhK60OYgNR3cqFiaGxGXJIaEW6sR3_FahEemawdsH-3_8JxRJsr9beDk2mCNsGMoRvPZO8F-gUf8Ullbr9bOwqsjXr6xadTyE18qWqb1H2akeLpLZnBrvsyAS2VUONgdlUEeppq6E1bsAY3CWjHqpo9I9IWJuV99T07dGfku1GSt3LtxFkCV9sttfGBmKn7FjbxMNzp81Oy3-ZpuAtUEQqzByHFdx83aKNovLbT0R2dRSwZqzO8RbYN8qcOxYwkdvSzlN6f-IPdc4HJIE3Fc2pbnFSEJGmKbAFO_09R4GZw4vUsUScQ8F6MoF5wZiQjxiSvM65uBDPDWbeuhjIdawdmy6eePmufTO5GuHQPwWL8Hjwfw-UzWheEyiRJosaBdgIznkzZTLfjkdq-Z7tRVqBqXDD9gzfayaJwPuKIizmHz15RdN3AQiUveiIRERKtIVznePa2oPyArX4oz7bGJHTtmKshenT23yr4jzp51EEAVMytkSEJ6rI2cozh0gOWhwcp2sCu6cThw10t4UBODaDwn_vvh2IyLbkq1rVRFDNreM0LY291ahYxQbBW-ZolmMcvbvAiotMNg_eqs5HnmR_0000]--></g></svg>